Suravaram.ufo
<glyph name="exclam" format="1">
  <advance width="315"/>
  <unicode hex="0021"/>
  <outline>
    <contour>
      <point x="181" y="92" type="line" name="hr00"/>
      <point x="217" y="121" type="line"/>
      <point x="253" y="549" type="line"/>
      <point x="139" y="527" type="line"/>
      <point x="181" y="94" type="line"/>
    </contour>
    <contour>
      <point x="198" y="-60" type="curve" smooth="yes"/>
      <point x="211" y="-60"/>
      <point x="223" y="-56"/>
      <point x="233" y="-47" type="curve"/>
      <point x="242" y="-36"/>
      <point x="247" y="-25"/>
      <point x="247" y="-12" type="curve" smooth="yes"/>
      <point x="247" y="3"/>
      <point x="242" y="15"/>
      <point x="233" y="26" type="curve" smooth="yes"/>
      <point x="224" y="37"/>
      <point x="212" y="42"/>
      <point x="199" y="42" type="curve" smooth="yes"/>
      <point x="186" y="42"/>
      <point x="175" y="37"/>
      <point x="164" y="26" type="curve"/>
      <point x="155" y="15"/>
      <point x="151" y="3"/>
      <point x="151" y="-12" type="curve" smooth="yes"/>
      <point x="151" y="-25"/>
      <point x="155" y="-36"/>
      <point x="164" y="-47" type="curve"/>
      <point x="175" y="-56"/>
      <point x="186" y="-60"/>
    </contour>
  </outline>
</glyph>
<glyph name="percent" format="1">
  <advance width="717"/>
  <unicode hex="0025"/>
  <outline>
    <contour>
      <point x="541" y="48" type="curve" smooth="yes" name="hr00"/>
      <point x="516" y="48"/>
      <point x="495" y="58"/>
      <point x="477" y="77" type="curve" smooth="yes"/>
      <point x="459" y="97"/>
      <point x="449" y="119"/>
      <point x="449" y="146" type="curve" smooth="yes"/>
      <point x="449" y="161"/>
      <point x="454" y="172"/>
      <point x="465" y="181" type="curve"/>
      <point x="474" y="192"/>
      <point x="485" y="197"/>
      <point x="500" y="197" type="curve" smooth="yes"/>
      <point x="527" y="197"/>
      <point x="550" y="187"/>
      <point x="569" y="168" type="curve" smooth="yes"/>
      <point x="588" y="149"/>
      <point x="598" y="125"/>
      <point x="598" y="98" type="curve" smooth="yes"/>
      <point x="598" y="84"/>
      <point x="592" y="72"/>
      <point x="581" y="63" type="curve"/>
      <point x="571" y="53"/>
      <point x="558" y="48"/>
    </contour>
    <contour>
      <point x="499" y="-8" type="curve" smooth="yes"/>
      <point x="533" y="-8"/>
      <point x="568" y="8"/>
      <point x="603" y="43" type="curve" smooth="yes"/>
      <point x="638" y="78"/>
      <point x="654" y="113"/>
      <point x="654" y="146" type="curve" smooth="yes"/>
      <point x="654" y="175"/>
      <point x="644" y="201"/>
      <point x="623" y="222" type="curve" smooth="yes"/>
      <point x="602" y="243"/>
      <point x="577" y="253"/>
      <point x="548" y="253" type="curve" smooth="yes"/>
      <point x="514" y="253"/>
      <point x="480" y="236"/>
      <point x="445" y="201" type="curve" smooth="yes"/>
      <point x="410" y="166"/>
      <point x="393" y="132"/>
      <point x="393" y="98" type="curve" smooth="yes"/>
      <point x="393" y="69"/>
      <point x="403" y="44"/>
      <point x="424" y="23" type="curve" smooth="yes"/>
      <point x="445" y="2"/>
      <point x="470" y="-8"/>
    </contour>
    <contour>
      <point x="217" y="318" type="curve" smooth="yes"/>
      <point x="192" y="318"/>
      <point x="171" y="328"/>
      <point x="153" y="347" type="curve" smooth="yes"/>
      <point x="135" y="367"/>
      <point x="125" y="389"/>
      <point x="125" y="416" type="curve" smooth="yes"/>
      <point x="125" y="431"/>
      <point x="130" y="442"/>
      <point x="141" y="451" type="curve"/>
      <point x="150" y="462"/>
      <point x="161" y="467"/>
      <point x="176" y="467" type="curve" smooth="yes"/>
      <point x="203" y="467"/>
      <point x="226" y="457"/>
      <point x="245" y="438" type="curve" smooth="yes"/>
      <point x="264" y="419"/>
      <point x="274" y="395"/>
      <point x="274" y="368" type="curve" smooth="yes"/>
      <point x="274" y="354"/>
      <point x="268" y="342"/>
      <point x="257" y="333" type="curve"/>
      <point x="247" y="323"/>
      <point x="234" y="318"/>
    </contour>
    <contour>
      <point x="175" y="262" type="curve" smooth="yes"/>
      <point x="209" y="262"/>
      <point x="244" y="278"/>
      <point x="279" y="313" type="curve" smooth="yes"/>
      <point x="314" y="348"/>
      <point x="330" y="383"/>
      <point x="330" y="416" type="curve" smooth="yes"/>
      <point x="330" y="445"/>
      <point x="320" y="471"/>
      <point x="299" y="492" type="curve" smooth="yes"/>
      <point x="278" y="513"/>
      <point x="253" y="523"/>
      <point x="224" y="523" type="curve" smooth="yes"/>
      <point x="190" y="523"/>
      <point x="156" y="506"/>
      <point x="121" y="471" type="curve" smooth="yes"/>
      <point x="86" y="436"/>
      <point x="69" y="402"/>
      <point x="69" y="368" type="curve" smooth="yes"/>
      <point x="69" y="339"/>
      <point x="79" y="314"/>
      <point x="100" y="293" type="curve" smooth="yes"/>
      <point x="121" y="272"/>
      <point x="146" y="262"/>
    </contour>
    <contour>
      <point x="194" y="-63" type="line"/>
      <point x="571" y="481" type="line"/>
      <point x="513" y="529" type="line"/>
      <point x="135" y="-13" type="line"/>
      <point x="194" y="-60" type="line"/>
    </contour>
  </outline>
</glyph>
<glyph name="quotesingle" format="1">
  <advance width="213"/>
  <unicode hex="0027"/>
  <outline>
    <contour>
      <point x="148" y="527" type="line" name="hr00"/>
      <point x="143" y="717" type="line"/>
      <point x="69" y="717" type="line"/>
      <point x="104" y="526" type="line"/>
      <point x="148" y="526" type="line"/>
    </contour>
  </outline>
</glyph>
<glyph name="parenleft" format="1">
  <advance width="434"/>
  <unicode hex="0028"/>
  <outline>
    <contour>
      <point x="323" y="-177" type="line" name="hr00"/>
      <point x="373" y="-122" type="line"/>
      <point x="351" y="-131" type="line" smooth="yes"/>
      <point x="345" y="-134"/>
      <point x="341" y="-135"/>
      <point x="340" y="-135" type="curve" smooth="yes"/>
      <point x="290" y="-135"/>
      <point x="244" y="-94"/>
      <point x="201" y="-12" type="curve" smooth="yes"/>
      <point x="158" y="71"/>
      <point x="136" y="160"/>
      <point x="136" y="257" type="curve" smooth="yes"/>
      <point x="136" y="357"/>
      <point x="150" y="437"/>
      <point x="179" y="497" type="curve" smooth="yes"/>
      <point x="208" y="556"/>
      <point x="246" y="586"/>
      <point x="293" y="586" type="curve" smooth="yes"/>
      <point x="305" y="586"/>
      <point x="317" y="584"/>
      <point x="328" y="580" type="curve"/>
      <point x="364" y="632" type="line"/>
      <point x="349" y="641"/>
      <point x="337" y="645"/>
      <point x="328" y="645" type="curve" smooth="yes"/>
      <point x="305" y="645"/>
      <point x="283" y="639"/>
      <point x="261" y="627" type="curve" smooth="yes"/>
      <point x="238" y="615"/>
      <point x="217" y="598"/>
      <point x="199" y="576" type="curve" smooth="yes"/>
      <point x="157" y="526"/>
      <point x="125" y="469"/>
      <point x="103" y="406" type="curve" smooth="yes"/>
      <point x="80" y="343"/>
      <point x="69" y="278"/>
      <point x="69" y="210" type="curve" smooth="yes"/>
      <point x="69" y="109"/>
      <point x="91" y="19"/>
      <point x="137" y="-60" type="curve" smooth="yes"/>
      <point x="182" y="-138"/>
      <point x="235" y="-177"/>
      <point x="293" y="-177" type="curve" smooth="yes"/>
    </contour>
  </outline>
</glyph>
<glyph name="parenright" format="1">
  <advance width="434"/>
  <unicode hex="0029"/>
  <outline>
    <contour>
      <point x="79" y="-167" type="line" name="hr00"/>
      <point x="94" y="-175"/>
      <point x="106" y="-179"/>
      <point x="115" y="-179" type="curve" smooth="yes"/>
      <point x="138" y="-179"/>
      <point x="160" y="-173"/>
      <point x="183" y="-161" type="curve" smooth="yes"/>
      <point x="206" y="-149"/>
      <point x="225" y="-131"/>
      <point x="244" y="-109" type="curve" smooth="yes"/>
      <point x="285" y="-59"/>
      <point x="317" y="-3"/>
      <point x="340" y="61" type="curve" smooth="yes"/>
      <point x="362" y="124"/>
      <point x="374" y="189"/>
      <point x="374" y="257" type="curve" smooth="yes"/>
      <point x="374" y="358"/>
      <point x="352" y="448"/>
      <point x="306" y="527" type="curve" smooth="yes"/>
      <point x="261" y="605"/>
      <point x="208" y="644"/>
      <point x="149" y="644" type="curve" smooth="yes"/>
      <point x="120" y="644" type="line"/>
      <point x="69" y="587" type="line"/>
      <point x="93" y="598" type="line" smooth="yes"/>
      <point x="98" y="600"/>
      <point x="102" y="601"/>
      <point x="103" y="601" type="curve" smooth="yes"/>
      <point x="154" y="601"/>
      <point x="200" y="560"/>
      <point x="242" y="479" type="curve" smooth="yes"/>
      <point x="285" y="396"/>
      <point x="307" y="307"/>
      <point x="307" y="210" type="curve" smooth="yes"/>
      <point x="307" y="110"/>
      <point x="293" y="30"/>
      <point x="264" y="-30" type="curve" smooth="yes"/>
      <point x="236" y="-89"/>
      <point x="198" y="-119"/>
      <point x="150" y="-119" type="curve" smooth="yes"/>
      <point x="144" y="-119"/>
      <point x="132" y="-115"/>
      <point x="115" y="-107" type="curve"/>
      <point x="79" y="-166" type="line"/>
    </contour>
  </outline>
</glyph>
<glyph name="plus" format="1">
  <advance width="554"/>
  <unicode hex="002B"/>
  <outline>
    <contour>
      <point x="233" y="-2" type="line" name="hr00"/>
      <point x="317" y="46" type="line"/>
      <point x="317" y="185" type="line"/>
      <point x="438" y="185" type="line"/>
      <point x="493" y="258" type="line"/>
      <point x="317" y="258" type="line"/>
      <point x="317" y="457" type="line"/>
      <point x="233" y="409" type="line"/>
      <point x="233" y="269" type="line"/>
      <point x="129" y="269" type="line"/>
      <point x="69" y="185" type="line"/>
      <point x="233" y="185" type="line"/>
      <point x="233" y="0" type="line"/>
    </contour>
  </outline>
</glyph>
<glyph name="comma" format="1">
  <advance width="262"/>
  <unicode hex="002C"/>
  <outline>
    <contour>
      <point x="81" y="-135" type="line" name="hr00"/>
      <point x="114" y="-135"/>
      <point x="143" y="-121"/>
      <point x="166" y="-91" type="curve" smooth="yes"/>
      <point x="189" y="-62"/>
      <point x="199" y="-25"/>
      <point x="199" y="18" type="curve" smooth="yes"/>
      <point x="199" y="43"/>
      <point x="193" y="65"/>
      <point x="180" y="84" type="curve" smooth="yes"/>
      <point x="168" y="102"/>
      <point x="153" y="111"/>
      <point x="135" y="111" type="curve" smooth="yes"/>
      <point x="117" y="111"/>
      <point x="101" y="106"/>
      <point x="88" y="95" type="curve" smooth="yes"/>
      <point x="75" y="83"/>
      <point x="69" y="69"/>
      <point x="69" y="53" type="curve" smooth="yes"/>
      <point x="69" y="38"/>
      <point x="75" y="26"/>
      <point x="88" y="15" type="curve" smooth="yes"/>
      <point x="101" y="4"/>
      <point x="117" y="-1"/>
      <point x="134" y="-1" type="curve"/>
      <point x="134" y="-36"/>
      <point x="129" y="-66"/>
      <point x="119" y="-91" type="curve" smooth="yes"/>
      <point x="109" y="-115"/>
      <point x="96" y="-129"/>
      <point x="81" y="-133" type="curve"/>
    </contour>
  </outline>
</glyph>
<glyph name="hyphen" format="1">
  <advance width="484"/>
  <unicode hex="002D"/>
  <outline>
    <contour>
      <point x="69" y="185" type="line" name="hr00"/>
      <point x="362" y="185" type="line"/>
      <point x="422" y="258" type="line"/>
      <point x="129" y="258" type="line"/>
      <point x="69" y="186" type="line"/>
    </contour>
  </outline>
</glyph>
<glyph name="period" format="1">
  <advance width="250"/>
  <unicode hex="002E"/>
  <outline>
    <contour>
      <point x="128" y="-7" type="curve" smooth="yes" name="hr00"/>
      <point x="145" y="-7"/>
      <point x="159" y="-1"/>
      <point x="171" y="12" type="curve" smooth="yes"/>
      <point x="182" y="25"/>
      <point x="187" y="41"/>
      <point x="187" y="59" type="curve" smooth="yes"/>
      <point x="187" y="75"/>
      <point x="183" y="89"/>
      <point x="171" y="101" type="curve" smooth="yes"/>
      <point x="159" y="113"/>
      <point x="145" y="117"/>
      <point x="129" y="117" type="curve" smooth="yes"/>
      <point x="113" y="117"/>
      <point x="99" y="112"/>
      <point x="86" y="101" type="curve"/>
      <point x="75" y="89"/>
      <point x="69" y="75"/>
      <point x="69" y="59" type="curve" smooth="yes"/>
      <point x="69" y="41"/>
      <point x="74" y="25"/>
      <point x="86" y="12" type="curve" smooth="yes"/>
      <point x="98" y="-2"/>
      <point x="113" y="-7"/>
    </contour>
  </outline>
</glyph>
<glyph name="slash" format="1">
  <advance width="550"/>
  <unicode hex="002F"/>
  <outline>
    <contour>
      <point x="128" y="-189" type="line" name="hr00"/>
      <point x="488" y="556" type="line"/>
      <point x="429" y="597" type="line"/>
      <point x="69" y="-144" type="line"/>
      <point x="128" y="-186" type="line"/>
    </contour>
  </outline>
</glyph>
<glyph name="zero" format="1">
  <advance width="485"/>
  <unicode hex="0030"/>
  <outline>
    <contour>
      <point x="271" y="32" type="curve" smooth="yes" name="hr00"/>
      <point x="221" y="32"/>
      <point x="181" y="56"/>
      <point x="150" y="105" type="curve" smooth="yes"/>
      <point x="119" y="152"/>
      <point x="104" y="217"/>
      <point x="104" y="298" type="curve" smooth="yes"/>
      <point x="104" y="339"/>
      <point x="113" y="371"/>
      <point x="132" y="395" type="curve" smooth="yes"/>
      <point x="151" y="420"/>
      <point x="176" y="432"/>
      <point x="208" y="432" type="curve" smooth="yes"/>
      <point x="259" y="432"/>
      <point x="302" y="407"/>
      <point x="340" y="360" type="curve" smooth="yes"/>
      <point x="378" y="312"/>
      <point x="399" y="258"/>
      <point x="399" y="197" type="curve" smooth="yes"/>
      <point x="399" y="146"/>
      <point x="387" y="107"/>
      <point x="364" y="78" type="curve" smooth="yes"/>
      <point x="341" y="47"/>
      <point x="310" y="32"/>
    </contour>
    <contour>
      <point x="254" y="-6" type="curve" smooth="yes"/>
      <point x="309" y="-6"/>
      <point x="357" y="19"/>
      <point x="396" y="69" type="curve" smooth="yes"/>
      <point x="435" y="120"/>
      <point x="454" y="180"/>
      <point x="454" y="250" type="curve" smooth="yes"/>
      <point x="454" y="312"/>
      <point x="434" y="365"/>
      <point x="394" y="410" type="curve" smooth="yes"/>
      <point x="353" y="455"/>
      <point x="305" y="477"/>
      <point x="249" y="477" type="curve" smooth="yes"/>
      <point x="188" y="477"/>
      <point x="138" y="453"/>
      <point x="98" y="404" type="curve" smooth="yes"/>
      <point x="58" y="355"/>
      <point x="38" y="293"/>
      <point x="38" y="218" type="curve" smooth="yes"/>
      <point x="38" y="157"/>
      <point x="59" y="104"/>
      <point x="102" y="60" type="curve" smooth="yes"/>
      <point x="145" y="16"/>
      <point x="195" y="-6"/>
    </contour>
  </outline>
</glyph>
<glyph name="one" format="1">
  <advance width="485"/>
  <unicode hex="0031"/>
  <outline>
    <contour>
      <point x="103" y="354" type="line" name="hr00"/>
      <point x="125" y="301" type="line"/>
      <point x="161" y="314"/>
      <point x="190" y="331"/>
      <point x="212" y="352" type="curve"/>
      <point x="212" y="49" type="line"/>
      <point x="87" y="49" type="line"/>
      <point x="62" y="-1" type="line"/>
      <point x="412" y="-1" type="line"/>
      <point x="431" y="49" type="line"/>
      <point x="297" y="49" type="line"/>
      <point x="297" y="474" type="line"/>
      <point x="219" y="446" type="line"/>
      <point x="180" y="399"/>
      <point x="141" y="368"/>
      <point x="103" y="355" type="curve"/>
    </contour>
  </outline>
</glyph>
<glyph name="two" format="1">
  <advance width="487"/>
  <unicode hex="0032"/>
  <outline>
    <contour>
      <point x="65" y="-9" type="line" name="hr00"/>
      <point x="71" y="1"/>
      <point x="81" y="8"/>
      <point x="96" y="13" type="curve" smooth="yes"/>
      <point x="112" y="18"/>
      <point x="131" y="21"/>
      <point x="153" y="21" type="curve"/>
      <point x="341" y="-1" type="line"/>
      <point x="362" y="-1"/>
      <point x="378" y="1"/>
      <point x="387" y="4" type="curve"/>
      <point x="433" y="65" type="line" smooth="yes"/>
      <point x="434" y="66"/>
      <point x="427" y="64"/>
      <point x="414" y="57" type="curve"/>
      <point x="399" y="51"/>
      <point x="382" y="48"/>
      <point x="363" y="48" type="curve" smooth="yes"/>
      <point x="346" y="48"/>
      <point x="319" y="51"/>
      <point x="284" y="59" type="curve" smooth="yes"/>
      <point x="250" y="66"/>
      <point x="224" y="71"/>
      <point x="206" y="71" type="curve" smooth="yes"/>
      <point x="175" y="71"/>
      <point x="152" y="66"/>
      <point x="137" y="57" type="curve"/>
      <point x="130" y="64"/>
      <point x="124" y="70"/>
      <point x="120" y="77" type="curve" smooth="yes"/>
      <point x="116" y="85"/>
      <point x="114" y="93"/>
      <point x="114" y="100" type="curve" smooth="yes"/>
      <point x="114" y="117"/>
      <point x="127" y="138"/>
      <point x="153" y="163" type="curve" smooth="yes"/>
      <point x="176" y="186"/>
      <point x="214" y="216"/>
      <point x="265" y="253" type="curve" smooth="yes"/>
      <point x="307" y="284"/>
      <point x="339" y="310"/>
      <point x="360" y="331" type="curve" smooth="yes"/>
      <point x="382" y="354"/>
      <point x="393" y="374"/>
      <point x="393" y="389" type="curve" smooth="yes"/>
      <point x="393" y="411"/>
      <point x="383" y="430"/>
      <point x="364" y="447" type="curve" smooth="yes"/>
      <point x="345" y="463"/>
      <point x="321" y="471"/>
      <point x="294" y="471" type="curve" smooth="yes"/>
      <point x="200" y="471" type="line" smooth="yes"/>
      <point x="163" y="471"/>
      <point x="128" y="459"/>
      <point x="96" y="435" type="curve" smooth="yes"/>
      <point x="64" y="410"/>
      <point x="48" y="383"/>
      <point x="48" y="354" type="curve" smooth="yes"/>
      <point x="48" y="345"/>
      <point x="52" y="332"/>
      <point x="59" y="315" type="curve"/>
      <point x="155" y="349" type="line"/>
      <point x="138" y="369" type="line" smooth="yes"/>
      <point x="134" y="375"/>
      <point x="132" y="380"/>
      <point x="132" y="384" type="curve" smooth="yes"/>
      <point x="132" y="401"/>
      <point x="140" y="416"/>
      <point x="157" y="429" type="curve" smooth="yes"/>
      <point x="174" y="442"/>
      <point x="194" y="448"/>
      <point x="218" y="448" type="curve" smooth="yes"/>
      <point x="245" y="448"/>
      <point x="268" y="440"/>
      <point x="287" y="424" type="curve" smooth="yes"/>
      <point x="306" y="409"/>
      <point x="316" y="390"/>
      <point x="316" y="367" type="curve" smooth="yes"/>
      <point x="316" y="355"/>
      <point x="306" y="341"/>
      <point x="288" y="321" type="curve" smooth="yes"/>
      <point x="274" y="307"/>
      <point x="249" y="283"/>
      <point x="211" y="252" type="curve" smooth="yes"/>
      <point x="159" y="209"/>
      <point x="119" y="169"/>
      <point x="91" y="132" type="curve" smooth="yes"/>
      <point x="62" y="93"/>
      <point x="48" y="63"/>
      <point x="48" y="40" type="curve" smooth="yes"/>
      <point x="48" y="29"/>
      <point x="50" y="20"/>
      <point x="53" y="13" type="curve"/>
      <point x="55" y="4"/>
      <point x="59" y="-2"/>
      <point x="65" y="-6" type="curve"/>
    </contour>
  </outline>
</glyph>
<glyph name="three" format="1">
  <advance width="487"/>
  <unicode hex="0033"/>
  <outline>
    <contour>
      <point x="305" y="-1" type="line" smooth="yes" name="hr00"/>
      <point x="336" y="-1"/>
      <point x="368" y="17"/>
      <point x="399" y="53" type="curve" smooth="yes"/>
      <point x="431" y="90"/>
      <point x="446" y="126"/>
      <point x="446" y="162" type="curve" smooth="yes"/>
      <point x="446" y="189"/>
      <point x="434" y="216"/>
      <point x="411" y="241" type="curve" smooth="yes"/>
      <point x="387" y="266"/>
      <point x="356" y="285"/>
      <point x="319" y="299" type="curve"/>
      <point x="338" y="322"/>
      <point x="353" y="341"/>
      <point x="361" y="354" type="curve" smooth="yes"/>
      <point x="372" y="371"/>
      <point x="376" y="383"/>
      <point x="376" y="392" type="curve" smooth="yes"/>
      <point x="376" y="411"/>
      <point x="366" y="429"/>
      <point x="346" y="446" type="curve" smooth="yes"/>
      <point x="327" y="462"/>
      <point x="305" y="470"/>
      <point x="282" y="470" type="curve" smooth="yes"/>
      <point x="223" y="470" type="line" smooth="yes"/>
      <point x="194" y="470"/>
      <point x="163" y="458"/>
      <point x="133" y="432" type="curve" smooth="yes"/>
      <point x="103" y="406"/>
      <point x="89" y="379"/>
      <point x="89" y="354" type="curve" smooth="yes"/>
      <point x="89" y="345"/>
      <point x="93" y="334"/>
      <point x="102" y="323" type="curve" smooth="yes"/>
      <point x="110" y="314"/>
      <point x="122" y="305"/>
      <point x="137" y="298" type="curve"/>
      <point x="202" y="354" type="line"/>
      <point x="187" y="361"/>
      <point x="176" y="368"/>
      <point x="168" y="375" type="curve" smooth="yes"/>
      <point x="159" y="382"/>
      <point x="154" y="387"/>
      <point x="154" y="392" type="curve" smooth="yes"/>
      <point x="154" y="401"/>
      <point x="159" y="410"/>
      <point x="170" y="417" type="curve" smooth="yes"/>
      <point x="180" y="423"/>
      <point x="192" y="426"/>
      <point x="206" y="426" type="curve" smooth="yes"/>
      <point x="233" y="426"/>
      <point x="259" y="419"/>
      <point x="282" y="406" type="curve" smooth="yes"/>
      <point x="305" y="392"/>
      <point x="316" y="377"/>
      <point x="316" y="362" type="curve" smooth="yes"/>
      <point x="316" y="348"/>
      <point x="307" y="332"/>
      <point x="288" y="313" type="curve" smooth="yes"/>
      <point x="269" y="294"/>
      <point x="242" y="274"/>
      <point x="208" y="255" type="curve"/>
      <point x="261" y="255"/>
      <point x="304" y="243"/>
      <point x="336" y="219" type="curve" smooth="yes"/>
      <point x="369" y="195"/>
      <point x="385" y="165"/>
      <point x="385" y="128" type="curve" smooth="yes"/>
      <point x="385" y="103"/>
      <point x="374" y="81"/>
      <point x="352" y="63" type="curve" smooth="yes"/>
      <point x="329" y="45"/>
      <point x="302" y="36"/>
      <point x="270" y="36" type="curve" smooth="yes"/>
      <point x="230" y="36"/>
      <point x="197" y="46"/>
      <point x="171" y="67" type="curve" smooth="yes"/>
      <point x="145" y="87"/>
      <point x="132" y="113"/>
      <point x="132" y="145" type="curve" smooth="yes"/>
      <point x="132" y="155"/>
      <point x="136" y="167"/>
      <point x="143" y="181" type="curve"/>
      <point x="48" y="129" type="line"/>
      <point x="51" y="92"/>
      <point x="68" y="61"/>
      <point x="101" y="36" type="curve" smooth="yes"/>
      <point x="134" y="11"/>
      <point x="173" y="-1"/>
      <point x="217" y="-1" type="curve" smooth="yes"/>
    </contour>
  </outline>
</glyph>
<glyph name="four" format="1">
  <advance width="487"/>
  <unicode hex="0034"/>
  <outline>
    <contour>
      <point x="99" y="183" type="line" name="hr00"/>
      <point x="262" y="410" type="line"/>
      <point x="262" y="187" type="line"/>
      <point x="99" y="187" type="line"/>
    </contour>
    <contour>
      <point x="262" y="-7" type="line"/>
      <point x="346" y="34" type="line"/>
      <point x="346" y="125" type="line"/>
      <point x="379" y="125" type="line"/>
      <point x="451" y="187" type="line"/>
      <point x="346" y="187" type="line"/>
      <point x="346" y="471" type="line"/>
      <point x="261" y="471" type="line"/>
      <point x="44" y="187" type="line"/>
      <point x="44" y="125" type="line"/>
      <point x="262" y="125" type="line"/>
      <point x="262" y="-5" type="line"/>
    </contour>
  </outline>
</glyph>
<glyph name="five" format="1">
  <advance width="485"/>
  <unicode hex="0035"/>
  <outline>
    <contour>
      <point x="198" y="-6" type="curve" smooth="yes" name="hr00"/>
      <point x="269" y="-6"/>
      <point x="330" y="14"/>
      <point x="381" y="55" type="curve" smooth="yes"/>
      <point x="432" y="97"/>
      <point x="457" y="146"/>
      <point x="457" y="203" type="curve" smooth="yes"/>
      <point x="457" y="241"/>
      <point x="435" y="276"/>
      <point x="392" y="307" type="curve" smooth="yes"/>
      <point x="347" y="339"/>
      <point x="299" y="355"/>
      <point x="248" y="355" type="curve" smooth="yes"/>
      <point x="225" y="355"/>
      <point x="204" y="353"/>
      <point x="187" y="349" type="curve" smooth="yes"/>
      <point x="170" y="346"/>
      <point x="157" y="341"/>
      <point x="148" y="335" type="curve"/>
      <point x="180" y="409" type="line"/>
      <point x="363" y="409" type="line"/>
      <point x="422" y="471" type="line"/>
      <point x="127" y="471" type="line"/>
      <point x="55" y="298" type="line"/>
      <point x="117" y="258" type="line"/>
      <point x="128" y="270"/>
      <point x="145" y="280"/>
      <point x="168" y="287" type="curve" smooth="yes"/>
      <point x="192" y="294"/>
      <point x="221" y="297"/>
      <point x="254" y="297" type="curve" smooth="yes"/>
      <point x="290" y="297"/>
      <point x="323" y="283"/>
      <point x="354" y="257" type="curve" smooth="yes"/>
      <point x="385" y="231"/>
      <point x="400" y="204"/>
      <point x="400" y="173" type="curve" smooth="yes"/>
      <point x="400" y="138"/>
      <point x="385" y="108"/>
      <point x="355" y="81" type="curve" smooth="yes"/>
      <point x="326" y="54"/>
      <point x="293" y="41"/>
      <point x="254" y="41" type="curve" smooth="yes"/>
      <point x="222" y="41"/>
      <point x="193" y="49"/>
      <point x="168" y="66" type="curve" smooth="yes"/>
      <point x="141" y="83"/>
      <point x="127" y="102"/>
      <point x="127" y="121" type="curve" smooth="yes"/>
      <point x="127" y="131"/>
      <point x="129" y="140"/>
      <point x="134" y="147" type="curve"/>
      <point x="36" y="127" type="line"/>
      <point x="36" y="92"/>
      <point x="52" y="61"/>
      <point x="85" y="34" type="curve" smooth="yes"/>
      <point x="118" y="7"/>
      <point x="156" y="-6"/>
    </contour>
  </outline>
</glyph>
<glyph name="six" format="1">
  <advance width="485"/>
  <unicode hex="0036"/>
  <outline>
    <contour>
      <point x="283" y="41" type="curve" smooth="yes" name="hr00"/>
      <point x="262" y="41"/>
      <point x="242" y="46"/>
      <point x="224" y="56" type="curve" smooth="yes"/>
      <point x="205" y="67"/>
      <point x="191" y="82"/>
      <point x="180" y="100" type="curve"/>
      <point x="187" y="117"/>
      <point x="199" y="131"/>
      <point x="218" y="142" type="curve" smooth="yes"/>
      <point x="235" y="153"/>
      <point x="255" y="159"/>
      <point x="278" y="159" type="curve" smooth="yes"/>
      <point x="300" y="159"/>
      <point x="319" y="152"/>
      <point x="334" y="138" type="curve"/>
      <point x="350" y="126"/>
      <point x="358" y="110"/>
      <point x="358" y="91" type="curve" smooth="yes"/>
      <point x="358" y="78"/>
      <point x="351" y="66"/>
      <point x="337" y="56" type="curve" smooth="yes"/>
      <point x="322" y="46"/>
      <point x="304" y="41"/>
    </contour>
    <contour>
      <point x="254" y="-6" type="curve" smooth="yes"/>
      <point x="293" y="-6"/>
      <point x="332" y="10"/>
      <point x="371" y="40" type="curve" smooth="yes"/>
      <point x="410" y="70"/>
      <point x="430" y="99"/>
      <point x="430" y="130" type="curve" smooth="yes"/>
      <point x="430" y="151"/>
      <point x="418" y="170"/>
      <point x="395" y="187" type="curve" smooth="yes"/>
      <point x="371" y="204"/>
      <point x="346" y="212"/>
      <point x="319" y="212" type="curve" smooth="yes"/>
      <point x="284" y="212"/>
      <point x="253" y="204"/>
      <point x="224" y="188" type="curve" smooth="yes"/>
      <point x="193" y="172"/>
      <point x="170" y="150"/>
      <point x="155" y="123" type="curve"/>
      <point x="125" y="176"/>
      <point x="110" y="228"/>
      <point x="110" y="277" type="curve" smooth="yes"/>
      <point x="110" y="325"/>
      <point x="121" y="363"/>
      <point x="143" y="391" type="curve" smooth="yes"/>
      <point x="165" y="420"/>
      <point x="194" y="435"/>
      <point x="231" y="435" type="curve" smooth="yes"/>
      <point x="260" y="435"/>
      <point x="287" y="428"/>
      <point x="312" y="413" type="curve" smooth="yes"/>
      <point x="336" y="398"/>
      <point x="354" y="378"/>
      <point x="365" y="353" type="curve"/>
      <point x="436" y="394" type="line"/>
      <point x="425" y="417"/>
      <point x="407" y="437"/>
      <point x="384" y="451" type="curve" smooth="yes"/>
      <point x="361" y="465"/>
      <point x="335" y="471"/>
      <point x="307" y="471" type="curve" smooth="yes"/>
      <point x="249" y="471" type="line" smooth="yes"/>
      <point x="202" y="471"/>
      <point x="157" y="448"/>
      <point x="116" y="403" type="curve" smooth="yes"/>
      <point x="76" y="358"/>
      <point x="56" y="308"/>
      <point x="56" y="254" type="curve" smooth="yes"/>
      <point x="56" y="194" type="line" smooth="yes"/>
      <point x="56" y="145"/>
      <point x="76" y="99"/>
      <point x="118" y="57" type="curve" smooth="yes"/>
      <point x="161" y="14"/>
      <point x="206" y="-6"/>
    </contour>
  </outline>
</glyph>
<glyph name="seven" format="1">
  <advance width="485"/>
  <unicode hex="0037"/>
  <outline>
    <contour>
      <point x="180" y="-6" type="line" name="hr00"/>
      <point x="280" y="29" type="line"/>
      <point x="280" y="102"/>
      <point x="291" y="172"/>
      <point x="317" y="241" type="curve" smooth="yes"/>
      <point x="342" y="309"/>
      <point x="379" y="371"/>
      <point x="426" y="428" type="curve"/>
      <point x="379" y="471" type="line"/>
      <point x="103" y="471" type="line"/>
      <point x="67" y="418" type="line"/>
      <point x="359" y="418" type="line"/>
      <point x="301" y="349"/>
      <point x="257" y="278"/>
      <point x="226" y="205" type="curve" smooth="yes"/>
      <point x="195" y="132"/>
      <point x="180" y="62"/>
      <point x="180" y="-5" type="curve"/>
    </contour>
  </outline>
</glyph>
<glyph name="eight" format="1">
  <advance width="485"/>
  <unicode hex="0038"/>
  <outline>
    <contour>
      <point x="245" y="276" type="line" name="hr00"/>
      <point x="200" y="308" type="line"/>
      <point x="183" y="323"/>
      <point x="171" y="336"/>
      <point x="162" y="349" type="curve" smooth="yes"/>
      <point x="153" y="362"/>
      <point x="148" y="373"/>
      <point x="148" y="384" type="curve" smooth="yes"/>
      <point x="148" y="403"/>
      <point x="156" y="419"/>
      <point x="173" y="431" type="curve" smooth="yes"/>
      <point x="190" y="444"/>
      <point x="210" y="451"/>
      <point x="234" y="451" type="curve" smooth="yes"/>
      <point x="261" y="451"/>
      <point x="284" y="443"/>
      <point x="305" y="426" type="curve" smooth="yes"/>
      <point x="328" y="409"/>
      <point x="339" y="391"/>
      <point x="339" y="372" type="curve" smooth="yes"/>
      <point x="339" y="363"/>
      <point x="334" y="353"/>
      <point x="324" y="341" type="curve"/>
      <point x="315" y="328"/>
      <point x="303" y="314"/>
      <point x="286" y="300" type="curve"/>
      <point x="245" y="275" type="line"/>
    </contour>
    <contour>
      <point x="274" y="26" type="curve" smooth="yes"/>
      <point x="240" y="26"/>
      <point x="209" y="36"/>
      <point x="180" y="56" type="curve" smooth="yes"/>
      <point x="151" y="76"/>
      <point x="137" y="97"/>
      <point x="137" y="120" type="curve" smooth="yes"/>
      <point x="137" y="132"/>
      <point x="144" y="147"/>
      <point x="157" y="165" type="curve" smooth="yes"/>
      <point x="170" y="182"/>
      <point x="188" y="201"/>
      <point x="211" y="221" type="curve"/>
      <point x="274" y="187" type="line"/>
      <point x="303" y="166"/>
      <point x="326" y="146"/>
      <point x="342" y="129" type="curve" smooth="yes"/>
      <point x="359" y="111"/>
      <point x="368" y="96"/>
      <point x="368" y="85" type="curve" smooth="yes"/>
      <point x="368" y="69"/>
      <point x="359" y="56"/>
      <point x="340" y="44" type="curve" smooth="yes"/>
      <point x="322" y="33"/>
      <point x="300" y="26"/>
    </contour>
    <contour>
      <point x="287" y="-1" type="line" smooth="yes"/>
      <point x="322" y="-1"/>
      <point x="355" y="10"/>
      <point x="384" y="36" type="curve" smooth="yes"/>
      <point x="414" y="62"/>
      <point x="427" y="91"/>
      <point x="427" y="120" type="curve" smooth="yes"/>
      <point x="427" y="133"/>
      <point x="419" y="150"/>
      <point x="404" y="169" type="curve" smooth="yes"/>
      <point x="389" y="186"/>
      <point x="368" y="204"/>
      <point x="341" y="223" type="curve"/>
      <point x="283" y="256" type="line"/>
      <point x="341" y="293" type="line"/>
      <point x="366" y="314"/>
      <point x="384" y="331"/>
      <point x="396" y="346" type="curve" smooth="yes"/>
      <point x="409" y="362"/>
      <point x="416" y="375"/>
      <point x="416" y="384" type="curve" smooth="yes"/>
      <point x="416" y="405"/>
      <point x="408" y="426"/>
      <point x="389" y="444" type="curve" smooth="yes"/>
      <point x="371" y="462"/>
      <point x="349" y="470"/>
      <point x="328" y="470" type="curve" smooth="yes"/>
      <point x="211" y="470" type="line" smooth="yes"/>
      <point x="177" y="470"/>
      <point x="145" y="458"/>
      <point x="114" y="435" type="curve" smooth="yes"/>
      <point x="85" y="412"/>
      <point x="70" y="386"/>
      <point x="70" y="359" type="curve" smooth="yes"/>
      <point x="70" y="341"/>
      <point x="104" y="304"/>
      <point x="171" y="247" type="curve" smooth="yes"/>
      <point x="185" y="235" type="line"/>
      <point x="147" y="203"/>
      <point x="117" y="174"/>
      <point x="96" y="149" type="curve" smooth="yes"/>
      <point x="75" y="122"/>
      <point x="64" y="101"/>
      <point x="64" y="85" type="curve" smooth="yes"/>
      <point x="64" y="64"/>
      <point x="78" y="43"/>
      <point x="105" y="25" type="curve" smooth="yes"/>
      <point x="132" y="7"/>
      <point x="161" y="-1"/>
      <point x="192" y="-1" type="curve" smooth="yes"/>
    </contour>
  </outline>
</glyph>
<glyph name="nine" format="1">
  <advance width="487"/>
  <unicode hex="0039"/>
  <outline>
    <contour>
      <point x="205" y="307" type="curve" smooth="yes" name="hr00"/>
      <point x="184" y="307"/>
      <point x="166" y="315"/>
      <point x="150" y="330" type="curve" smooth="yes"/>
      <point x="134" y="345"/>
      <point x="126" y="364"/>
      <point x="126" y="385" type="curve" smooth="yes"/>
      <point x="126" y="399"/>
      <point x="133" y="411"/>
      <point x="147" y="421" type="curve" smooth="yes"/>
      <point x="162" y="432"/>
      <point x="180" y="437"/>
      <point x="200" y="437" type="curve" smooth="yes"/>
      <point x="227" y="437"/>
      <point x="250" y="431"/>
      <point x="271" y="419" type="curve" smooth="yes"/>
      <point x="292" y="407"/>
      <point x="307" y="391"/>
      <point x="316" y="372" type="curve"/>
      <point x="309" y="353"/>
      <point x="296" y="337"/>
      <point x="276" y="325" type="curve" smooth="yes"/>
      <point x="255" y="313"/>
      <point x="232" y="307"/>
    </contour>
    <contour>
      <point x="217" y="-6" type="curve" smooth="yes"/>
      <point x="285" y="-6"/>
      <point x="339" y="16"/>
      <point x="380" y="61" type="curve" smooth="yes"/>
      <point x="420" y="106"/>
      <point x="440" y="165"/>
      <point x="440" y="240" type="curve" smooth="yes"/>
      <point x="440" y="305"/>
      <point x="419" y="361"/>
      <point x="376" y="408" type="curve" smooth="yes"/>
      <point x="334" y="454"/>
      <point x="283" y="477"/>
      <point x="223" y="477" type="curve" smooth="yes"/>
      <point x="188" y="477"/>
      <point x="154" y="464"/>
      <point x="119" y="437" type="curve" smooth="yes"/>
      <point x="83" y="409"/>
      <point x="65" y="381"/>
      <point x="65" y="354" type="curve" smooth="yes"/>
      <point x="65" y="333"/>
      <point x="76" y="312"/>
      <point x="99" y="293" type="curve" smooth="yes"/>
      <point x="121" y="274"/>
      <point x="145" y="265"/>
      <point x="171" y="265" type="curve" smooth="yes"/>
      <point x="208" y="265"/>
      <point x="241" y="272"/>
      <point x="270" y="287" type="curve" smooth="yes"/>
      <point x="299" y="302"/>
      <point x="321" y="322"/>
      <point x="335" y="347" type="curve"/>
      <point x="365" y="302"/>
      <point x="380" y="251"/>
      <point x="380" y="193" type="curve" smooth="yes"/>
      <point x="380" y="143"/>
      <point x="369" y="103"/>
      <point x="348" y="73" type="curve" smooth="yes"/>
      <point x="325" y="42"/>
      <point x="296" y="27"/>
      <point x="259" y="27" type="curve" smooth="yes"/>
      <point x="232" y="27"/>
      <point x="206" y="35"/>
      <point x="182" y="51" type="curve" smooth="yes"/>
      <point x="157" y="67"/>
      <point x="139" y="88"/>
      <point x="126" y="115" type="curve"/>
      <point x="54" y="84" type="line"/>
      <point x="67" y="56"/>
      <point x="88" y="34"/>
      <point x="117" y="18" type="curve" smooth="yes"/>
      <point x="147" y="2"/>
      <point x="180" y="-6"/>
    </contour>
  </outline>
</glyph>
<glyph name="colon" format="1">
  <advance width="250"/>
  <unicode hex="003A"/>
  <outline>
    <contour>
      <point x="128" y="226" type="curve" smooth="yes" name="hr00"/>
      <point x="145" y="226"/>
      <point x="159" y="232"/>
      <point x="171" y="245" type="curve" smooth="yes"/>
      <point x="182" y="258"/>
      <point x="187" y="274"/>
      <point x="187" y="292" type="curve" smooth="yes"/>
      <point x="187" y="308"/>
      <point x="182" y="322"/>
      <point x="171" y="333" type="curve" smooth="yes"/>
      <point x="159" y="344"/>
      <point x="145" y="350"/>
      <point x="129" y="350" type="curve" smooth="yes"/>
      <point x="113" y="350"/>
      <point x="99" y="345"/>
      <point x="86" y="333" type="curve" smooth="yes"/>
      <point x="75" y="322"/>
      <point x="69" y="308"/>
      <point x="69" y="292" type="curve" smooth="yes"/>
      <point x="69" y="274"/>
      <point x="74" y="258"/>
      <point x="86" y="245" type="curve" smooth="yes"/>
      <point x="98" y="231"/>
      <point x="113" y="226"/>
    </contour>
    <contour>
      <point x="128" y="-7" type="curve" smooth="yes"/>
      <point x="145" y="-7"/>
      <point x="159" y="-1"/>
      <point x="171" y="12" type="curve" smooth="yes"/>
      <point x="182" y="25"/>
      <point x="187" y="41"/>
      <point x="187" y="59" type="curve" smooth="yes"/>
      <point x="187" y="75"/>
      <point x="183" y="89"/>
      <point x="171" y="101" type="curve" smooth="yes"/>
      <point x="159" y="113"/>
      <point x="145" y="117"/>
      <point x="129" y="117" type="curve" smooth="yes"/>
      <point x="113" y="117"/>
      <point x="99" y="112"/>
      <point x="86" y="101" type="curve"/>
      <point x="75" y="89"/>
      <point x="69" y="75"/>
      <point x="69" y="59" type="curve" smooth="yes"/>
      <point x="69" y="41"/>
      <point x="74" y="25"/>
      <point x="86" y="12" type="curve" smooth="yes"/>
      <point x="98" y="-2"/>
      <point x="113" y="-7"/>
    </contour>
  </outline>
</glyph>
<glyph name="semicolon" format="1">
  <advance width="344"/>
  <unicode hex="003B"/>
  <outline>
    <contour>
      <point x="139" y="-158" type="line" name="hr00"/>
      <point x="179" y="-158"/>
      <point x="214" y="-140"/>
      <point x="241" y="-101" type="curve" smooth="yes"/>
      <point x="269" y="-62"/>
      <point x="281" y="-14"/>
      <point x="281" y="41" type="curve" smooth="yes"/>
      <point x="281" y="60"/>
      <point x="275" y="77"/>
      <point x="262" y="91" type="curve" smooth="yes"/>
      <point x="249" y="104"/>
      <point x="233" y="111"/>
      <point x="216" y="111" type="curve" smooth="yes"/>
      <point x="198" y="111"/>
      <point x="183" y="106"/>
      <point x="170" y="95" type="curve" smooth="yes"/>
      <point x="157" y="83"/>
      <point x="151" y="69"/>
      <point x="151" y="53" type="curve" smooth="yes"/>
      <point x="151" y="38"/>
      <point x="157" y="26"/>
      <point x="170" y="15" type="curve" smooth="yes"/>
      <point x="183" y="4"/>
      <point x="198" y="-1"/>
      <point x="215" y="-1" type="curve"/>
      <point x="215" y="-41"/>
      <point x="207" y="-75"/>
      <point x="193" y="-104" type="curve" smooth="yes"/>
      <point x="179" y="-133"/>
      <point x="162" y="-151"/>
      <point x="139" y="-156" type="curve"/>
    </contour>
    <contour>
      <point x="204" y="226" type="curve" smooth="yes"/>
      <point x="221" y="226"/>
      <point x="235" y="232"/>
      <point x="247" y="245" type="curve" smooth="yes"/>
      <point x="258" y="258"/>
      <point x="263" y="274"/>
      <point x="263" y="292" type="curve" smooth="yes"/>
      <point x="263" y="308"/>
      <point x="258" y="322"/>
      <point x="247" y="333" type="curve" smooth="yes"/>
      <point x="235" y="344"/>
      <point x="221" y="350"/>
      <point x="205" y="350" type="curve" smooth="yes"/>
      <point x="189" y="350"/>
      <point x="175" y="345"/>
      <point x="162" y="333" type="curve" smooth="yes"/>
      <point x="151" y="322"/>
      <point x="145" y="308"/>
      <point x="145" y="292" type="curve" smooth="yes"/>
      <point x="145" y="274"/>
      <point x="150" y="258"/>
      <point x="162" y="245" type="curve" smooth="yes"/>
      <point x="174" y="231"/>
      <point x="189" y="226"/>
    </contour>
  </outline>
</glyph>
<glyph name="less" format="1">
  <advance width="550"/>
  <unicode hex="003C"/>
  <outline>
    <contour>
      <point x="69" y="189" type="line" name="hr00"/>
      <point x="487" y="-57" type="line"/>
      <point x="487" y="13" type="line"/>
      <point x="131" y="228" type="line"/>
      <point x="487" y="443" type="line"/>
      <point x="487" y="511" type="line"/>
      <point x="69" y="261" type="line"/>
      <point x="69" y="190" type="line"/>
    </contour>
  </outline>
</glyph>
<glyph name="equal" format="1">
  <advance width="602"/>
  <unicode hex="003D"/>
  <outline>
    <contour>
      <point x="69" y="244" type="line" name="hr00"/>
      <point x="480" y="244" type="line"/>
      <point x="540" y="315" type="line"/>
      <point x="129" y="315" type="line"/>
      <point x="69" y="245" type="line"/>
    </contour>
    <contour>
      <point x="69" y="81" type="line"/>
      <point x="480" y="81" type="line"/>
      <point x="540" y="152" type="line"/>
      <point x="129" y="152" type="line"/>
      <point x="69" y="82" type="line"/>
    </contour>
  </outline>
</glyph>
<glyph name="greater" format="1">
  <advance width="550"/>
  <unicode hex="003E"/>
  <outline>
    <contour>
      <point x="485" y="190" type="line" name="hr00"/>
      <point x="487" y="261" type="line"/>
      <point x="69" y="511" type="line"/>
      <point x="69" y="443" type="line"/>
      <point x="426" y="228" type="line"/>
      <point x="69" y="13" type="line"/>
      <point x="69" y="-57" type="line"/>
      <point x="485" y="188" type="line"/>
    </contour>
  </outline>
</glyph>
<glyph name="question" format="1">
  <advance width="548"/>
  <unicode hex="003F"/>
  <outline>
    <contour>
      <point x="227" y="93" type="line" name="hr00"/>
      <point x="293" y="142" type="line"/>
      <point x="280" y="149"/>
      <point x="270" y="159"/>
      <point x="263" y="170" type="curve" smooth="yes"/>
      <point x="256" y="183"/>
      <point x="253" y="197"/>
      <point x="253" y="211" type="curve" smooth="yes"/>
      <point x="253" y="227"/>
      <point x="258" y="244"/>
      <point x="269" y="261" type="curve" smooth="yes"/>
      <point x="280" y="278"/>
      <point x="296" y="294"/>
      <point x="316" y="309" type="curve" smooth="yes"/>
      <point x="380" y="355" type="line"/>
      <point x="413" y="374"/>
      <point x="438" y="397"/>
      <point x="457" y="423" type="curve" smooth="yes"/>
      <point x="476" y="450"/>
      <point x="485" y="476"/>
      <point x="485" y="503" type="curve" smooth="yes"/>
      <point x="485" y="535"/>
      <point x="473" y="564"/>
      <point x="445" y="587" type="curve" smooth="yes"/>
      <point x="417" y="610"/>
      <point x="383" y="620"/>
      <point x="344" y="620" type="curve" smooth="yes"/>
      <point x="291" y="620"/>
      <point x="243" y="605"/>
      <point x="201" y="572" type="curve" smooth="yes"/>
      <point x="160" y="540"/>
      <point x="139" y="503"/>
      <point x="139" y="462" type="curve" smooth="yes"/>
      <point x="139" y="441"/>
      <point x="143" y="423"/>
      <point x="152" y="408" type="curve"/>
      <point x="242" y="450" type="line"/>
      <point x="233" y="457"/>
      <point x="227" y="465"/>
      <point x="223" y="472" type="curve" smooth="yes"/>
      <point x="219" y="480"/>
      <point x="217" y="488"/>
      <point x="217" y="497" type="curve" smooth="yes"/>
      <point x="217" y="521"/>
      <point x="226" y="541"/>
      <point x="244" y="558" type="curve" smooth="yes"/>
      <point x="262" y="575"/>
      <point x="284" y="583"/>
      <point x="309" y="583" type="curve" smooth="yes"/>
      <point x="336" y="583"/>
      <point x="358" y="570"/>
      <point x="380" y="546" type="curve" smooth="yes"/>
      <point x="402" y="521"/>
      <point x="414" y="496"/>
      <point x="414" y="467" type="curve" smooth="yes"/>
      <point x="414" y="450"/>
      <point x="408" y="433"/>
      <point x="397" y="416" type="curve" smooth="yes"/>
      <point x="385" y="399"/>
      <point x="369" y="383"/>
      <point x="349" y="369" type="curve" smooth="yes"/>
      <point x="291" y="329" type="line" smooth="yes"/>
      <point x="257" y="305"/>
      <point x="230" y="281"/>
      <point x="210" y="254" type="curve" smooth="yes"/>
      <point x="191" y="228"/>
      <point x="180" y="204"/>
      <point x="180" y="181" type="curve" smooth="yes"/>
      <point x="180" y="166"/>
      <point x="184" y="151"/>
      <point x="192" y="136" type="curve" smooth="yes"/>
      <point x="200" y="121"/>
      <point x="212" y="107"/>
      <point x="227" y="95" type="curve"/>
    </contour>
    <contour>
      <point x="261" y="-60" type="curve" smooth="yes"/>
      <point x="275" y="-60"/>
      <point x="287" y="-56"/>
      <point x="297" y="-47" type="curve"/>
      <point x="306" y="-36"/>
      <point x="310" y="-25"/>
      <point x="310" y="-12" type="curve" smooth="yes"/>
      <point x="310" y="1"/>
      <point x="306" y="12"/>
      <point x="297" y="23" type="curve"/>
      <point x="287" y="32"/>
      <point x="275" y="36"/>
      <point x="262" y="36" type="curve" smooth="yes"/>
      <point x="249" y="36"/>
      <point x="238" y="32"/>
      <point x="228" y="23" type="curve"/>
      <point x="219" y="12"/>
      <point x="215" y="1"/>
      <point x="215" y="-12" type="curve" smooth="yes"/>
      <point x="215" y="-25"/>
      <point x="219" y="-36"/>
      <point x="228" y="-47" type="curve"/>
      <point x="238" y="-56"/>
      <point x="249" y="-60"/>
    </contour>
  </outline>
</glyph>
<glyph name="Nukta" format="1">
  <advance width="0"/>
  <unicode hex="093C"/>
  <outline>
    <contour>
      <point x="401" y="1010" type="curve" smooth="yes" name="hr00"/>
      <point x="401" y="977"/>
      <point x="380" y="961"/>
      <point x="348" y="961" type="curve" smooth="yes"/>
      <point x="312" y="961"/>
      <point x="292" y="979"/>
      <point x="292" y="1010" type="curve" smooth="yes"/>
      <point x="292" y="1038"/>
      <point x="318" y="1057"/>
      <point x="349" y="1057" type="curve" smooth="yes"/>
      <point x="380" y="1057"/>
      <point x="401" y="1038"/>
    </contour>
    <contour>
      <point x="761" y="936" type="curve" smooth="yes"/>
      <point x="761" y="952"/>
      <point x="749" y="963"/>
      <point x="741" y="963" type="curve" smooth="yes"/>
      <point x="416" y="963" type="line"/>
      <point x="428" y="982"/>
      <point x="434" y="1002"/>
      <point x="434" y="1023" type="curve" smooth="yes"/>
      <point x="434" y="1071"/>
      <point x="395" y="1110"/>
      <point x="350" y="1110" type="curve" smooth="yes"/>
      <point x="297" y="1110"/>
      <point x="260" y="1064"/>
      <point x="260" y="1020" type="curve" smooth="yes"/>
      <point x="260" y="959"/>
      <point x="295" y="909"/>
      <point x="351" y="909" type="curve" smooth="yes"/>
      <point x="738" y="909" type="line" smooth="yes"/>
      <point x="753" y="909"/>
      <point x="761" y="918"/>
    </contour>
  </outline>
</glyph>
<glyph name="uni0950" format="1">
  <advance width="756"/>
  <unicode hex="0950"/>
  <outline>
    <contour>
      <point x="349" y="663" type="line" name="hr00"/>
      <point x="397" y="612" type="line"/>
      <point x="446" y="659" type="line"/>
      <point x="397" y="709" type="line"/>
    </contour>
    <contour>
      <point x="262" y="618" type="line"/>
      <point x="307" y="549"/>
      <point x="360" y="515"/>
      <point x="423" y="515" type="curve" smooth="yes"/>
      <point x="465" y="515"/>
      <point x="507" y="537"/>
      <point x="548" y="582" type="curve"/>
      <point x="484" y="635" type="line"/>
      <point x="457" y="598"/>
      <point x="424" y="580"/>
      <point x="387" y="580" type="curve" smooth="yes"/>
      <point x="349" y="580"/>
      <point x="315" y="598"/>
      <point x="286" y="635" type="curve"/>
    </contour>
    <contour>
      <point x="507" y="386" type="curve"/>
      <point x="524" y="420"/>
      <point x="551" y="437"/>
      <point x="588" y="437" type="curve" smooth="yes"/>
      <point x="643" y="437"/>
      <point x="681" y="384"/>
      <point x="681" y="305" type="curve" smooth="yes"/>
      <point x="681" y="222"/>
      <point x="638" y="163"/>
      <point x="581" y="163" type="curve" smooth="yes"/>
      <point x="548" y="163"/>
      <point x="531" y="190"/>
      <point x="531" y="245" type="curve" smooth="yes"/>
      <point x="531" y="273" type="line"/>
      <point x="531" y="327" type="line" smooth="yes"/>
      <point x="531" y="359"/>
      <point x="523" y="379"/>
    </contour>
    <contour>
      <point x="36" y="331" type="line"/>
      <point x="44" y="236"/>
      <point x="74" y="156"/>
      <point x="126" y="93" type="curve" smooth="yes"/>
      <point x="178" y="30"/>
      <point x="239" y="-2"/>
      <point x="308" y="-2" type="curve" smooth="yes"/>
      <point x="395" y="-2"/>
      <point x="452" y="53"/>
      <point x="452" y="133" type="curve" smooth="yes"/>
      <point x="452" y="182"/>
      <point x="432" y="233"/>
      <point x="393" y="286" type="curve"/>
      <point x="421" y="305"/>
      <point x="444" y="314"/>
      <point x="463" y="314" type="curve" smooth="yes"/>
      <point x="484" y="314"/>
      <point x="495" y="294"/>
      <point x="495" y="253" type="curve" smooth="yes"/>
      <point x="495" y="219" type="line" smooth="yes"/>
      <point x="495" y="128"/>
      <point x="519" y="94"/>
      <point x="578" y="94" type="curve" smooth="yes"/>
      <point x="663" y="94"/>
      <point x="717" y="178"/>
      <point x="717" y="310" type="curve" smooth="yes"/>
      <point x="717" y="441"/>
      <point x="677" y="506"/>
      <point x="596" y="506" type="curve" smooth="yes"/>
      <point x="535" y="506"/>
      <point x="497" y="469"/>
      <point x="483" y="395" type="curve"/>
      <point x="477" y="396"/>
      <point x="472" y="397"/>
      <point x="469" y="397" type="curve" smooth="yes"/>
      <point x="432" y="397"/>
      <point x="394" y="377"/>
      <point x="353" y="338" type="curve"/>
      <point x="341" y="350" type="line"/>
      <point x="348" y="365"/>
      <point x="352" y="381"/>
      <point x="352" y="400" type="curve" smooth="yes"/>
      <point x="352" y="487"/>
      <point x="293" y="547"/>
      <point x="212" y="547" type="curve" smooth="yes"/>
      <point x="180" y="547"/>
      <point x="149" y="539"/>
      <point x="119" y="524" type="curve"/>
      <point x="152" y="448" type="line"/>
      <point x="187" y="467"/>
      <point x="220" y="476"/>
      <point x="252" y="476" type="curve" smooth="yes"/>
      <point x="296" y="476"/>
      <point x="316" y="459"/>
      <point x="316" y="424" type="curve" smooth="yes"/>
      <point x="316" y="378"/>
      <point x="280" y="344"/>
      <point x="209" y="323" type="curve"/>
      <point x="242" y="246" type="line"/>
      <point x="275" y="261"/>
      <point x="302" y="283"/>
      <point x="324" y="314" type="curve"/>
      <point x="367" y="271"/>
      <point x="389" y="222"/>
      <point x="389" y="167" type="curve" smooth="yes"/>
      <point x="389" y="108"/>
      <point x="344" y="62"/>
      <point x="287" y="62" type="curve" smooth="yes"/>
      <point x="234" y="62"/>
      <point x="187" y="87"/>
      <point x="145" y="138" type="curve" smooth="yes"/>
      <point x="104" y="189"/>
      <point x="77" y="255"/>
      <point x="64" y="338" type="curve"/>
    </contour>
  </outline>
</glyph>
<glyph name="Udatta" format="1">
  <advance width="0"/>
  <unicode hex="0951"/>
  <outline>
    <contour>
      <point x="282" y="929" type="line" name="hr00"/>
      <point x="367" y="929" type="line"/>
      <point x="367" y="1295" type="line"/>
      <point x="282" y="1295" type="line"/>
      <point x="282" y="930" type="line"/>
    </contour>
  </outline>
</glyph>
<glyph name="Anudatta" format="1">
  <advance width="0"/>
  <unicode hex="0952"/>
  <outline>
    <contour>
      <point x="121" y="-425" type="line" name="hr00"/>
      <point x="121" y="-517" type="line"/>
      <point x="525" y="-517" type="line"/>
      <point x="525" y="-424" type="line"/>
      <point x="121" y="-424" type="line"/>
    </contour>
  </outline>
</glyph>
<glyph name="KaHalanth" format="1">
  <advance width="564"/>
  <unicode hex="0953"/>
  <outline>
    <contour>
      <point x="169" y="372" type="line" smooth="yes" name="hr00"/>
      <point x="175" y="372"/>
      <point x="181" y="373"/>
      <point x="187" y="374" type="curve"/>
      <point x="200" y="372"/>
      <point x="212" y="367"/>
      <point x="224" y="359" type="curve" smooth="yes"/>
      <point x="241" y="349"/>
      <point x="255" y="334"/>
      <point x="267" y="315" type="curve"/>
      <point x="354" y="359" type="line"/>
      <point x="342" y="380"/>
      <point x="324" y="397"/>
      <point x="300" y="409" type="curve" smooth="yes"/>
      <point x="283" y="417"/>
      <point x="265" y="422"/>
      <point x="247" y="424" type="curve"/>
      <point x="256" y="443"/>
      <point x="261" y="466"/>
      <point x="261" y="495" type="curve"/>
      <point x="255" y="480"/>
      <point x="245" y="468"/>
      <point x="232" y="459" type="curve" smooth="yes"/>
      <point x="220" y="452"/>
      <point x="205" y="448"/>
      <point x="187" y="448" type="curve" smooth="yes"/>
      <point x="173" y="448"/>
      <point x="161" y="452"/>
      <point x="150" y="461" type="curve" smooth="yes"/>
      <point x="139" y="469"/>
      <point x="133" y="479"/>
      <point x="133" y="490" type="curve" smooth="yes"/>
      <point x="133" y="499"/>
      <point x="140" y="509"/>
      <point x="153" y="522" type="curve" smooth="yes"/>
      <point x="166" y="535"/>
      <point x="185" y="548"/>
      <point x="209" y="563" type="curve"/>
      <point x="184" y="567"/>
      <point x="165" y="575"/>
      <point x="150" y="588" type="curve" smooth="yes"/>
      <point x="135" y="600"/>
      <point x="127" y="614"/>
      <point x="127" y="630" type="curve" smooth="yes"/>
      <point x="127" y="637"/>
      <point x="131" y="644"/>
      <point x="140" y="650" type="curve" smooth="yes"/>
      <point x="148" y="656"/>
      <point x="158" y="659"/>
      <point x="169" y="659" type="curve" smooth="yes"/>
      <point x="192" y="659"/>
      <point x="217" y="653"/>
      <point x="242" y="640" type="curve" smooth="yes"/>
      <point x="301" y="611"/>
      <point x="370" y="597"/>
      <point x="449" y="597" type="curve" smooth="yes"/>
      <point x="472" y="597"/>
      <point x="492" y="603"/>
      <point x="510" y="616" type="curve"/>
      <point x="612" y="733" type="line"/>
      <point x="590" y="713"/>
      <point x="568" y="701"/>
      <point x="545" y="694" type="curve" smooth="yes"/>
      <point x="523" y="688"/>
      <point x="499" y="684"/>
      <point x="472" y="684" type="curve" smooth="yes"/>
      <point x="421" y="684"/>
      <point x="363" y="692"/>
      <point x="297" y="709" type="curve" smooth="yes"/>
      <point x="263" y="718"/>
      <point x="233" y="722"/>
      <point x="206" y="722" type="curve" smooth="yes"/>
      <point x="173" y="722"/>
      <point x="142" y="709"/>
      <point x="115" y="682" type="curve" smooth="yes"/>
      <point x="86" y="654"/>
      <point x="71" y="625"/>
      <point x="71" y="593" type="curve" smooth="yes"/>
      <point x="71" y="582"/>
      <point x="76" y="570"/>
      <point x="86" y="559" type="curve" smooth="yes"/>
      <point x="95" y="548"/>
      <point x="106" y="539"/>
      <point x="120" y="532" type="curve"/>
      <point x="101" y="516"/>
      <point x="87" y="501"/>
      <point x="76" y="488" type="curve" smooth="yes"/>
      <point x="65" y="473"/>
      <point x="59" y="462"/>
      <point x="59" y="453" type="curve" smooth="yes"/>
      <point x="59" y="430"/>
      <point x="70" y="411"/>
      <point x="91" y="396" type="curve" smooth="yes"/>
      <point x="97" y="391"/>
      <point x="103" y="388"/>
      <point x="110" y="385" type="curve"/>
      <point x="85" y="362"/>
      <point x="73" y="335"/>
      <point x="73" y="304" type="curve" smooth="yes"/>
      <point x="73" y="289"/>
      <point x="80" y="273"/>
      <point x="94" y="257" type="curve" smooth="yes"/>
      <point x="106" y="242"/>
      <point x="123" y="230"/>
      <point x="146" y="218" type="curve" smooth="yes"/>
      <point x="261" y="157" type="line" smooth="yes"/>
      <point x="282" y="146"/>
      <point x="298" y="136"/>
      <point x="310" y="125" type="curve" smooth="yes"/>
      <point x="322" y="115"/>
      <point x="328" y="106"/>
      <point x="328" y="98" type="curve" smooth="yes"/>
      <point x="328" y="88"/>
      <point x="324" y="79"/>
      <point x="315" y="72" type="curve" smooth="yes"/>
      <point x="305" y="65"/>
      <point x="293" y="62"/>
      <point x="280" y="62" type="curve" smooth="yes"/>
      <point x="248" y="62"/>
      <point x="215" y="69"/>
      <point x="182" y="82" type="curve" smooth="yes"/>
      <point x="148" y="95"/>
      <point x="116" y="115"/>
      <point x="85" y="141" type="curve"/>
      <point x="30" y="73" type="line"/>
      <point x="53" y="49"/>
      <point x="81" y="31"/>
      <point x="114" y="18" type="curve" smooth="yes"/>
      <point x="146" y="5"/>
      <point x="181" y="-1"/>
      <point x="219" y="-1" type="curve" smooth="yes"/>
      <point x="270" y="-1"/>
      <point x="313" y="12"/>
      <point x="346" y="37" type="curve" smooth="yes"/>
      <point x="379" y="63"/>
      <point x="396" y="95"/>
      <point x="396" y="134" type="curve" smooth="yes"/>
      <point x="396" y="149"/>
      <point x="388" y="165"/>
      <point x="371" y="182" type="curve" smooth="yes"/>
      <point x="354" y="199"/>
      <point x="331" y="212"/>
      <point x="305" y="226" type="curve" smooth="yes"/>
      <point x="183" y="292" type="line" smooth="yes"/>
      <point x="168" y="300"/>
      <point x="156" y="310"/>
      <point x="147" y="320" type="curve" smooth="yes"/>
      <point x="139" y="329"/>
      <point x="135" y="338"/>
      <point x="135" y="346" type="curve" smooth="yes"/>
      <point x="135" y="355"/>
      <point x="139" y="362"/>
      <point x="147" y="367" type="curve"/>
      <point x="158" y="372" type="line"/>
    </contour>
  </outline>
</glyph>
<glyph name="DEVANAGARI_DANDA" format="1">
  <advance width="285"/>
  <unicode hex="0964"/>
  <outline>
    <contour>
      <point x="139" y="-74" type="line" name="hr00"/>
      <point x="223" y="-14" type="line"/>
      <point x="223" y="487" type="line"/>
      <point x="139" y="427" type="line"/>
      <point x="139" y="-72" type="line"/>
    </contour>
  </outline>
</glyph>
<glyph name="DEVANAGARI_DOUBLE_DANDA" format="1">
  <advance width="500"/>
  <unicode hex="0965"/>
  <outline>
    <contour>
      <point x="354" y="-74" type="line" name="hr00"/>
      <point x="437" y="-14" type="line"/>
      <point x="437" y="487" type="line"/>
      <point x="354" y="427" type="line"/>
      <point x="354" y="-72" type="line"/>
    </contour>
    <contour>
      <point x="139" y="-74" type="line"/>
      <point x="223" y="-14" type="line"/>
      <point x="223" y="487" type="line"/>
      <point x="139" y="427" type="line"/>
      <point x="139" y="-72" type="line"/>
    </contour>
  </outline>
</glyph>
<glyph name="Arasunna" format="1">
  <advance width="329"/>
  <unicode hex="0C01"/>
  <outline>
    <contour>
      <point x="200" y="-3" type="line" name="hr00"/>
      <point x="266" y="68" type="line"/>
      <point x="255" y="64"/>
      <point x="243" y="62"/>
      <point x="231" y="62" type="curve" smooth="yes"/>
      <point x="200" y="62"/>
      <point x="171" y="77"/>
      <point x="145" y="107" type="curve" smooth="yes"/>
      <point x="118" y="138"/>
      <point x="105" y="171"/>
      <point x="105" y="206" type="curve" smooth="yes"/>
      <point x="105" y="233"/>
      <point x="109" y="258"/>
      <point x="117" y="281" type="curve" smooth="yes"/>
      <point x="126" y="304"/>
      <point x="138" y="323"/>
      <point x="153" y="339" type="curve" smooth="yes"/>
      <point x="158" y="345"/>
      <point x="164" y="350"/>
      <point x="171" y="353" type="curve" smooth="yes"/>
      <point x="180" y="356"/>
      <point x="190" y="358"/>
      <point x="201" y="358" type="curve" smooth="yes"/>
      <point x="210" y="358"/>
      <point x="219" y="355"/>
      <point x="228" y="349" type="curve" smooth="yes"/>
      <point x="236" y="344"/>
      <point x="243" y="337"/>
      <point x="250" y="326" type="curve"/>
      <point x="306" y="406" type="line"/>
      <point x="301" y="413"/>
      <point x="294" y="418"/>
      <point x="286" y="421" type="curve" smooth="yes"/>
      <point x="279" y="424"/>
      <point x="271" y="426"/>
      <point x="262" y="426" type="curve" smooth="yes"/>
      <point x="214" y="426" type="line"/>
      <point x="157" y="393"/>
      <point x="112" y="354"/>
      <point x="79" y="309" type="curve" smooth="yes"/>
      <point x="46" y="263"/>
      <point x="30" y="217"/>
      <point x="30" y="170" type="curve" smooth="yes"/>
      <point x="30" y="129"/>
      <point x="47" y="90"/>
      <point x="84" y="53" type="curve" smooth="yes"/>
      <point x="121" y="16"/>
      <point x="159" y="-1"/>
      <point x="200" y="-1" type="curve"/>
    </contour>
  </outline>
</glyph>
<glyph name="Anusvara" format="1">
  <advance width="499"/>
  <unicode hex="0C02"/>
  <outline>
    <contour>
      <point x="249" y="50" type="curve" smooth="yes" name="hr00"/>
      <point x="208" y="50"/>
      <point x="172" y="65"/>
      <point x="143" y="96" type="curve" smooth="yes"/>
      <point x="114" y="126"/>
      <point x="100" y="163"/>
      <point x="100" y="206" type="curve" smooth="yes"/>
      <point x="100" y="233"/>
      <point x="105" y="258"/>
      <point x="116" y="281" type="curve" smooth="yes"/>
      <point x="126" y="304"/>
      <point x="140" y="323"/>
      <point x="159" y="339" type="curve"/>
      <point x="226" y="339" type="line" smooth="yes"/>
      <point x="275" y="339"/>
      <point x="318" y="321"/>
      <point x="358" y="289" type="curve" smooth="yes"/>
      <point x="398" y="256"/>
      <point x="419" y="222"/>
      <point x="419" y="183" type="curve" smooth="yes"/>
      <point x="419" y="142"/>
      <point x="404" y="109"/>
      <point x="373" y="86" type="curve" smooth="yes"/>
      <point x="342" y="62"/>
      <point x="301" y="50"/>
    </contour>
    <contour>
      <point x="269" y="-1" type="line" smooth="yes"/>
      <point x="317" y="-1"/>
      <point x="363" y="24"/>
      <point x="408" y="74" type="curve" smooth="yes"/>
      <point x="453" y="125"/>
      <point x="476" y="177"/>
      <point x="476" y="231" type="curve" smooth="yes"/>
      <point x="476" y="280"/>
      <point x="450" y="324"/>
      <point x="397" y="365" type="curve" smooth="yes"/>
      <point x="345" y="406"/>
      <point x="288" y="426"/>
      <point x="226" y="426" type="curve" smooth="yes"/>
      <point x="85" y="426" type="line"/>
      <point x="85" y="345" type="line"/>
      <point x="126" y="345" type="line"/>
      <point x="96" y="321"/>
      <point x="72" y="293"/>
      <point x="55" y="260" type="curve" smooth="yes"/>
      <point x="38" y="227"/>
      <point x="30" y="195"/>
      <point x="30" y="164" type="curve" smooth="yes"/>
      <point x="30" y="123"/>
      <point x="46" y="85"/>
      <point x="81" y="50" type="curve" smooth="yes"/>
      <point x="116" y="15"/>
      <point x="154" y="-1"/>
      <point x="194" y="-1" type="curve" smooth="yes"/>
    </contour>
  </outline>
</glyph>
<glyph name="Visarga" format="1">
  <advance width="261"/>
  <unicode hex="0C03"/>
  <outline>
    <contour>
      <point x="139" y="305" type="curve" smooth="yes" name="hr00"/>
      <point x="124" y="305"/>
      <point x="112" y="310"/>
      <point x="103" y="319" type="curve" smooth="yes"/>
      <point x="92" y="328"/>
      <point x="87" y="340"/>
      <point x="87" y="353" type="curve" smooth="yes"/>
      <point x="87" y="361"/>
      <point x="90" y="368"/>
      <point x="96" y="373" type="curve"/>
      <point x="101" y="379"/>
      <point x="108" y="382"/>
      <point x="116" y="382" type="curve" smooth="yes"/>
      <point x="131" y="382"/>
      <point x="144" y="376"/>
      <point x="154" y="365" type="curve"/>
      <point x="165" y="355"/>
      <point x="170" y="343"/>
      <point x="170" y="328" type="curve" smooth="yes"/>
      <point x="170" y="321"/>
      <point x="167" y="316"/>
      <point x="161" y="312" type="curve" smooth="yes"/>
      <point x="155" y="307"/>
      <point x="148" y="305"/>
    </contour>
    <contour>
      <point x="96" y="248" type="curve" smooth="yes"/>
      <point x="129" y="248"/>
      <point x="162" y="259"/>
      <point x="193" y="285" type="curve" smooth="yes"/>
      <point x="223" y="310"/>
      <point x="238" y="337"/>
      <point x="238" y="364" type="curve" smooth="yes"/>
      <point x="238" y="381"/>
      <point x="231" y="396"/>
      <point x="217" y="409" type="curve"/>
      <point x="202" y="420"/>
      <point x="185" y="426"/>
      <point x="165" y="426" type="curve" smooth="yes"/>
      <point x="132" y="426"/>
      <point x="101" y="415"/>
      <point x="73" y="392" type="curve" smooth="yes"/>
      <point x="44" y="368"/>
      <point x="30" y="343"/>
      <point x="30" y="316" type="curve" smooth="yes"/>
      <point x="30" y="298"/>
      <point x="37" y="282"/>
      <point x="50" y="268" type="curve" smooth="yes"/>
      <point x="63" y="255"/>
      <point x="79" y="248"/>
    </contour>
    <contour>
      <point x="139" y="50" type="curve" smooth="yes"/>
      <point x="126" y="50"/>
      <point x="115" y="56"/>
      <point x="105" y="67" type="curve"/>
      <point x="93" y="78"/>
      <point x="87" y="91"/>
      <point x="87" y="104" type="curve" smooth="yes"/>
      <point x="87" y="112"/>
      <point x="90" y="119"/>
      <point x="95" y="124" type="curve"/>
      <point x="99" y="130"/>
      <point x="104" y="133"/>
      <point x="110" y="133" type="curve" smooth="yes"/>
      <point x="123" y="133"/>
      <point x="134" y="127"/>
      <point x="146" y="115" type="curve" smooth="yes"/>
      <point x="158" y="103"/>
      <point x="164" y="92"/>
      <point x="164" y="79" type="curve" smooth="yes"/>
      <point x="164" y="70"/>
      <point x="161" y="64"/>
      <point x="156" y="59" type="curve"/>
      <point x="152" y="53"/>
      <point x="146" y="50"/>
    </contour>
    <contour>
      <point x="96" y="-1" type="curve" smooth="yes"/>
      <point x="130" y="-1"/>
      <point x="161" y="10"/>
      <point x="190" y="35" type="curve" smooth="yes"/>
      <point x="218" y="59"/>
      <point x="232" y="87"/>
      <point x="232" y="115" type="curve" smooth="yes"/>
      <point x="232" y="134"/>
      <point x="225" y="150"/>
      <point x="212" y="164" type="curve" smooth="yes"/>
      <point x="199" y="177"/>
      <point x="183" y="184"/>
      <point x="165" y="184" type="curve" smooth="yes"/>
      <point x="132" y="184"/>
      <point x="101" y="171"/>
      <point x="73" y="146" type="curve" smooth="yes"/>
      <point x="44" y="119"/>
      <point x="30" y="91"/>
      <point x="30" y="61" type="curve" smooth="yes"/>
      <point x="30" y="44"/>
      <point x="37" y="30"/>
      <point x="50" y="17" type="curve" smooth="yes"/>
      <point x="63" y="5"/>
      <point x="79" y="-1"/>
    </contour>
  </outline>
</glyph>
<glyph name="uni0C05" format="1">
  <advance width="590"/>
  <unicode hex="0C05"/>
  <outline>
    <contour>
      <point x="170" y="292" type="curve" smooth="yes" name="hr00"/>
      <point x="161" y="292"/>
      <point x="152" y="299"/>
      <point x="143" y="314" type="curve" smooth="yes"/>
      <point x="134" y="327"/>
      <point x="130" y="342"/>
      <point x="130" y="359" type="curve" smooth="yes"/>
      <point x="130" y="363"/>
      <point x="132" y="367"/>
      <point x="137" y="370" type="curve" smooth="yes"/>
      <point x="140" y="373"/>
      <point x="145" y="375"/>
      <point x="152" y="375" type="curve" smooth="yes"/>
      <point x="163" y="375"/>
      <point x="171" y="368"/>
      <point x="180" y="354" type="curve" smooth="yes"/>
      <point x="188" y="341"/>
      <point x="194" y="327"/>
      <point x="194" y="310" type="curve" smooth="yes"/>
      <point x="194" y="305"/>
      <point x="191" y="301"/>
      <point x="186" y="297" type="curve" smooth="yes"/>
      <point x="183" y="294"/>
      <point x="177" y="292"/>
    </contour>
    <contour>
      <point x="285" y="-1" type="curve" smooth="yes"/>
      <point x="352" y="-1"/>
      <point x="415" y="29"/>
      <point x="476" y="89" type="curve" smooth="yes"/>
      <point x="537" y="150"/>
      <point x="567" y="214"/>
      <point x="567" y="279" type="curve" smooth="yes"/>
      <point x="567" y="315"/>
      <point x="554" y="349"/>
      <point x="527" y="380" type="curve" smooth="yes"/>
      <point x="500" y="411"/>
      <point x="470" y="426"/>
      <point x="439" y="426" type="curve" smooth="yes"/>
      <point x="407" y="426"/>
      <point x="377" y="415"/>
      <point x="350" y="389" type="curve" smooth="yes"/>
      <point x="322" y="363"/>
      <point x="310" y="334"/>
      <point x="310" y="304" type="curve" smooth="yes"/>
      <point x="310" y="288"/>
      <point x="315" y="273"/>
      <point x="323" y="258" type="curve" smooth="yes"/>
      <point x="332" y="242"/>
      <point x="342" y="229"/>
      <point x="356" y="220" type="curve"/>
      <point x="213" y="220" type="line"/>
      <point x="182" y="150" type="line"/>
      <point x="371" y="150" type="line"/>
      <point x="446" y="244" type="line"/>
      <point x="427" y="244"/>
      <point x="407" y="255"/>
      <point x="387" y="276" type="curve" smooth="yes"/>
      <point x="366" y="297"/>
      <point x="355" y="317"/>
      <point x="355" y="334" type="curve" smooth="yes"/>
      <point x="355" y="342"/>
      <point x="358" y="349"/>
      <point x="363" y="354" type="curve" smooth="yes"/>
      <point x="368" y="360"/>
      <point x="375" y="363"/>
      <point x="384" y="363" type="curve" smooth="yes"/>
      <point x="414" y="363"/>
      <point x="441" y="349"/>
      <point x="466" y="322" type="curve" smooth="yes"/>
      <point x="491" y="294"/>
      <point x="504" y="264"/>
      <point x="504" y="231" type="curve" smooth="yes"/>
      <point x="504" y="187"/>
      <point x="484" y="148"/>
      <point x="445" y="114" type="curve" smooth="yes"/>
      <point x="406" y="79"/>
      <point x="362" y="62"/>
      <point x="311" y="62" type="curve" smooth="yes"/>
      <point x="261" y="62"/>
      <point x="213" y="84"/>
      <point x="168" y="124" type="curve" smooth="yes"/>
      <point x="123" y="164"/>
      <point x="100" y="205"/>
      <point x="100" y="249" type="curve" smooth="yes"/>
      <point x="100" y="250"/>
      <point x="100" y="251"/>
      <point x="101" y="254" type="curve" smooth="yes"/>
      <point x="104" y="260" type="line"/>
      <point x="111" y="255"/>
      <point x="119" y="250"/>
      <point x="127" y="247" type="curve" smooth="yes"/>
      <point x="136" y="244"/>
      <point x="144" y="242"/>
      <point x="152" y="242" type="curve" smooth="yes"/>
      <point x="182" y="242"/>
      <point x="210" y="254"/>
      <point x="237" y="277" type="curve" smooth="yes"/>
      <point x="262" y="300"/>
      <point x="275" y="325"/>
      <point x="275" y="353" type="curve" smooth="yes"/>
      <point x="275" y="373"/>
      <point x="268" y="390"/>
      <point x="255" y="405" type="curve" smooth="yes"/>
      <point x="242" y="419"/>
      <point x="226" y="426"/>
      <point x="207" y="426" type="curve" smooth="yes"/>
      <point x="159" y="426"/>
      <point x="116" y="409"/>
      <point x="81" y="372" type="curve" smooth="yes"/>
      <point x="46" y="336"/>
      <point x="30" y="293"/>
      <point x="30" y="243" type="curve" smooth="yes"/>
      <point x="30" y="183"/>
      <point x="57" y="126"/>
      <point x="110" y="75" type="curve" smooth="yes"/>
      <point x="164" y="23"/>
      <point x="222" y="-1"/>
    </contour>
  </outline>
</glyph>
<glyph name="AA" format="1">
  <advance width="565"/>
  <unicode hex="0C06"/>
  <outline>
    <contour>
      <point x="170" y="292" type="curve" smooth="yes" name="hr00"/>
      <point x="161" y="292"/>
      <point x="153" y="298"/>
      <point x="146" y="309" type="curve" smooth="yes"/>
      <point x="139" y="322"/>
      <point x="136" y="336"/>
      <point x="136" y="353" type="curve" smooth="yes"/>
      <point x="136" y="358"/>
      <point x="138" y="363"/>
      <point x="143" y="368" type="curve" smooth="yes"/>
      <point x="148" y="373"/>
      <point x="153" y="375"/>
      <point x="159" y="375" type="curve" smooth="yes"/>
      <point x="167" y="375"/>
      <point x="175" y="369"/>
      <point x="183" y="357" type="curve" smooth="yes"/>
      <point x="190" y="345"/>
      <point x="194" y="331"/>
      <point x="194" y="316" type="curve" smooth="yes"/>
      <point x="194" y="309"/>
      <point x="191" y="304"/>
      <point x="186" y="300" type="curve"/>
      <point x="183" y="295"/>
      <point x="177" y="292"/>
    </contour>
    <contour>
      <point x="425" y="245" type="line"/>
      <point x="402" y="258"/>
      <point x="384" y="272"/>
      <point x="370" y="287" type="curve" smooth="yes"/>
      <point x="355" y="302"/>
      <point x="348" y="315"/>
      <point x="348" y="328" type="curve" smooth="yes"/>
      <point x="348" y="338"/>
      <point x="352" y="346"/>
      <point x="361" y="353" type="curve" smooth="yes"/>
      <point x="368" y="360"/>
      <point x="378" y="363"/>
      <point x="390" y="363" type="curve" smooth="yes"/>
      <point x="408" y="363"/>
      <point x="426" y="355"/>
      <point x="443" y="339" type="curve" smooth="yes"/>
      <point x="460" y="324"/>
      <point x="468" y="308"/>
      <point x="468" y="291" type="curve" smooth="yes"/>
      <point x="468" y="280"/>
      <point x="464" y="270"/>
      <point x="455" y="261" type="curve"/>
      <point x="448" y="252"/>
      <point x="438" y="246"/>
      <point x="425" y="244" type="curve"/>
    </contour>
    <contour>
      <point x="291" y="-1" type="curve" smooth="yes"/>
      <point x="344" y="-1"/>
      <point x="394" y="15"/>
      <point x="440" y="47" type="curve" smooth="yes"/>
      <point x="484" y="78"/>
      <point x="506" y="113"/>
      <point x="506" y="151" type="curve" smooth="yes"/>
      <point x="506" y="166"/>
      <point x="503" y="179"/>
      <point x="496" y="191" type="curve" smooth="yes"/>
      <point x="489" y="204"/>
      <point x="481" y="213"/>
      <point x="471" y="219" type="curve"/>
      <point x="494" y="238"/>
      <point x="511" y="258"/>
      <point x="523" y="279" type="curve" smooth="yes"/>
      <point x="536" y="300"/>
      <point x="542" y="321"/>
      <point x="542" y="340" type="curve" smooth="yes"/>
      <point x="542" y="363"/>
      <point x="534" y="384"/>
      <point x="517" y="401" type="curve" smooth="yes"/>
      <point x="500" y="418"/>
      <point x="479" y="426"/>
      <point x="456" y="426" type="curve" smooth="yes"/>
      <point x="420" y="426" type="line" smooth="yes"/>
      <point x="393" y="426"/>
      <point x="365" y="412"/>
      <point x="338" y="384" type="curve" smooth="yes"/>
      <point x="310" y="355"/>
      <point x="298" y="326"/>
      <point x="298" y="298" type="curve" smooth="yes"/>
      <point x="298" y="285"/>
      <point x="303" y="270"/>
      <point x="314" y="255" type="curve" smooth="yes"/>
      <point x="325" y="241"/>
      <point x="338" y="229"/>
      <point x="355" y="220" type="curve"/>
      <point x="219" y="220" type="line"/>
      <point x="182" y="157" type="line"/>
      <point x="384" y="157" type="line" smooth="yes"/>
      <point x="394" y="157"/>
      <point x="406" y="161"/>
      <point x="420" y="169" type="curve"/>
      <point x="423" y="166"/>
      <point x="426" y="160"/>
      <point x="428" y="153" type="curve" smooth="yes"/>
      <point x="430" y="144"/>
      <point x="431" y="134"/>
      <point x="431" y="121" type="curve" smooth="yes"/>
      <point x="431" y="104"/>
      <point x="424" y="91"/>
      <point x="411" y="80" type="curve" smooth="yes"/>
      <point x="398" y="68"/>
      <point x="383" y="62"/>
      <point x="365" y="62" type="curve" smooth="yes"/>
      <point x="316" y="62" type="line" smooth="yes"/>
      <point x="259" y="62"/>
      <point x="211" y="82"/>
      <point x="171" y="121" type="curve" smooth="yes"/>
      <point x="131" y="160"/>
      <point x="111" y="205"/>
      <point x="111" y="258" type="curve"/>
      <point x="113" y="254"/>
      <point x="118" y="250"/>
      <point x="126" y="247" type="curve" smooth="yes"/>
      <point x="133" y="244"/>
      <point x="142" y="242"/>
      <point x="152" y="242" type="curve" smooth="yes"/>
      <point x="179" y="242"/>
      <point x="207" y="253"/>
      <point x="235" y="278" type="curve" smooth="yes"/>
      <point x="263" y="302"/>
      <point x="275" y="328"/>
      <point x="275" y="353" type="curve" smooth="yes"/>
      <point x="275" y="373"/>
      <point x="268" y="390"/>
      <point x="253" y="405" type="curve" smooth="yes"/>
      <point x="238" y="419"/>
      <point x="221" y="426"/>
      <point x="201" y="426" type="curve" smooth="yes"/>
      <point x="160" y="426"/>
      <point x="120" y="406"/>
      <point x="84" y="364" type="curve" smooth="yes"/>
      <point x="47" y="322"/>
      <point x="30" y="274"/>
      <point x="30" y="225" type="curve" smooth="yes"/>
      <point x="30" y="169"/>
      <point x="58" y="117"/>
      <point x="113" y="70" type="curve" smooth="yes"/>
      <point x="168" y="23"/>
      <point x="227" y="-1"/>
    </contour>
  </outline>
</glyph>
<glyph name="uni0C07" format="1">
  <advance width="668"/>
  <unicode hex="0C07"/>
  <outline>
    <contour>
      <point x="345" y="62" type="curve" smooth="yes" name="hr00"/>
      <point x="318" y="62"/>
      <point x="294" y="71"/>
      <point x="275" y="87" type="curve" smooth="yes"/>
      <point x="255" y="104"/>
      <point x="245" y="123"/>
      <point x="245" y="146" type="curve" smooth="yes"/>
      <point x="245" y="161"/>
      <point x="250" y="174"/>
      <point x="261" y="183" type="curve"/>
      <point x="270" y="194"/>
      <point x="282" y="199"/>
      <point x="297" y="199" type="curve" smooth="yes"/>
      <point x="306" y="199"/>
      <point x="315" y="195"/>
      <point x="326" y="188" type="curve" smooth="yes"/>
      <point x="338" y="181"/>
      <point x="350" y="169"/>
      <point x="364" y="157" type="curve" smooth="yes"/>
      <point x="430" y="98" type="line"/>
      <point x="419" y="87"/>
      <point x="406" y="78"/>
      <point x="391" y="72" type="curve" smooth="yes"/>
      <point x="376" y="65"/>
      <point x="361" y="62"/>
    </contour>
    <contour>
      <point x="303" y="-1" type="curve" smooth="yes"/>
      <point x="332" y="-1"/>
      <point x="359" y="5"/>
      <point x="386" y="18" type="curve" smooth="yes"/>
      <point x="414" y="31"/>
      <point x="439" y="49"/>
      <point x="461" y="72" type="curve"/>
      <point x="503" y="35" type="line" smooth="yes"/>
      <point x="516" y="23"/>
      <point x="531" y="15"/>
      <point x="544" y="8" type="curve" smooth="yes"/>
      <point x="556" y="2"/>
      <point x="567" y="-1"/>
      <point x="577" y="-1" type="curve"/>
      <point x="648" y="63" type="line"/>
      <point x="633" y="58"/>
      <point x="624" y="56"/>
      <point x="620" y="56" type="curve" smooth="yes"/>
      <point x="613" y="56"/>
      <point x="605" y="58"/>
      <point x="596" y="62" type="curve" smooth="yes"/>
      <point x="587" y="67"/>
      <point x="579" y="73"/>
      <point x="572" y="80" type="curve"/>
      <point x="523" y="121" type="line"/>
      <point x="544" y="142"/>
      <point x="560" y="165"/>
      <point x="572" y="189" type="curve" smooth="yes"/>
      <point x="583" y="212"/>
      <point x="590" y="234"/>
      <point x="590" y="255" type="curve" smooth="yes"/>
      <point x="590" y="302"/>
      <point x="576" y="343"/>
      <point x="546" y="376" type="curve" smooth="yes"/>
      <point x="516" y="410"/>
      <point x="479" y="426"/>
      <point x="437" y="426" type="curve" smooth="yes"/>
      <point x="410" y="426"/>
      <point x="384" y="420"/>
      <point x="361" y="411" type="curve" smooth="yes"/>
      <point x="337" y="401"/>
      <point x="318" y="388"/>
      <point x="304" y="371" type="curve"/>
      <point x="286" y="388"/>
      <point x="266" y="402"/>
      <point x="245" y="412" type="curve" smooth="yes"/>
      <point x="224" y="421"/>
      <point x="203" y="426"/>
      <point x="182" y="426" type="curve" smooth="yes"/>
      <point x="145" y="426"/>
      <point x="110" y="413"/>
      <point x="78" y="386" type="curve" smooth="yes"/>
      <point x="46" y="359"/>
      <point x="30" y="329"/>
      <point x="30" y="298" type="curve" smooth="yes"/>
      <point x="30" y="286"/>
      <point x="34" y="275"/>
      <point x="41" y="264" type="curve"/>
      <point x="50" y="254"/>
      <point x="61" y="247"/>
      <point x="74" y="242" type="curve"/>
      <point x="167" y="279" type="line"/>
      <point x="144" y="288"/>
      <point x="125" y="299"/>
      <point x="112" y="312" type="curve" smooth="yes"/>
      <point x="99" y="325"/>
      <point x="92" y="338"/>
      <point x="92" y="353" type="curve" smooth="yes"/>
      <point x="92" y="359"/>
      <point x="96" y="364"/>
      <point x="104" y="368" type="curve" smooth="yes"/>
      <point x="112" y="373"/>
      <point x="122" y="375"/>
      <point x="134" y="375" type="curve" smooth="yes"/>
      <point x="155" y="375"/>
      <point x="177" y="367"/>
      <point x="201" y="350" type="curve" smooth="yes"/>
      <point x="227" y="333"/>
      <point x="253" y="308"/>
      <point x="280" y="277" type="curve"/>
      <point x="295" y="304"/>
      <point x="313" y="325"/>
      <point x="333" y="340" type="curve" smooth="yes"/>
      <point x="352" y="355"/>
      <point x="370" y="363"/>
      <point x="389" y="363" type="curve" smooth="yes"/>
      <point x="420" y="363"/>
      <point x="449" y="348"/>
      <point x="475" y="318" type="curve" smooth="yes"/>
      <point x="502" y="288"/>
      <point x="515" y="255"/>
      <point x="515" y="219" type="curve" smooth="yes"/>
      <point x="515" y="208"/>
      <point x="513" y="198"/>
      <point x="509" y="188" type="curve" smooth="yes"/>
      <point x="505" y="177"/>
      <point x="499" y="168"/>
      <point x="492" y="159" type="curve"/>
      <point x="438" y="214" type="line" smooth="yes"/>
      <point x="427" y="225"/>
      <point x="412" y="233"/>
      <point x="394" y="240" type="curve" smooth="yes"/>
      <point x="377" y="246"/>
      <point x="359" y="250"/>
      <point x="340" y="250" type="curve" smooth="yes"/>
      <point x="298" y="250"/>
      <point x="259" y="235"/>
      <point x="223" y="206" type="curve" smooth="yes"/>
      <point x="187" y="176"/>
      <point x="169" y="144"/>
      <point x="169" y="109" type="curve" smooth="yes"/>
      <point x="169" y="79"/>
      <point x="181" y="52"/>
      <point x="208" y="30" type="curve" smooth="yes"/>
      <point x="234" y="8"/>
      <point x="267" y="-1"/>
    </contour>
  </outline>
</glyph>
<glyph name="II" format="1">
  <advance width="948"/>
  <unicode hex="0C08"/>
  <outline>
    <contour>
      <point x="189" y="243" type="line" name="hr00"/>
      <point x="194" y="270"/>
      <point x="201" y="292"/>
      <point x="212" y="309" type="curve" smooth="yes"/>
      <point x="223" y="326"/>
      <point x="236" y="340"/>
      <point x="251" y="352" type="curve"/>
      <point x="317" y="352" type="line" smooth="yes"/>
      <point x="352" y="352"/>
      <point x="384" y="343"/>
      <point x="412" y="325" type="curve" smooth="yes"/>
      <point x="440" y="308"/>
      <point x="461" y="285"/>
      <point x="474" y="256" type="curve"/>
      <point x="189" y="256" type="line"/>
    </contour>
    <contour>
      <point x="346" y="50" type="curve" smooth="yes"/>
      <point x="307" y="50"/>
      <point x="272" y="63"/>
      <point x="242" y="89" type="curve" smooth="yes"/>
      <point x="212" y="114"/>
      <point x="195" y="145"/>
      <point x="191" y="182" type="curve"/>
      <point x="492" y="182" type="line"/>
      <point x="489" y="147"/>
      <point x="472" y="118"/>
      <point x="442" y="91" type="curve" smooth="yes"/>
      <point x="413" y="65"/>
      <point x="381" y="50"/>
    </contour>
    <contour>
      <point x="809" y="62" type="curve" smooth="yes"/>
      <point x="784" y="62"/>
      <point x="760" y="70"/>
      <point x="739" y="85" type="curve" smooth="yes"/>
      <point x="718" y="100"/>
      <point x="707" y="116"/>
      <point x="707" y="134" type="curve" smooth="yes"/>
      <point x="707" y="145"/>
      <point x="709" y="154"/>
      <point x="713" y="163" type="curve" smooth="yes"/>
      <point x="717" y="171"/>
      <point x="723" y="177"/>
      <point x="730" y="182" type="curve"/>
      <point x="763" y="182"/>
      <point x="794" y="174"/>
      <point x="821" y="157" type="curve" smooth="yes"/>
      <point x="848" y="140"/>
      <point x="862" y="123"/>
      <point x="862" y="104" type="curve" smooth="yes"/>
      <point x="862" y="93"/>
      <point x="857" y="83"/>
      <point x="847" y="75" type="curve" smooth="yes"/>
      <point x="837" y="66"/>
      <point x="824" y="62"/>
    </contour>
    <contour>
      <point x="310" y="-1" type="curve" smooth="yes"/>
      <point x="367" y="-1"/>
      <point x="418" y="15"/>
      <point x="463" y="50" type="curve" smooth="yes"/>
      <point x="507" y="84"/>
      <point x="536" y="129"/>
      <point x="549" y="182" type="curve"/>
      <point x="668" y="182" type="line"/>
      <point x="657" y="169"/>
      <point x="648" y="155"/>
      <point x="641" y="141" type="curve" smooth="yes"/>
      <point x="635" y="128"/>
      <point x="632" y="115"/>
      <point x="632" y="104" type="curve" smooth="yes"/>
      <point x="632" y="77"/>
      <point x="647" y="54"/>
      <point x="677" y="32" type="curve" smooth="yes"/>
      <point x="706" y="11"/>
      <point x="738" y="-1"/>
      <point x="772" y="-1" type="curve" smooth="yes"/>
      <point x="806" y="-1"/>
      <point x="840" y="15"/>
      <point x="874" y="48" type="curve" smooth="yes"/>
      <point x="909" y="81"/>
      <point x="926" y="114"/>
      <point x="926" y="146" type="curve" smooth="yes"/>
      <point x="926" y="168"/>
      <point x="915" y="188"/>
      <point x="893" y="207" type="curve" smooth="yes"/>
      <point x="872" y="226"/>
      <point x="845" y="238"/>
      <point x="813" y="244" type="curve"/>
      <point x="871" y="278" type="line"/>
      <point x="888" y="286"/>
      <point x="901" y="295"/>
      <point x="911" y="305" type="curve" smooth="yes"/>
      <point x="921" y="316"/>
      <point x="926" y="325"/>
      <point x="926" y="334" type="curve" smooth="yes"/>
      <point x="926" y="357"/>
      <point x="911" y="377"/>
      <point x="881" y="394" type="curve" smooth="yes"/>
      <point x="851" y="411"/>
      <point x="817" y="420"/>
      <point x="778" y="420" type="curve" smooth="yes"/>
      <point x="739" y="420"/>
      <point x="704" y="408"/>
      <point x="671" y="384" type="curve" smooth="yes"/>
      <point x="637" y="359"/>
      <point x="620" y="333"/>
      <point x="620" y="304" type="curve" smooth="yes"/>
      <point x="620" y="299"/>
      <point x="622" y="290"/>
      <point x="627" y="278" type="curve"/>
      <point x="708" y="304" type="line"/>
      <point x="701" y="309"/>
      <point x="696" y="316"/>
      <point x="693" y="323" type="curve" smooth="yes"/>
      <point x="690" y="330"/>
      <point x="688" y="338"/>
      <point x="688" y="346" type="curve" smooth="yes"/>
      <point x="688" y="355"/>
      <point x="694" y="364"/>
      <point x="706" y="372" type="curve" smooth="yes"/>
      <point x="717" y="379"/>
      <point x="731" y="382"/>
      <point x="748" y="382" type="curve" smooth="yes"/>
      <point x="769" y="382"/>
      <point x="789" y="378"/>
      <point x="807" y="367" type="curve" smooth="yes"/>
      <point x="824" y="357"/>
      <point x="832" y="345"/>
      <point x="832" y="334" type="curve" smooth="yes"/>
      <point x="832" y="327"/>
      <point x="829" y="319"/>
      <point x="822" y="311" type="curve"/>
      <point x="817" y="302"/>
      <point x="808" y="293"/>
      <point x="797" y="286" type="curve" smooth="yes"/>
      <point x="748" y="256" type="line"/>
      <point x="549" y="256" type="line"/>
      <point x="549" y="298"/>
      <point x="524" y="337"/>
      <point x="473" y="372" type="curve" smooth="yes"/>
      <point x="421" y="408"/>
      <point x="365" y="426"/>
      <point x="305" y="426" type="curve" smooth="yes"/>
      <point x="249" y="426" type="line"/>
      <point x="531" y="594" type="line"/>
      <point x="531" y="701" type="line"/>
      <point x="165" y="462" type="line"/>
      <point x="165" y="352" type="line"/>
      <point x="212" y="352" type="line"/>
      <point x="187" y="335"/>
      <point x="164" y="303"/>
      <point x="141" y="256" type="curve"/>
      <point x="92" y="256" type="line"/>
      <point x="30" y="182" type="line"/>
      <point x="122" y="182" type="line"/>
      <point x="118" y="168"/>
      <point x="116" y="158"/>
      <point x="116" y="151" type="curve" smooth="yes"/>
      <point x="116" y="114"/>
      <point x="137" y="79"/>
      <point x="178" y="47" type="curve" smooth="yes"/>
      <point x="218" y="15"/>
      <point x="262" y="-1"/>
    </contour>
  </outline>
</glyph>
<glyph name="uni0C09" format="1">
  <advance width="595"/>
  <unicode hex="0C09"/>
  <outline>
    <contour>
      <point x="103" y="218" type="line" name="hr00"/>
      <point x="492" y="218" type="line"/>
      <point x="574" y="292" type="line"/>
      <point x="171" y="292" type="line"/>
      <point x="103" y="219" type="line"/>
    </contour>
    <contour>
      <point x="158" y="-1" type="curve" smooth="yes"/>
      <point x="179" y="-1"/>
      <point x="199" y="4"/>
      <point x="219" y="15" type="curve" smooth="yes"/>
      <point x="240" y="26"/>
      <point x="258" y="41"/>
      <point x="274" y="60" type="curve"/>
      <point x="292" y="41"/>
      <point x="313" y="26"/>
      <point x="337" y="15" type="curve" smooth="yes"/>
      <point x="360" y="4"/>
      <point x="383" y="-1"/>
      <point x="407" y="-1" type="curve" smooth="yes"/>
      <point x="446" y="-1"/>
      <point x="483" y="15"/>
      <point x="518" y="48" type="curve" smooth="yes"/>
      <point x="554" y="82"/>
      <point x="572" y="116"/>
      <point x="572" y="151" type="curve" smooth="yes"/>
      <point x="572" y="162"/>
      <point x="570" y="173"/>
      <point x="566" y="183" type="curve" smooth="yes"/>
      <point x="562" y="192"/>
      <point x="556" y="200"/>
      <point x="547" y="207" type="curve"/>
      <point x="473" y="146" type="line"/>
      <point x="484" y="142"/>
      <point x="493" y="136"/>
      <point x="500" y="129" type="curve" smooth="yes"/>
      <point x="507" y="122"/>
      <point x="510" y="113"/>
      <point x="510" y="104" type="curve" smooth="yes"/>
      <point x="510" y="95"/>
      <point x="503" y="86"/>
      <point x="489" y="79" type="curve" smooth="yes"/>
      <point x="473" y="71"/>
      <point x="454" y="67"/>
      <point x="432" y="67" type="curve" smooth="yes"/>
      <point x="408" y="67"/>
      <point x="386" y="74"/>
      <point x="365" y="87" type="curve" smooth="yes"/>
      <point x="344" y="100"/>
      <point x="327" y="119"/>
      <point x="316" y="142" type="curve"/>
      <point x="297" y="120"/>
      <point x="278" y="103"/>
      <point x="257" y="91" type="curve" smooth="yes"/>
      <point x="236" y="80"/>
      <point x="216" y="74"/>
      <point x="195" y="74" type="curve" smooth="yes"/>
      <point x="168" y="74"/>
      <point x="144" y="86"/>
      <point x="121" y="111" type="curve" smooth="yes"/>
      <point x="98" y="136"/>
      <point x="87" y="164"/>
      <point x="87" y="194" type="curve" smooth="yes"/>
      <point x="87" y="228"/>
      <point x="96" y="259"/>
      <point x="113" y="287" type="curve" smooth="yes"/>
      <point x="131" y="316"/>
      <point x="155" y="337"/>
      <point x="184" y="352" type="curve"/>
      <point x="347" y="352" type="line" smooth="yes"/>
      <point x="366" y="352"/>
      <point x="381" y="349"/>
      <point x="394" y="343" type="curve" smooth="yes"/>
      <point x="407" y="336"/>
      <point x="413" y="328"/>
      <point x="413" y="319" type="curve"/>
      <point x="482" y="389" type="line"/>
      <point x="475" y="400"/>
      <point x="465" y="409"/>
      <point x="450" y="416" type="curve" smooth="yes"/>
      <point x="436" y="423"/>
      <point x="420" y="426"/>
      <point x="401" y="426" type="curve" smooth="yes"/>
      <point x="355" y="426" type="line"/>
      <point x="355" y="640" type="line"/>
      <point x="268" y="590" type="line"/>
      <point x="268" y="426" type="line"/>
      <point x="209" y="426"/>
      <point x="155" y="396"/>
      <point x="105" y="335" type="curve" smooth="yes"/>
      <point x="55" y="274"/>
      <point x="30" y="207"/>
      <point x="30" y="134" type="curve" smooth="yes"/>
      <point x="30" y="101"/>
      <point x="43" y="70"/>
      <point x="70" y="42" type="curve" smooth="yes"/>
      <point x="97" y="13"/>
      <point x="127" y="-1"/>
    </contour>
  </outline>
</glyph>
<glyph name="UU" format="1">
  <advance width="941"/>
  <unicode hex="0C0A"/>
  <outline>
    <contour>
      <point x="158" y="-1" type="curve" smooth="yes" name="hr00"/>
      <point x="179" y="-1"/>
      <point x="199" y="4"/>
      <point x="219" y="15" type="curve" smooth="yes"/>
      <point x="240" y="26"/>
      <point x="258" y="41"/>
      <point x="274" y="60" type="curve"/>
      <point x="292" y="41"/>
      <point x="313" y="26"/>
      <point x="337" y="15" type="curve" smooth="yes"/>
      <point x="360" y="4"/>
      <point x="383" y="-1"/>
      <point x="407" y="-1" type="curve" smooth="yes"/>
      <point x="446" y="-1"/>
      <point x="483" y="15"/>
      <point x="518" y="48" type="curve" smooth="yes"/>
      <point x="554" y="82"/>
      <point x="572" y="116"/>
      <point x="572" y="151" type="curve" smooth="yes"/>
      <point x="572" y="162"/>
      <point x="570" y="173"/>
      <point x="566" y="183" type="curve" smooth="yes"/>
      <point x="562" y="192"/>
      <point x="556" y="200"/>
      <point x="547" y="207" type="curve"/>
      <point x="473" y="146" type="line"/>
      <point x="484" y="142"/>
      <point x="493" y="136"/>
      <point x="500" y="129" type="curve" smooth="yes"/>
      <point x="507" y="122"/>
      <point x="510" y="113"/>
      <point x="510" y="104" type="curve" smooth="yes"/>
      <point x="510" y="95"/>
      <point x="503" y="86"/>
      <point x="489" y="79" type="curve" smooth="yes"/>
      <point x="473" y="71"/>
      <point x="454" y="67"/>
      <point x="432" y="67" type="curve" smooth="yes"/>
      <point x="408" y="67"/>
      <point x="386" y="74"/>
      <point x="365" y="87" type="curve" smooth="yes"/>
      <point x="344" y="100"/>
      <point x="327" y="119"/>
      <point x="316" y="142" type="curve"/>
      <point x="297" y="120"/>
      <point x="278" y="103"/>
      <point x="257" y="91" type="curve" smooth="yes"/>
      <point x="236" y="80"/>
      <point x="216" y="74"/>
      <point x="195" y="74" type="curve" smooth="yes"/>
      <point x="168" y="74"/>
      <point x="144" y="86"/>
      <point x="121" y="111" type="curve" smooth="yes"/>
      <point x="98" y="136"/>
      <point x="87" y="164"/>
      <point x="87" y="194" type="curve" smooth="yes"/>
      <point x="87" y="228"/>
      <point x="96" y="259"/>
      <point x="113" y="287" type="curve" smooth="yes"/>
      <point x="131" y="316"/>
      <point x="155" y="337"/>
      <point x="184" y="352" type="curve"/>
      <point x="347" y="352" type="line" smooth="yes"/>
      <point x="366" y="352"/>
      <point x="381" y="349"/>
      <point x="394" y="343" type="curve" smooth="yes"/>
      <point x="407" y="336"/>
      <point x="413" y="328"/>
      <point x="413" y="319" type="curve"/>
      <point x="482" y="389" type="line"/>
      <point x="475" y="400"/>
      <point x="465" y="409"/>
      <point x="450" y="416" type="curve" smooth="yes"/>
      <point x="436" y="423"/>
      <point x="420" y="426"/>
      <point x="402" y="426" type="curve"/>
      <point x="402" y="640" type="line"/>
      <point x="315" y="590" type="line"/>
      <point x="315" y="426" type="line"/>
      <point x="270" y="426" type="line"/>
      <point x="270" y="627" type="line"/>
      <point x="188" y="577" type="line"/>
      <point x="188" y="396" type="line"/>
      <point x="139" y="368"/>
      <point x="101" y="331"/>
      <point x="73" y="284" type="curve" smooth="yes"/>
      <point x="44" y="237"/>
      <point x="30" y="187"/>
      <point x="30" y="134" type="curve" smooth="yes"/>
      <point x="30" y="101"/>
      <point x="43" y="70"/>
      <point x="70" y="42" type="curve" smooth="yes"/>
      <point x="97" y="13"/>
      <point x="127" y="-1"/>
    </contour>
    <contour>
      <point x="801" y="110" type="curve" smooth="yes"/>
      <point x="776" y="110"/>
      <point x="753" y="118"/>
      <point x="732" y="134" type="curve" smooth="yes"/>
      <point x="711" y="149"/>
      <point x="700" y="165"/>
      <point x="700" y="183" type="curve" smooth="yes"/>
      <point x="700" y="194"/>
      <point x="702" y="203"/>
      <point x="706" y="211" type="curve" smooth="yes"/>
      <point x="711" y="220"/>
      <point x="717" y="226"/>
      <point x="724" y="230" type="curve"/>
      <point x="757" y="230"/>
      <point x="787" y="222"/>
      <point x="814" y="205" type="curve" smooth="yes"/>
      <point x="842" y="188"/>
      <point x="856" y="170"/>
      <point x="856" y="151" type="curve" smooth="yes"/>
      <point x="856" y="140"/>
      <point x="851" y="130"/>
      <point x="840" y="122" type="curve" smooth="yes"/>
      <point x="830" y="114"/>
      <point x="817" y="110"/>
    </contour>
    <contour>
      <point x="765" y="48" type="curve" smooth="yes"/>
      <point x="799" y="48"/>
      <point x="833" y="64"/>
      <point x="867" y="97" type="curve" smooth="yes"/>
      <point x="901" y="130"/>
      <point x="918" y="162"/>
      <point x="918" y="194" type="curve" smooth="yes"/>
      <point x="918" y="217"/>
      <point x="907" y="237"/>
      <point x="886" y="256" type="curve" smooth="yes"/>
      <point x="863" y="275"/>
      <point x="836" y="287"/>
      <point x="805" y="292" type="curve"/>
      <point x="864" y="327" type="line"/>
      <point x="881" y="335"/>
      <point x="894" y="344"/>
      <point x="903" y="354" type="curve" smooth="yes"/>
      <point x="913" y="364"/>
      <point x="918" y="374"/>
      <point x="918" y="383" type="curve" smooth="yes"/>
      <point x="918" y="406"/>
      <point x="904" y="425"/>
      <point x="875" y="442" type="curve" smooth="yes"/>
      <point x="844" y="460"/>
      <point x="810" y="469"/>
      <point x="772" y="469" type="curve" smooth="yes"/>
      <point x="733" y="469"/>
      <point x="697" y="457"/>
      <point x="663" y="432" type="curve" smooth="yes"/>
      <point x="630" y="408"/>
      <point x="613" y="382"/>
      <point x="613" y="353" type="curve" smooth="yes"/>
      <point x="613" y="348"/>
      <point x="615" y="339"/>
      <point x="619" y="327" type="curve"/>
      <point x="701" y="353" type="line"/>
      <point x="694" y="358"/>
      <point x="690" y="364"/>
      <point x="687" y="371" type="curve" smooth="yes"/>
      <point x="684" y="378"/>
      <point x="682" y="386"/>
      <point x="682" y="395" type="curve" smooth="yes"/>
      <point x="682" y="404"/>
      <point x="688" y="413"/>
      <point x="700" y="420" type="curve" smooth="yes"/>
      <point x="711" y="427"/>
      <point x="724" y="430"/>
      <point x="741" y="430" type="curve" smooth="yes"/>
      <point x="762" y="430"/>
      <point x="781" y="425"/>
      <point x="800" y="415" type="curve"/>
      <point x="817" y="404"/>
      <point x="825" y="394"/>
      <point x="825" y="383" type="curve" smooth="yes"/>
      <point x="825" y="375"/>
      <point x="822" y="367"/>
      <point x="815" y="360" type="curve"/>
      <point x="809" y="351"/>
      <point x="799" y="343"/>
      <point x="789" y="335" type="curve" smooth="yes"/>
      <point x="741" y="299" type="line"/>
      <point x="165" y="299" type="line"/>
      <point x="97" y="230" type="line"/>
      <point x="660" y="230" type="line"/>
      <point x="649" y="217"/>
      <point x="641" y="204"/>
      <point x="634" y="190" type="curve" smooth="yes"/>
      <point x="628" y="176"/>
      <point x="625" y="163"/>
      <point x="625" y="151" type="curve" smooth="yes"/>
      <point x="625" y="126"/>
      <point x="639" y="102"/>
      <point x="669" y="80" type="curve" smooth="yes"/>
      <point x="698" y="58"/>
      <point x="731" y="48"/>
    </contour>
  </outline>
</glyph>
<glyph name="Ru" format="1">
  <advance width="1340"/>
  <unicode hex="0C0B"/>
  <outline>
    <contour>
      <point x="145" y="280" type="curve" smooth="yes" name="hr00"/>
      <point x="132" y="280"/>
      <point x="121" y="286"/>
      <point x="111" y="299" type="curve"/>
      <point x="99" y="312"/>
      <point x="93" y="325"/>
      <point x="93" y="340" type="curve" smooth="yes"/>
      <point x="93" y="352"/>
      <point x="96" y="362"/>
      <point x="103" y="369" type="curve" smooth="yes"/>
      <point x="110" y="378"/>
      <point x="119" y="382"/>
      <point x="129" y="382" type="curve" smooth="yes"/>
      <point x="140" y="382"/>
      <point x="151" y="376"/>
      <point x="161" y="363" type="curve" smooth="yes"/>
      <point x="171" y="350"/>
      <point x="176" y="336"/>
      <point x="176" y="321" type="curve" smooth="yes"/>
      <point x="176" y="310"/>
      <point x="173" y="300"/>
      <point x="168" y="292" type="curve" smooth="yes"/>
      <point x="162" y="284"/>
      <point x="154" y="280"/>
    </contour>
    <contour>
      <point x="183" y="5" type="curve" smooth="yes"/>
      <point x="199" y="5"/>
      <point x="217" y="10"/>
      <point x="236" y="20" type="curve" smooth="yes"/>
      <point x="256" y="31"/>
      <point x="275" y="46"/>
      <point x="292" y="65" type="curve"/>
      <point x="313" y="44"/>
      <point x="332" y="28"/>
      <point x="351" y="17" type="curve" smooth="yes"/>
      <point x="372" y="5"/>
      <point x="390" y="-1"/>
      <point x="407" y="-1" type="curve" smooth="yes"/>
      <point x="442" y="-1"/>
      <point x="476" y="9"/>
      <point x="507" y="29" type="curve" smooth="yes"/>
      <point x="539" y="50"/>
      <point x="564" y="77"/>
      <point x="581" y="112" type="curve"/>
      <point x="600" y="77"/>
      <point x="627" y="50"/>
      <point x="660" y="29" type="curve" smooth="yes"/>
      <point x="693" y="9"/>
      <point x="728" y="-1"/>
      <point x="764" y="-1" type="curve" smooth="yes"/>
      <point x="797" y="-1"/>
      <point x="830" y="10"/>
      <point x="861" y="33" type="curve" smooth="yes"/>
      <point x="892" y="56"/>
      <point x="916" y="86"/>
      <point x="934" y="123" type="curve"/>
      <point x="954" y="86"/>
      <point x="981" y="56"/>
      <point x="1014" y="33" type="curve" smooth="yes"/>
      <point x="1049" y="10"/>
      <point x="1085" y="-1"/>
      <point x="1122" y="-1" type="curve" smooth="yes"/>
      <point x="1171" y="-1"/>
      <point x="1215" y="22"/>
      <point x="1256" y="68" type="curve" smooth="yes"/>
      <point x="1297" y="115"/>
      <point x="1317" y="165"/>
      <point x="1317" y="219" type="curve" smooth="yes"/>
      <point x="1317" y="276"/>
      <point x="1299" y="325"/>
      <point x="1262" y="366" type="curve" smooth="yes"/>
      <point x="1225" y="406"/>
      <point x="1180" y="426"/>
      <point x="1128" y="426" type="curve"/>
      <point x="1078" y="352" type="line"/>
      <point x="1131" y="352"/>
      <point x="1175" y="334"/>
      <point x="1211" y="300" type="curve" smooth="yes"/>
      <point x="1248" y="265"/>
      <point x="1266" y="225"/>
      <point x="1266" y="176" type="curve" smooth="yes"/>
      <point x="1266" y="145"/>
      <point x="1256" y="118"/>
      <point x="1238" y="96" type="curve" smooth="yes"/>
      <point x="1219" y="73"/>
      <point x="1198" y="62"/>
      <point x="1171" y="62" type="curve" smooth="yes"/>
      <point x="1131" y="62"/>
      <point x="1093" y="77"/>
      <point x="1055" y="105" type="curve" smooth="yes"/>
      <point x="1017" y="134"/>
      <point x="984" y="171"/>
      <point x="958" y="219" type="curve"/>
      <point x="958" y="276"/>
      <point x="940" y="325"/>
      <point x="903" y="366" type="curve" smooth="yes"/>
      <point x="866" y="406"/>
      <point x="821" y="426"/>
      <point x="769" y="426" type="curve"/>
      <point x="719" y="352" type="line"/>
      <point x="772" y="352"/>
      <point x="817" y="334"/>
      <point x="853" y="300" type="curve" smooth="yes"/>
      <point x="890" y="265"/>
      <point x="908" y="225"/>
      <point x="908" y="176" type="curve" smooth="yes"/>
      <point x="908" y="145"/>
      <point x="897" y="118"/>
      <point x="879" y="96" type="curve" smooth="yes"/>
      <point x="860" y="73"/>
      <point x="839" y="62"/>
      <point x="812" y="62" type="curve" smooth="yes"/>
      <point x="774" y="62"/>
      <point x="737" y="75"/>
      <point x="700" y="102" type="curve" smooth="yes"/>
      <point x="662" y="130"/>
      <point x="630" y="167"/>
      <point x="603" y="213" type="curve"/>
      <point x="603" y="265"/>
      <point x="580" y="315"/>
      <point x="531" y="360" type="curve" smooth="yes"/>
      <point x="483" y="405"/>
      <point x="428" y="426"/>
      <point x="370" y="426" type="curve"/>
      <point x="320" y="352" type="line"/>
      <point x="379" y="352"/>
      <point x="432" y="332"/>
      <point x="480" y="294" type="curve" smooth="yes"/>
      <point x="528" y="256"/>
      <point x="553" y="215"/>
      <point x="553" y="170" type="curve" smooth="yes"/>
      <point x="553" y="142"/>
      <point x="543" y="118"/>
      <point x="524" y="97" type="curve" smooth="yes"/>
      <point x="505" y="77"/>
      <point x="483" y="67"/>
      <point x="456" y="67" type="curve" smooth="yes"/>
      <point x="435" y="67"/>
      <point x="414" y="73"/>
      <point x="392" y="86" type="curve" smooth="yes"/>
      <point x="371" y="99"/>
      <point x="350" y="118"/>
      <point x="329" y="141" type="curve"/>
      <point x="308" y="121"/>
      <point x="287" y="106"/>
      <point x="266" y="96" type="curve" smooth="yes"/>
      <point x="245" y="85"/>
      <point x="226" y="80"/>
      <point x="207" y="80" type="curve" smooth="yes"/>
      <point x="182" y="80"/>
      <point x="161" y="87"/>
      <point x="143" y="102" type="curve" smooth="yes"/>
      <point x="126" y="117"/>
      <point x="117" y="136"/>
      <point x="117" y="158" type="curve" smooth="yes"/>
      <point x="117" y="172"/>
      <point x="122" y="186"/>
      <point x="132" y="199" type="curve" smooth="yes"/>
      <point x="142" y="213"/>
      <point x="155" y="225"/>
      <point x="172" y="235" type="curve"/>
      <point x="197" y="254"/>
      <point x="217" y="272"/>
      <point x="230" y="290" type="curve" smooth="yes"/>
      <point x="244" y="309"/>
      <point x="251" y="325"/>
      <point x="251" y="340" type="curve" smooth="yes"/>
      <point x="251" y="363"/>
      <point x="243" y="384"/>
      <point x="226" y="401" type="curve" smooth="yes"/>
      <point x="209" y="418"/>
      <point x="188" y="426"/>
      <point x="165" y="426" type="curve" smooth="yes"/>
      <point x="132" y="426"/>
      <point x="101" y="413"/>
      <point x="73" y="386" type="curve" smooth="yes"/>
      <point x="44" y="359"/>
      <point x="30" y="329"/>
      <point x="30" y="298" type="curve" smooth="yes"/>
      <point x="30" y="279"/>
      <point x="38" y="263"/>
      <point x="53" y="250" type="curve" smooth="yes"/>
      <point x="69" y="237"/>
      <point x="87" y="230"/>
      <point x="107" y="230" type="curve"/>
      <point x="89" y="216"/>
      <point x="76" y="199"/>
      <point x="65" y="179" type="curve" smooth="yes"/>
      <point x="55" y="160"/>
      <point x="49" y="140"/>
      <point x="49" y="121" type="curve" smooth="yes"/>
      <point x="49" y="96"/>
      <point x="64" y="70"/>
      <point x="94" y="44" type="curve" smooth="yes"/>
      <point x="125" y="17"/>
      <point x="154" y="5"/>
    </contour>
  </outline>
</glyph>
<glyph name="Lu" format="1">
  <advance width="853"/>
  <unicode hex="0C0C"/>
  <outline>
    <contour>
      <point x="430" y="426" type="curve" smooth="yes" name="hr00"/>
      <point x="416" y="426"/>
      <point x="399" y="421"/>
      <point x="378" y="409" type="curve" smooth="yes"/>
      <point x="358" y="398"/>
      <point x="337" y="381"/>
      <point x="316" y="360" type="curve"/>
      <point x="295" y="381"/>
      <point x="275" y="398"/>
      <point x="255" y="409" type="curve" smooth="yes"/>
      <point x="234" y="421"/>
      <point x="216" y="426"/>
      <point x="201" y="426" type="curve" smooth="yes"/>
      <point x="164" y="426"/>
      <point x="126" y="409"/>
      <point x="88" y="375" type="curve" smooth="yes"/>
      <point x="49" y="341"/>
      <point x="30" y="307"/>
      <point x="30" y="274" type="curve" smooth="yes"/>
      <point x="30" y="261"/>
      <point x="32" y="250"/>
      <point x="35" y="240" type="curve" smooth="yes"/>
      <point x="38" y="230"/>
      <point x="42" y="223"/>
      <point x="49" y="218" type="curve"/>
      <point x="112" y="279" type="line"/>
      <point x="104" y="282"/>
      <point x="97" y="288"/>
      <point x="92" y="295" type="curve" smooth="yes"/>
      <point x="88" y="301"/>
      <point x="86" y="308"/>
      <point x="86" y="316" type="curve" smooth="yes"/>
      <point x="86" y="327"/>
      <point x="92" y="337"/>
      <point x="103" y="345" type="curve" smooth="yes"/>
      <point x="115" y="354"/>
      <point x="129" y="358"/>
      <point x="146" y="358" type="curve" smooth="yes"/>
      <point x="165" y="358"/>
      <point x="185" y="352"/>
      <point x="205" y="339" type="curve" smooth="yes"/>
      <point x="226" y="326"/>
      <point x="246" y="307"/>
      <point x="267" y="284" type="curve"/>
      <point x="287" y="303"/>
      <point x="308" y="318"/>
      <point x="329" y="329" type="curve" smooth="yes"/>
      <point x="351" y="340"/>
      <point x="373" y="345"/>
      <point x="395" y="345" type="curve" smooth="yes"/>
      <point x="420" y="345"/>
      <point x="441" y="338"/>
      <point x="459" y="323" type="curve" smooth="yes"/>
      <point x="476" y="308"/>
      <point x="485" y="289"/>
      <point x="485" y="268" type="curve" smooth="yes"/>
      <point x="485" y="240"/>
      <point x="468" y="204"/>
      <point x="434" y="161" type="curve" smooth="yes"/>
      <point x="400" y="117"/>
      <point x="383" y="81"/>
      <point x="383" y="54" type="curve" smooth="yes"/>
      <point x="383" y="17"/>
      <point x="398" y="-15"/>
      <point x="429" y="-42" type="curve" smooth="yes"/>
      <point x="461" y="-69"/>
      <point x="499" y="-82"/>
      <point x="544" y="-82" type="curve" smooth="yes"/>
      <point x="622" y="-82"/>
      <point x="690" y="-57"/>
      <point x="746" y="-5" type="curve" smooth="yes"/>
      <point x="803" y="47"/>
      <point x="830" y="112"/>
      <point x="830" y="185" type="curve" smooth="yes"/>
      <point x="830" y="227"/>
      <point x="820" y="270"/>
      <point x="801" y="313" type="curve" smooth="yes"/>
      <point x="782" y="356"/>
      <point x="754" y="395"/>
      <point x="717" y="432" type="curve"/>
      <point x="645" y="391" type="line"/>
      <point x="681" y="354"/>
      <point x="709" y="313"/>
      <point x="728" y="269" type="curve" smooth="yes"/>
      <point x="747" y="225"/>
      <point x="756" y="180"/>
      <point x="756" y="133" type="curve" smooth="yes"/>
      <point x="756" y="87"/>
      <point x="738" y="49"/>
      <point x="704" y="17" type="curve" smooth="yes"/>
      <point x="670" y="-14"/>
      <point x="629" y="-31"/>
      <point x="580" y="-31" type="curve" smooth="yes"/>
      <point x="549" y="-31"/>
      <point x="521" y="-20"/>
      <point x="496" y="1" type="curve" smooth="yes"/>
      <point x="470" y="23"/>
      <point x="457" y="47"/>
      <point x="457" y="73" type="curve" smooth="yes"/>
      <point x="457" y="102"/>
      <point x="473" y="140"/>
      <point x="505" y="187" type="curve" smooth="yes"/>
      <point x="537" y="236"/>
      <point x="553" y="275"/>
      <point x="553" y="304" type="curve" smooth="yes"/>
      <point x="553" y="331"/>
      <point x="541" y="358"/>
      <point x="513" y="386" type="curve" smooth="yes"/>
      <point x="485" y="414"/>
      <point x="457" y="426"/>
    </contour>
  </outline>
</glyph>
<glyph name="uni0C0E" format="1">
  <advance width="608"/>
  <unicode hex="0C0E"/>
  <outline>
    <contour>
      <point x="170" y="67" type="curve" smooth="yes" name="hr00"/>
      <point x="153" y="67"/>
      <point x="135" y="75"/>
      <point x="116" y="92" type="curve" smooth="yes"/>
      <point x="97" y="108"/>
      <point x="87" y="124"/>
      <point x="87" y="140" type="curve" smooth="yes"/>
      <point x="87" y="150"/>
      <point x="90" y="158"/>
      <point x="97" y="165" type="curve" smooth="yes"/>
      <point x="104" y="172"/>
      <point x="112" y="175"/>
      <point x="122" y="175" type="curve" smooth="yes"/>
      <point x="132" y="175"/>
      <point x="146" y="168"/>
      <point x="163" y="154" type="curve" smooth="yes"/>
      <point x="180" y="141"/>
      <point x="198" y="122"/>
      <point x="219" y="98" type="curve"/>
      <point x="216" y="89"/>
      <point x="210" y="82"/>
      <point x="201" y="76" type="curve" smooth="yes"/>
      <point x="193" y="70"/>
      <point x="183" y="67"/>
    </contour>
    <contour>
      <point x="376" y="-1" type="curve" smooth="yes"/>
      <point x="431" y="-1"/>
      <point x="480" y="26"/>
      <point x="522" y="80" type="curve" smooth="yes"/>
      <point x="564" y="135"/>
      <point x="585" y="198"/>
      <point x="585" y="268" type="curve" smooth="yes"/>
      <point x="585" y="356"/>
      <point x="565" y="435"/>
      <point x="528" y="504" type="curve" smooth="yes"/>
      <point x="490" y="574"/>
      <point x="440" y="623"/>
      <point x="377" y="651" type="curve"/>
      <point x="290" y="595" type="line"/>
      <point x="364" y="568"/>
      <point x="423" y="521"/>
      <point x="468" y="454" type="curve" smooth="yes"/>
      <point x="513" y="388"/>
      <point x="535" y="314"/>
      <point x="535" y="231" type="curve" smooth="yes"/>
      <point x="535" y="184"/>
      <point x="524" y="145"/>
      <point x="501" y="112" type="curve" smooth="yes"/>
      <point x="479" y="79"/>
      <point x="452" y="62"/>
      <point x="420" y="62" type="curve" smooth="yes"/>
      <point x="401" y="62"/>
      <point x="383" y="66"/>
      <point x="366" y="74" type="curve" smooth="yes"/>
      <point x="350" y="81"/>
      <point x="336" y="92"/>
      <point x="325" y="105" type="curve"/>
      <point x="251" y="177" type="line"/>
      <point x="236" y="195"/>
      <point x="220" y="208"/>
      <point x="205" y="217" type="curve" smooth="yes"/>
      <point x="188" y="227"/>
      <point x="173" y="232"/>
      <point x="159" y="232" type="curve" smooth="yes"/>
      <point x="127" y="232"/>
      <point x="97" y="220"/>
      <point x="70" y="194" type="curve" smooth="yes"/>
      <point x="42" y="168"/>
      <point x="30" y="139"/>
      <point x="30" y="109" type="curve" smooth="yes"/>
      <point x="30" y="85"/>
      <point x="44" y="60"/>
      <point x="73" y="35" type="curve" smooth="yes"/>
      <point x="102" y="11"/>
      <point x="130" y="-1"/>
      <point x="159" y="-1" type="curve" smooth="yes"/>
      <point x="176" y="-1"/>
      <point x="193" y="4"/>
      <point x="210" y="15" type="curve" smooth="yes"/>
      <point x="227" y="26"/>
      <point x="240" y="41"/>
      <point x="250" y="59" type="curve"/>
      <point x="269" y="41"/>
      <point x="289" y="26"/>
      <point x="311" y="15" type="curve" smooth="yes"/>
      <point x="334" y="4"/>
      <point x="355" y="-1"/>
    </contour>
  </outline>
</glyph>
<glyph name="AI" format="1">
  <advance width="626"/>
  <unicode hex="0C10"/>
  <outline>
    <contour>
      <point x="181" y="62" type="curve" smooth="yes" name="hr00"/>
      <point x="161" y="62"/>
      <point x="142" y="71"/>
      <point x="125" y="87" type="curve" smooth="yes"/>
      <point x="107" y="104"/>
      <point x="98" y="121"/>
      <point x="98" y="140" type="curve" smooth="yes"/>
      <point x="98" y="155"/>
      <point x="102" y="168"/>
      <point x="111" y="177" type="curve"/>
      <point x="119" y="188"/>
      <point x="129" y="193"/>
      <point x="140" y="193" type="curve" smooth="yes"/>
      <point x="161" y="193"/>
      <point x="180" y="185"/>
      <point x="198" y="167" type="curve" smooth="yes"/>
      <point x="216" y="149"/>
      <point x="224" y="130"/>
      <point x="224" y="109" type="curve" smooth="yes"/>
      <point x="224" y="96"/>
      <point x="220" y="85"/>
      <point x="211" y="76" type="curve"/>
      <point x="204" y="67"/>
      <point x="194" y="62"/>
    </contour>
    <contour>
      <point x="128" y="-1" type="curve" smooth="yes"/>
      <point x="155" y="-1"/>
      <point x="180" y="4"/>
      <point x="201" y="15" type="curve" smooth="yes"/>
      <point x="224" y="26"/>
      <point x="240" y="41"/>
      <point x="250" y="59" type="curve"/>
      <point x="269" y="41"/>
      <point x="290" y="26"/>
      <point x="315" y="15" type="curve" smooth="yes"/>
      <point x="339" y="4"/>
      <point x="364" y="-1"/>
      <point x="390" y="-1" type="curve" smooth="yes"/>
      <point x="443" y="-1"/>
      <point x="493" y="24"/>
      <point x="537" y="75" type="curve" smooth="yes"/>
      <point x="582" y="127"/>
      <point x="603" y="183"/>
      <point x="603" y="243" type="curve" smooth="yes"/>
      <point x="603" y="288"/>
      <point x="588" y="330"/>
      <point x="557" y="369" type="curve" smooth="yes"/>
      <point x="526" y="407"/>
      <point x="492" y="426"/>
      <point x="456" y="426" type="curve" smooth="yes"/>
      <point x="426" y="426"/>
      <point x="399" y="421"/>
      <point x="374" y="410" type="curve" smooth="yes"/>
      <point x="349" y="399"/>
      <point x="329" y="385"/>
      <point x="316" y="366" type="curve"/>
      <point x="297" y="385"/>
      <point x="275" y="399"/>
      <point x="252" y="410" type="curve" smooth="yes"/>
      <point x="231" y="420"/>
      <point x="210" y="426"/>
      <point x="189" y="426" type="curve" smooth="yes"/>
      <point x="151" y="426"/>
      <point x="116" y="415"/>
      <point x="84" y="389" type="curve" smooth="yes"/>
      <point x="52" y="363"/>
      <point x="36" y="334"/>
      <point x="36" y="304" type="curve" smooth="yes"/>
      <point x="36" y="290"/>
      <point x="39" y="277"/>
      <point x="46" y="264" type="curve" smooth="yes"/>
      <point x="53" y="253"/>
      <point x="62" y="246"/>
      <point x="74" y="242" type="curve"/>
      <point x="155" y="292" type="line"/>
      <point x="138" y="295"/>
      <point x="124" y="301"/>
      <point x="113" y="312" type="curve" smooth="yes"/>
      <point x="103" y="321"/>
      <point x="98" y="333"/>
      <point x="98" y="346" type="curve" smooth="yes"/>
      <point x="98" y="356"/>
      <point x="103" y="365"/>
      <point x="112" y="372" type="curve" smooth="yes"/>
      <point x="121" y="379"/>
      <point x="133" y="382"/>
      <point x="146" y="382" type="curve" smooth="yes"/>
      <point x="165" y="382"/>
      <point x="186" y="372"/>
      <point x="211" y="354" type="curve" smooth="yes"/>
      <point x="236" y="335"/>
      <point x="264" y="310"/>
      <point x="292" y="277" type="curve"/>
      <point x="308" y="304"/>
      <point x="326" y="325"/>
      <point x="347" y="340" type="curve" smooth="yes"/>
      <point x="367" y="355"/>
      <point x="387" y="363"/>
      <point x="407" y="363" type="curve" smooth="yes"/>
      <point x="439" y="363"/>
      <point x="467" y="346"/>
      <point x="494" y="313" type="curve" smooth="yes"/>
      <point x="520" y="281"/>
      <point x="534" y="245"/>
      <point x="534" y="206" type="curve" smooth="yes"/>
      <point x="534" y="166"/>
      <point x="524" y="132"/>
      <point x="505" y="105" type="curve" smooth="yes"/>
      <point x="486" y="76"/>
      <point x="463" y="62"/>
      <point x="437" y="62" type="curve" smooth="yes"/>
      <point x="409" y="62"/>
      <point x="382" y="70"/>
      <point x="355" y="85" type="curve" smooth="yes"/>
      <point x="329" y="100"/>
      <point x="306" y="120"/>
      <point x="287" y="146" type="curve"/>
      <point x="287" y="173"/>
      <point x="277" y="196"/>
      <point x="258" y="215" type="curve" smooth="yes"/>
      <point x="239" y="234"/>
      <point x="216" y="244"/>
      <point x="189" y="244" type="curve" smooth="yes"/>
      <point x="150" y="244"/>
      <point x="113" y="230"/>
      <point x="80" y="199" type="curve" smooth="yes"/>
      <point x="46" y="168"/>
      <point x="30" y="133"/>
      <point x="30" y="98" type="curve" smooth="yes"/>
      <point x="30" y="73"/>
      <point x="40" y="51"/>
      <point x="61" y="30" type="curve" smooth="yes"/>
      <point x="82" y="9"/>
      <point x="104" y="-1"/>
    </contour>
  </outline>
</glyph>
<glyph name="AU" format="1">
  <advance width="765"/>
  <unicode hex="0C14"/>
  <outline>
    <contour>
      <point x="639" y="407" type="curve" smooth="yes" name="hr00"/>
      <point x="618" y="407"/>
      <point x="599" y="414"/>
      <point x="584" y="427" type="curve" smooth="yes"/>
      <point x="569" y="440"/>
      <point x="562" y="455"/>
      <point x="562" y="474" type="curve" smooth="yes"/>
      <point x="562" y="485"/>
      <point x="567" y="495"/>
      <point x="576" y="503" type="curve" smooth="yes"/>
      <point x="585" y="511"/>
      <point x="597" y="515"/>
      <point x="610" y="515" type="curve" smooth="yes"/>
      <point x="629" y="515"/>
      <point x="646" y="508"/>
      <point x="660" y="495" type="curve" smooth="yes"/>
      <point x="674" y="482"/>
      <point x="681" y="467"/>
      <point x="681" y="449" type="curve" smooth="yes"/>
      <point x="681" y="437"/>
      <point x="677" y="427"/>
      <point x="669" y="420" type="curve" smooth="yes"/>
      <point x="660" y="411"/>
      <point x="650" y="407"/>
    </contour>
    <contour>
      <point x="244" y="280" type="curve" smooth="yes"/>
      <point x="231" y="280"/>
      <point x="219" y="286"/>
      <point x="208" y="299" type="curve" smooth="yes"/>
      <point x="197" y="312"/>
      <point x="191" y="325"/>
      <point x="191" y="340" type="curve" smooth="yes"/>
      <point x="191" y="352"/>
      <point x="195" y="362"/>
      <point x="202" y="369" type="curve" smooth="yes"/>
      <point x="209" y="378"/>
      <point x="217" y="382"/>
      <point x="227" y="382" type="curve" smooth="yes"/>
      <point x="238" y="382"/>
      <point x="249" y="376"/>
      <point x="259" y="363" type="curve" smooth="yes"/>
      <point x="269" y="350"/>
      <point x="274" y="336"/>
      <point x="274" y="321" type="curve" smooth="yes"/>
      <point x="274" y="310"/>
      <point x="271" y="300"/>
      <point x="265" y="292" type="curve" smooth="yes"/>
      <point x="259" y="284"/>
      <point x="252" y="280"/>
    </contour>
    <contour>
      <point x="269" y="-1" type="curve" smooth="yes"/>
      <point x="286" y="-1"/>
      <point x="305" y="5"/>
      <point x="325" y="17" type="curve" smooth="yes"/>
      <point x="344" y="28"/>
      <point x="364" y="44"/>
      <point x="385" y="65" type="curve"/>
      <point x="405" y="44"/>
      <point x="425" y="28"/>
      <point x="444" y="17" type="curve" smooth="yes"/>
      <point x="465" y="5"/>
      <point x="483" y="-1"/>
      <point x="500" y="-1" type="curve" smooth="yes"/>
      <point x="537" y="-1"/>
      <point x="575" y="16"/>
      <point x="613" y="50" type="curve" smooth="yes"/>
      <point x="652" y="84"/>
      <point x="671" y="118"/>
      <point x="671" y="151" type="curve" smooth="yes"/>
      <point x="671" y="164"/>
      <point x="669" y="175"/>
      <point x="666" y="185" type="curve" smooth="yes"/>
      <point x="663" y="195"/>
      <point x="659" y="202"/>
      <point x="652" y="207" type="curve"/>
      <point x="589" y="145" type="line"/>
      <point x="597" y="143"/>
      <point x="603" y="139"/>
      <point x="607" y="132" type="curve" smooth="yes"/>
      <point x="612" y="125"/>
      <point x="614" y="117"/>
      <point x="614" y="109" type="curve" smooth="yes"/>
      <point x="614" y="98"/>
      <point x="608" y="88"/>
      <point x="596" y="80" type="curve"/>
      <point x="585" y="71"/>
      <point x="572" y="67"/>
      <point x="555" y="67" type="curve" smooth="yes"/>
      <point x="536" y="67"/>
      <point x="516" y="73"/>
      <point x="495" y="86" type="curve" smooth="yes"/>
      <point x="474" y="99"/>
      <point x="454" y="118"/>
      <point x="433" y="141" type="curve"/>
      <point x="412" y="121"/>
      <point x="391" y="107"/>
      <point x="369" y="96" type="curve" smooth="yes"/>
      <point x="348" y="86"/>
      <point x="327" y="80"/>
      <point x="306" y="80" type="curve" smooth="yes"/>
      <point x="281" y="80"/>
      <point x="259" y="87"/>
      <point x="242" y="102" type="curve" smooth="yes"/>
      <point x="225" y="117"/>
      <point x="216" y="136"/>
      <point x="216" y="158" type="curve" smooth="yes"/>
      <point x="216" y="172"/>
      <point x="221" y="186"/>
      <point x="231" y="199" type="curve" smooth="yes"/>
      <point x="241" y="213"/>
      <point x="254" y="225"/>
      <point x="270" y="235" type="curve"/>
      <point x="295" y="254"/>
      <point x="315" y="272"/>
      <point x="328" y="290" type="curve" smooth="yes"/>
      <point x="342" y="309"/>
      <point x="349" y="325"/>
      <point x="349" y="340" type="curve" smooth="yes"/>
      <point x="349" y="350"/>
      <point x="345" y="361"/>
      <point x="338" y="374" type="curve" smooth="yes"/>
      <point x="331" y="385"/>
      <point x="320" y="395"/>
      <point x="307" y="406" type="curve"/>
      <point x="320" y="417"/>
      <point x="331" y="430"/>
      <point x="338" y="443" type="curve" smooth="yes"/>
      <point x="345" y="456"/>
      <point x="349" y="469"/>
      <point x="349" y="480" type="curve" smooth="yes"/>
      <point x="349" y="484"/>
      <point x="348" y="489"/>
      <point x="346" y="494" type="curve" smooth="yes"/>
      <point x="344" y="499"/>
      <point x="341" y="504"/>
      <point x="338" y="509" type="curve"/>
      <point x="527" y="509" type="line"/>
      <point x="515" y="497"/>
      <point x="505" y="484"/>
      <point x="497" y="470" type="curve" smooth="yes"/>
      <point x="490" y="456"/>
      <point x="486" y="443"/>
      <point x="486" y="431" type="curve" smooth="yes"/>
      <point x="486" y="409"/>
      <point x="498" y="387"/>
      <point x="522" y="368" type="curve" smooth="yes"/>
      <point x="547" y="348"/>
      <point x="574" y="339"/>
      <point x="603" y="339" type="curve" smooth="yes"/>
      <point x="634" y="339"/>
      <point x="666" y="356"/>
      <point x="697" y="390" type="curve" smooth="yes"/>
      <point x="728" y="424"/>
      <point x="743" y="458"/>
      <point x="743" y="491" type="curve" smooth="yes"/>
      <point x="743" y="516"/>
      <point x="735" y="538"/>
      <point x="717" y="557" type="curve" smooth="yes"/>
      <point x="700" y="575"/>
      <point x="677" y="584"/>
      <point x="652" y="584" type="curve" smooth="yes"/>
      <point x="80" y="584" type="line"/>
      <point x="30" y="509" type="line"/>
      <point x="185" y="509" type="line" smooth="yes"/>
      <point x="210" y="509"/>
      <point x="233" y="503"/>
      <point x="254" y="492" type="curve" smooth="yes"/>
      <point x="275" y="480"/>
      <point x="286" y="468"/>
      <point x="286" y="455" type="curve" smooth="yes"/>
      <point x="286" y="447"/>
      <point x="283" y="440"/>
      <point x="276" y="435" type="curve" smooth="yes"/>
      <point x="269" y="429"/>
      <point x="261" y="426"/>
      <point x="251" y="426" type="curve" smooth="yes"/>
      <point x="232" y="426"/>
      <point x="215" y="430"/>
      <point x="198" y="439" type="curve" smooth="yes"/>
      <point x="182" y="447"/>
      <point x="167" y="459"/>
      <point x="153" y="476" type="curve"/>
      <point x="110" y="406" type="line"/>
      <point x="117" y="397"/>
      <point x="126" y="390"/>
      <point x="135" y="385" type="curve" smooth="yes"/>
      <point x="145" y="380"/>
      <point x="154" y="376"/>
      <point x="163" y="375" type="curve"/>
      <point x="152" y="366"/>
      <point x="144" y="355"/>
      <point x="139" y="341" type="curve"/>
      <point x="132" y="327"/>
      <point x="129" y="313"/>
      <point x="129" y="298" type="curve" smooth="yes"/>
      <point x="129" y="279"/>
      <point x="136" y="263"/>
      <point x="151" y="250" type="curve" smooth="yes"/>
      <point x="168" y="237"/>
      <point x="186" y="230"/>
      <point x="205" y="230" type="curve"/>
      <point x="188" y="215"/>
      <point x="173" y="198"/>
      <point x="162" y="179" type="curve" smooth="yes"/>
      <point x="151" y="159"/>
      <point x="146" y="140"/>
      <point x="146" y="121" type="curve" smooth="yes"/>
      <point x="146" y="94"/>
      <point x="159" y="67"/>
      <point x="187" y="39" type="curve" smooth="yes"/>
      <point x="215" y="11"/>
      <point x="242" y="-1"/>
    </contour>
  </outline>
</glyph>
<glyph name="Ka" format="1">
  <advance width="423"/>
  <unicode hex="0C15"/>
  <outline>
    <contour>
      <point x="400" y="543" type="line" name="hr00"/>
      <point x="400" y="637" type="line"/>
      <point x="106" y="460" type="line"/>
      <point x="106" y="382" type="line"/>
      <point x="84" y="359"/>
      <point x="73" y="333"/>
      <point x="73" y="304" type="curve" smooth="yes"/>
      <point x="73" y="289"/>
      <point x="80" y="273"/>
      <point x="94" y="257" type="curve" smooth="yes"/>
      <point x="106" y="242"/>
      <point x="123" y="230"/>
      <point x="146" y="218" type="curve" smooth="yes"/>
      <point x="261" y="157" type="line" smooth="yes"/>
      <point x="282" y="146"/>
      <point x="298" y="136"/>
      <point x="310" y="125" type="curve" smooth="yes"/>
      <point x="322" y="115"/>
      <point x="328" y="106"/>
      <point x="328" y="98" type="curve" smooth="yes"/>
      <point x="328" y="88"/>
      <point x="324" y="79"/>
      <point x="315" y="72" type="curve" smooth="yes"/>
      <point x="305" y="65"/>
      <point x="293" y="62"/>
      <point x="280" y="62" type="curve" smooth="yes"/>
      <point x="248" y="62"/>
      <point x="215" y="69"/>
      <point x="182" y="82" type="curve" smooth="yes"/>
      <point x="148" y="95"/>
      <point x="116" y="115"/>
      <point x="85" y="141" type="curve"/>
      <point x="30" y="73" type="line"/>
      <point x="53" y="49"/>
      <point x="81" y="31"/>
      <point x="114" y="18" type="curve" smooth="yes"/>
      <point x="146" y="5"/>
      <point x="181" y="-1"/>
      <point x="219" y="-1" type="curve" smooth="yes"/>
      <point x="270" y="-1"/>
      <point x="313" y="12"/>
      <point x="346" y="37" type="curve" smooth="yes"/>
      <point x="379" y="63"/>
      <point x="396" y="95"/>
      <point x="396" y="134" type="curve" smooth="yes"/>
      <point x="396" y="149"/>
      <point x="388" y="165"/>
      <point x="371" y="182" type="curve" smooth="yes"/>
      <point x="354" y="199"/>
      <point x="331" y="212"/>
      <point x="305" y="226" type="curve" smooth="yes"/>
      <point x="183" y="292" type="line" smooth="yes"/>
      <point x="168" y="300"/>
      <point x="156" y="310"/>
      <point x="147" y="320" type="curve" smooth="yes"/>
      <point x="139" y="329"/>
      <point x="135" y="338"/>
      <point x="135" y="346" type="curve" smooth="yes"/>
      <point x="135" y="355"/>
      <point x="139" y="362"/>
      <point x="147" y="367" type="curve" smooth="yes"/>
      <point x="156" y="372"/>
      <point x="165" y="375"/>
      <point x="176" y="375" type="curve" smooth="yes"/>
      <point x="192" y="375"/>
      <point x="208" y="369"/>
      <point x="224" y="359" type="curve" smooth="yes"/>
      <point x="241" y="348"/>
      <point x="255" y="334"/>
      <point x="267" y="315" type="curve"/>
      <point x="354" y="359" type="line"/>
      <point x="342" y="380"/>
      <point x="324" y="398"/>
      <point x="300" y="409" type="curve" smooth="yes"/>
      <point x="275" y="421"/>
      <point x="248" y="426"/>
      <point x="219" y="426" type="curve" smooth="yes"/>
      <point x="210" y="426" type="line"/>
    </contour>
  </outline>
</glyph>
<glyph name="Kha" format="1">
  <advance width="584"/>
  <unicode hex="0C16"/>
  <outline>
    <contour>
      <point x="194" y="-221" type="line" name="hr00"/>
      <point x="270" y="-171" type="line"/>
      <point x="270" y="21" type="line"/>
      <point x="194" y="-29" type="line"/>
      <point x="194" y="-219" type="line"/>
    </contour>
    <contour>
      <point x="151" y="62" type="curve" smooth="yes"/>
      <point x="134" y="62"/>
      <point x="118" y="70"/>
      <point x="103" y="87" type="curve" smooth="yes"/>
      <point x="88" y="103"/>
      <point x="81" y="121"/>
      <point x="81" y="140" type="curve" smooth="yes"/>
      <point x="81" y="152"/>
      <point x="84" y="162"/>
      <point x="91" y="169" type="curve" smooth="yes"/>
      <point x="98" y="178"/>
      <point x="106" y="182"/>
      <point x="116" y="182" type="curve" smooth="yes"/>
      <point x="128" y="182"/>
      <point x="149" y="162"/>
      <point x="184" y="127" type="curve" smooth="yes"/>
      <point x="213" y="98" type="line"/>
      <point x="208" y="87"/>
      <point x="201" y="79"/>
      <point x="190" y="72" type="curve" smooth="yes"/>
      <point x="179" y="65"/>
      <point x="166" y="62"/>
    </contour>
    <contour>
      <point x="134" y="-1" type="curve" smooth="yes"/>
      <point x="154" y="-1"/>
      <point x="174" y="5"/>
      <point x="195" y="17" type="curve" smooth="yes"/>
      <point x="215" y="28"/>
      <point x="233" y="44"/>
      <point x="250" y="65" type="curve"/>
      <point x="270" y="44"/>
      <point x="291" y="28"/>
      <point x="312" y="17" type="curve" smooth="yes"/>
      <point x="333" y="5"/>
      <point x="353" y="-1"/>
      <point x="371" y="-1" type="curve" smooth="yes"/>
      <point x="418" y="-1"/>
      <point x="462" y="21"/>
      <point x="502" y="68" type="curve" smooth="yes"/>
      <point x="542" y="114"/>
      <point x="561" y="165"/>
      <point x="561" y="219" type="curve" smooth="yes"/>
      <point x="561" y="278"/>
      <point x="546" y="330"/>
      <point x="516" y="374" type="curve" smooth="yes"/>
      <point x="487" y="417"/>
      <point x="449" y="443"/>
      <point x="402" y="451" type="curve"/>
      <point x="345" y="377" type="line"/>
      <point x="384" y="377"/>
      <point x="421" y="355"/>
      <point x="459" y="313" type="curve" smooth="yes"/>
      <point x="496" y="271"/>
      <point x="516" y="230"/>
      <point x="516" y="189" type="curve" smooth="yes"/>
      <point x="516" y="155"/>
      <point x="506" y="127"/>
      <point x="486" y="104" type="curve" smooth="yes"/>
      <point x="466" y="79"/>
      <point x="442" y="67"/>
      <point x="414" y="67" type="curve" smooth="yes"/>
      <point x="391" y="67"/>
      <point x="368" y="74"/>
      <point x="345" y="87" type="curve" smooth="yes"/>
      <point x="323" y="100"/>
      <point x="304" y="117"/>
      <point x="287" y="140" type="curve"/>
      <point x="304" y="177"/>
      <point x="312" y="218"/>
      <point x="312" y="261" type="curve" smooth="yes"/>
      <point x="312" y="302"/>
      <point x="302" y="340"/>
      <point x="281" y="375" type="curve" smooth="yes"/>
      <point x="261" y="409"/>
      <point x="239" y="426"/>
      <point x="214" y="426" type="curve" smooth="yes"/>
      <point x="185" y="426"/>
      <point x="157" y="414"/>
      <point x="128" y="391" type="curve" smooth="yes"/>
      <point x="99" y="367"/>
      <point x="85" y="344"/>
      <point x="85" y="321" type="curve" smooth="yes"/>
      <point x="85" y="312"/>
      <point x="87" y="304"/>
      <point x="91" y="295" type="curve" smooth="yes"/>
      <point x="96" y="286"/>
      <point x="102" y="279"/>
      <point x="110" y="273" type="curve"/>
      <point x="187" y="322" type="line"/>
      <point x="178" y="322"/>
      <point x="172" y="325"/>
      <point x="167" y="330" type="curve" smooth="yes"/>
      <point x="162" y="334"/>
      <point x="160" y="339"/>
      <point x="160" y="346" type="curve" smooth="yes"/>
      <point x="160" y="349"/>
      <point x="162" y="352"/>
      <point x="165" y="354" type="curve" smooth="yes"/>
      <point x="168" y="357"/>
      <point x="172" y="358"/>
      <point x="177" y="358" type="curve" smooth="yes"/>
      <point x="196" y="358"/>
      <point x="214" y="338"/>
      <point x="229" y="298" type="curve" smooth="yes"/>
      <point x="245" y="258"/>
      <point x="250" y="220"/>
      <point x="243" y="185" type="curve"/>
      <point x="228" y="203"/>
      <point x="213" y="217"/>
      <point x="198" y="227" type="curve" smooth="yes"/>
      <point x="183" y="238"/>
      <point x="170" y="244"/>
      <point x="159" y="244" type="curve" smooth="yes"/>
      <point x="127" y="244"/>
      <point x="97" y="229"/>
      <point x="70" y="199" type="curve" smooth="yes"/>
      <point x="43" y="167"/>
      <point x="30" y="133"/>
      <point x="30" y="98" type="curve" smooth="yes"/>
      <point x="30" y="71"/>
      <point x="40" y="47"/>
      <point x="60" y="28" type="curve" smooth="yes"/>
      <point x="81" y="8"/>
      <point x="106" y="-1"/>
    </contour>
  </outline>
</glyph>
<glyph name="Ga" format="1">
  <advance width="450"/>
  <unicode hex="0C17"/>
  <outline>
    <contour>
      <point x="418" y="543" type="line" name="hr00"/>
      <point x="418" y="637" type="line"/>
      <point x="124" y="460" type="line"/>
      <point x="124" y="379" type="line"/>
      <point x="113" y="370"/>
      <point x="103" y="360"/>
      <point x="93" y="347" type="curve" smooth="yes"/>
      <point x="51" y="295"/>
      <point x="30" y="232"/>
      <point x="30" y="158" type="curve" smooth="yes"/>
      <point x="30" y="122"/>
      <point x="39" y="89"/>
      <point x="58" y="59" type="curve" smooth="yes"/>
      <point x="77" y="30"/>
      <point x="101" y="10"/>
      <point x="132" y="-1" type="curve"/>
      <point x="186" y="62" type="line"/>
      <point x="157" y="69"/>
      <point x="134" y="86"/>
      <point x="116" y="114" type="curve" smooth="yes"/>
      <point x="99" y="140"/>
      <point x="90" y="171"/>
      <point x="90" y="206" type="curve" smooth="yes"/>
      <point x="90" y="243"/>
      <point x="101" y="275"/>
      <point x="125" y="303" type="curve" smooth="yes"/>
      <point x="148" y="330"/>
      <point x="179" y="347"/>
      <point x="214" y="352" type="curve"/>
      <point x="251" y="352"/>
      <point x="284" y="331"/>
      <point x="313" y="289" type="curve" smooth="yes"/>
      <point x="342" y="248"/>
      <point x="356" y="201"/>
      <point x="356" y="146" type="curve" smooth="yes"/>
      <point x="356" y="63"/>
      <point x="338" y="-8"/>
      <point x="302" y="-65" type="curve"/>
      <point x="345" y="-32"/>
      <point x="377" y="8"/>
      <point x="397" y="54" type="curve" smooth="yes"/>
      <point x="417" y="99"/>
      <point x="425" y="145"/>
      <point x="420" y="194" type="curve"/>
      <point x="420" y="251"/>
      <point x="403" y="305"/>
      <point x="366" y="354" type="curve" smooth="yes"/>
      <point x="330" y="402"/>
      <point x="289" y="426"/>
      <point x="246" y="426" type="curve" smooth="yes"/>
      <point x="238" y="426"/>
      <point x="232" y="426"/>
      <point x="227" y="425" type="curve"/>
    </contour>
  </outline>
</glyph>
<glyph name="Gha" format="1">
  <advance width="911"/>
  <unicode hex="0C18"/>
  <outline>
    <contour>
      <point x="30" y="292" type="line" name="hr00"/>
      <point x="396" y="524" type="line"/>
      <point x="396" y="618" type="line"/>
      <point x="30" y="380" type="line"/>
      <point x="30" y="294" type="line"/>
    </contour>
    <contour>
      <point x="212" y="-208" type="line"/>
      <point x="287" y="-158" type="line"/>
      <point x="287" y="32" type="line"/>
      <point x="212" y="-18" type="line"/>
    </contour>
    <contour>
      <point x="519" y="73" type="curve"/>
      <point x="530" y="55"/>
      <point x="545" y="40"/>
      <point x="562" y="27" type="curve" smooth="yes"/>
      <point x="589" y="8"/>
      <point x="619" y="-1"/>
      <point x="650" y="-1" type="curve" smooth="yes"/>
      <point x="709" y="-1"/>
      <point x="763" y="23"/>
      <point x="813" y="72" type="curve" smooth="yes"/>
      <point x="863" y="121"/>
      <point x="888" y="174"/>
      <point x="888" y="231" type="curve" smooth="yes"/>
      <point x="888" y="284"/>
      <point x="869" y="332"/>
      <point x="829" y="370" type="curve" smooth="yes"/>
      <point x="790" y="408"/>
      <point x="742" y="426"/>
      <point x="686" y="426" type="curve"/>
      <point x="643" y="352" type="line"/>
      <point x="694" y="352"/>
      <point x="737" y="335"/>
      <point x="772" y="300" type="curve" smooth="yes"/>
      <point x="807" y="266"/>
      <point x="825" y="225"/>
      <point x="825" y="176" type="curve" smooth="yes"/>
      <point x="825" y="145"/>
      <point x="812" y="119"/>
      <point x="787" y="96" type="curve" smooth="yes"/>
      <point x="763" y="74"/>
      <point x="733" y="62"/>
      <point x="698" y="62" type="curve" smooth="yes"/>
      <point x="666" y="62"/>
      <point x="636" y="73"/>
      <point x="608" y="96" type="curve" smooth="yes"/>
      <point x="589" y="112"/>
      <point x="574" y="131"/>
      <point x="561" y="152" type="curve"/>
      <point x="569" y="177"/>
      <point x="573" y="205"/>
      <point x="573" y="236" type="curve" smooth="yes"/>
      <point x="573" y="279"/>
      <point x="558" y="319"/>
      <point x="527" y="355" type="curve" smooth="yes"/>
      <point x="497" y="391"/>
      <point x="457" y="415"/>
      <point x="408" y="426" type="curve"/>
      <point x="333" y="358" type="line"/>
      <point x="388" y="348"/>
      <point x="434" y="326"/>
      <point x="469" y="292" type="curve" smooth="yes"/>
      <point x="504" y="258"/>
      <point x="522" y="219"/>
      <point x="522" y="176" type="curve" smooth="yes"/>
      <point x="522" y="145"/>
      <point x="512" y="118"/>
      <point x="492" y="96" type="curve" smooth="yes"/>
      <point x="472" y="73"/>
      <point x="448" y="62"/>
      <point x="420" y="62" type="curve" smooth="yes"/>
      <point x="403" y="62"/>
      <point x="386" y="69"/>
      <point x="369" y="79" type="curve" smooth="yes"/>
      <point x="351" y="90"/>
      <point x="335" y="103"/>
      <point x="318" y="122" type="curve" smooth="yes"/>
      <point x="269" y="177" type="line"/>
      <point x="254" y="198"/>
      <point x="239" y="215"/>
      <point x="223" y="226" type="curve" smooth="yes"/>
      <point x="206" y="238"/>
      <point x="190" y="244"/>
      <point x="177" y="244" type="curve" smooth="yes"/>
      <point x="143" y="244"/>
      <point x="110" y="228"/>
      <point x="77" y="196" type="curve" smooth="yes"/>
      <point x="46" y="165"/>
      <point x="30" y="132"/>
      <point x="30" y="98" type="curve" smooth="yes"/>
      <point x="30" y="71"/>
      <point x="40" y="47"/>
      <point x="60" y="28" type="curve" smooth="yes"/>
      <point x="81" y="8"/>
      <point x="106" y="-1"/>
      <point x="135" y="-1" type="curve" smooth="yes"/>
      <point x="154" y="-1"/>
      <point x="173" y="5"/>
      <point x="194" y="17" type="curve" smooth="yes"/>
      <point x="214" y="28"/>
      <point x="233" y="44"/>
      <point x="250" y="65" type="curve"/>
      <point x="270" y="44"/>
      <point x="290" y="28"/>
      <point x="310" y="17" type="curve" smooth="yes"/>
      <point x="331" y="5"/>
      <point x="349" y="-1"/>
      <point x="366" y="-1" type="curve" smooth="yes"/>
      <point x="425" y="-1"/>
      <point x="475" y="22"/>
      <point x="514" y="67" type="curve" smooth="yes"/>
      <point x="516" y="69"/>
      <point x="518" y="71"/>
    </contour>
    <contour>
      <point x="198" y="72" type="curve" smooth="yes"/>
      <point x="185" y="65"/>
      <point x="170" y="62"/>
      <point x="153" y="62" type="curve" smooth="yes"/>
      <point x="136" y="62"/>
      <point x="121" y="69"/>
      <point x="108" y="84" type="curve"/>
      <point x="94" y="97"/>
      <point x="87" y="111"/>
      <point x="87" y="128" type="curve" smooth="yes"/>
      <point x="87" y="143"/>
      <point x="92" y="155"/>
      <point x="101" y="165" type="curve" smooth="yes"/>
      <point x="110" y="176"/>
      <point x="122" y="182"/>
      <point x="135" y="182" type="curve" smooth="yes"/>
      <point x="142" y="182"/>
      <point x="148" y="179"/>
      <point x="155" y="173" type="curve" smooth="yes"/>
      <point x="162" y="168"/>
      <point x="169" y="160"/>
      <point x="176" y="150" type="curve"/>
      <point x="225" y="98" type="line"/>
      <point x="220" y="87"/>
      <point x="211" y="79"/>
    </contour>
  </outline>
</glyph>
<glyph name="Ca" format="1">
  <advance width="748"/>
  <unicode hex="0C1A"/>
  <outline>
    <contour>
      <point x="693" y="519" type="line" name="hr00"/>
      <point x="693" y="613" type="line"/>
      <point x="400" y="436" type="line"/>
      <point x="400" y="337" type="line"/>
      <point x="425" y="353" type="line"/>
      <point x="425" y="352" type="line"/>
      <point x="468" y="352" type="line" smooth="yes"/>
      <point x="521" y="352"/>
      <point x="569" y="334"/>
      <point x="614" y="297" type="curve" smooth="yes"/>
      <point x="659" y="260"/>
      <point x="681" y="219"/>
      <point x="681" y="176" type="curve" smooth="yes"/>
      <point x="681" y="148"/>
      <point x="671" y="124"/>
      <point x="652" y="104" type="curve" smooth="yes"/>
      <point x="634" y="84"/>
      <point x="612" y="74"/>
      <point x="585" y="74" type="curve" smooth="yes"/>
      <point x="562" y="74"/>
      <point x="539" y="81"/>
      <point x="516" y="94" type="curve" smooth="yes"/>
      <point x="494" y="106"/>
      <point x="474" y="124"/>
      <point x="457" y="148" type="curve"/>
      <point x="434" y="121"/>
      <point x="410" y="100"/>
      <point x="387" y="85" type="curve" smooth="yes"/>
      <point x="364" y="70"/>
      <point x="343" y="62"/>
      <point x="323" y="62" type="curve" smooth="yes"/>
      <point x="302" y="62"/>
      <point x="283" y="73"/>
      <point x="266" y="96" type="curve" smooth="yes"/>
      <point x="248" y="119"/>
      <point x="239" y="143"/>
      <point x="239" y="170" type="curve" smooth="yes"/>
      <point x="239" y="199"/>
      <point x="249" y="226"/>
      <point x="268" y="249" type="curve" smooth="yes"/>
      <point x="287" y="273"/>
      <point x="314" y="292"/>
      <point x="347" y="305" type="curve"/>
      <point x="87" y="305" type="line"/>
      <point x="30" y="230" type="line"/>
      <point x="199" y="230" type="line"/>
      <point x="189" y="221"/>
      <point x="181" y="208"/>
      <point x="175" y="191" type="curve"/>
      <point x="168" y="176"/>
      <point x="165" y="159"/>
      <point x="165" y="140" type="curve" smooth="yes"/>
      <point x="165" y="105"/>
      <point x="176" y="72"/>
      <point x="202" y="43" type="curve" smooth="yes"/>
      <point x="228" y="13"/>
      <point x="257" y="-1"/>
      <point x="287" y="-1" type="curve" smooth="yes"/>
      <point x="304" y="-1"/>
      <point x="324" y="5"/>
      <point x="346" y="15" type="curve" smooth="yes"/>
      <point x="369" y="26"/>
      <point x="392" y="40"/>
      <point x="415" y="60" type="curve"/>
      <point x="431" y="41"/>
      <point x="451" y="26"/>
      <point x="475" y="15" type="curve" smooth="yes"/>
      <point x="498" y="4"/>
      <point x="523" y="-1"/>
      <point x="548" y="-1" type="curve" smooth="yes"/>
      <point x="591" y="-1"/>
      <point x="633" y="20"/>
      <point x="671" y="64" type="curve" smooth="yes"/>
      <point x="709" y="107"/>
      <point x="726" y="155"/>
      <point x="726" y="206" type="curve" smooth="yes"/>
      <point x="726" y="261"/>
      <point x="704" y="311"/>
      <point x="661" y="357" type="curve" smooth="yes"/>
      <point x="623" y="397"/>
      <point x="583" y="420"/>
      <point x="540" y="425" type="curve"/>
    </contour>
  </outline>
</glyph>
<glyph name="Jha" format="1">
  <advance width="1139"/>
  <unicode hex="0C1D"/>
  <outline>
    <contour>
      <point x="128" y="354" type="line" name="hr00"/>
      <point x="97" y="333"/>
      <point x="73" y="305"/>
      <point x="56" y="270" type="curve" smooth="yes"/>
      <point x="39" y="235"/>
      <point x="30" y="198"/>
      <point x="30" y="158" type="curve" smooth="yes"/>
      <point x="30" y="119"/>
      <point x="49" y="82"/>
      <point x="88" y="49" type="curve" smooth="yes"/>
      <point x="127" y="16"/>
      <point x="169" y="-1"/>
      <point x="214" y="-1" type="curve" smooth="yes"/>
      <point x="281" y="-1"/>
      <point x="340" y="23"/>
      <point x="392" y="70" type="curve" smooth="yes"/>
      <point x="401" y="79"/>
      <point x="410" y="88"/>
      <point x="417" y="97" type="curve"/>
      <point x="432" y="70"/>
      <point x="452" y="48"/>
      <point x="479" y="30" type="curve" smooth="yes"/>
      <point x="512" y="9"/>
      <point x="548" y="-1"/>
      <point x="586" y="-1" type="curve" smooth="yes"/>
      <point x="639" y="-1"/>
      <point x="689" y="22"/>
      <point x="733" y="72" type="curve" smooth="yes"/>
      <point x="741" y="81" type="line"/>
      <point x="754" y="60"/>
      <point x="770" y="42"/>
      <point x="790" y="27" type="curve" smooth="yes"/>
      <point x="817" y="8"/>
      <point x="846" y="-1"/>
      <point x="877" y="-1" type="curve" smooth="yes"/>
      <point x="936" y="-1"/>
      <point x="991" y="23"/>
      <point x="1041" y="72" type="curve" smooth="yes"/>
      <point x="1091" y="121"/>
      <point x="1116" y="174"/>
      <point x="1116" y="231" type="curve" smooth="yes"/>
      <point x="1116" y="284"/>
      <point x="1097" y="332"/>
      <point x="1057" y="370" type="curve" smooth="yes"/>
      <point x="1018" y="408"/>
      <point x="969" y="426"/>
      <point x="914" y="426" type="curve"/>
      <point x="870" y="352" type="line"/>
      <point x="921" y="352"/>
      <point x="965" y="335"/>
      <point x="1000" y="300" type="curve" smooth="yes"/>
      <point x="1035" y="266"/>
      <point x="1053" y="225"/>
      <point x="1053" y="176" type="curve" smooth="yes"/>
      <point x="1053" y="145"/>
      <point x="1040" y="119"/>
      <point x="1015" y="96" type="curve" smooth="yes"/>
      <point x="991" y="74"/>
      <point x="961" y="62"/>
      <point x="926" y="62" type="curve" smooth="yes"/>
      <point x="893" y="62"/>
      <point x="863" y="73"/>
      <point x="836" y="96" type="curve" smooth="yes"/>
      <point x="815" y="113"/>
      <point x="799" y="133"/>
      <point x="786" y="156" type="curve"/>
      <point x="795" y="180"/>
      <point x="800" y="205"/>
      <point x="800" y="231" type="curve" smooth="yes"/>
      <point x="800" y="284"/>
      <point x="781" y="332"/>
      <point x="741" y="370" type="curve" smooth="yes"/>
      <point x="702" y="408"/>
      <point x="653" y="426"/>
      <point x="598" y="426" type="curve"/>
      <point x="554" y="352" type="line"/>
      <point x="605" y="352"/>
      <point x="649" y="335"/>
      <point x="684" y="300" type="curve" smooth="yes"/>
      <point x="719" y="266"/>
      <point x="736" y="225"/>
      <point x="736" y="176" type="curve" smooth="yes"/>
      <point x="736" y="145"/>
      <point x="724" y="118"/>
      <point x="699" y="96" type="curve" smooth="yes"/>
      <point x="674" y="73"/>
      <point x="645" y="62"/>
      <point x="610" y="62" type="curve" smooth="yes"/>
      <point x="573" y="62"/>
      <point x="538" y="74"/>
      <point x="507" y="99" type="curve" smooth="yes"/>
      <point x="486" y="116"/>
      <point x="468" y="135"/>
      <point x="455" y="158" type="curve"/>
      <point x="465" y="183"/>
      <point x="470" y="209"/>
      <point x="470" y="236" type="curve" smooth="yes"/>
      <point x="470" y="283"/>
      <point x="445" y="326"/>
      <point x="395" y="367" type="curve" smooth="yes"/>
      <point x="351" y="402"/>
      <point x="304" y="421"/>
      <point x="255" y="425" type="curve"/>
      <point x="462" y="553" type="line"/>
      <point x="462" y="647" type="line"/>
      <point x="169" y="470" type="line"/>
      <point x="169" y="398" type="line"/>
    </contour>
    <contour>
      <point x="689" y="-221" type="line"/>
      <point x="763" y="-171" type="line"/>
      <point x="763" y="26" type="line"/>
      <point x="689" y="-23" type="line"/>
    </contour>
    <contour>
      <point x="361" y="92" type="curve" smooth="yes"/>
      <point x="331" y="64"/>
      <point x="298" y="50"/>
      <point x="262" y="50" type="curve" smooth="yes"/>
      <point x="215" y="50"/>
      <point x="176" y="67"/>
      <point x="146" y="100" type="curve" smooth="yes"/>
      <point x="115" y="133"/>
      <point x="100" y="174"/>
      <point x="100" y="225" type="curve" smooth="yes"/>
      <point x="100" y="251"/>
      <point x="103" y="275"/>
      <point x="113" y="298" type="curve" smooth="yes"/>
      <point x="122" y="319"/>
      <point x="136" y="337"/>
      <point x="152" y="352" type="curve"/>
      <point x="214" y="352" type="line" smooth="yes"/>
      <point x="262" y="352"/>
      <point x="305" y="333"/>
      <point x="345" y="298" type="curve" smooth="yes"/>
      <point x="385" y="262"/>
      <point x="406" y="224"/>
      <point x="406" y="183" type="curve" smooth="yes"/>
      <point x="406" y="150"/>
      <point x="391" y="119"/>
    </contour>
  </outline>
</glyph>
<glyph name="DDha" format="1">
  <advance width="608"/>
  <unicode hex="0C22"/>
  <outline>
    <contour>
      <point x="498" y="553" type="line" name="hr00"/>
      <point x="498" y="647" type="line"/>
      <point x="205" y="470" type="line"/>
      <point x="205" y="414" type="line"/>
      <point x="156" y="389"/>
      <point x="116" y="356"/>
      <point x="85" y="316" type="curve" smooth="yes"/>
      <point x="48" y="269"/>
      <point x="30" y="221"/>
      <point x="30" y="170" type="curve" smooth="yes"/>
      <point x="30" y="129"/>
      <point x="44" y="90"/>
      <point x="73" y="53" type="curve" smooth="yes"/>
      <point x="101" y="17"/>
      <point x="132" y="-1"/>
      <point x="165" y="-1" type="curve" smooth="yes"/>
      <point x="182" y="-1"/>
      <point x="201" y="4"/>
      <point x="221" y="15" type="curve" smooth="yes"/>
      <point x="242" y="26"/>
      <point x="261" y="41"/>
      <point x="280" y="60" type="curve"/>
      <point x="296" y="41"/>
      <point x="316" y="26"/>
      <point x="341" y="15" type="curve" smooth="yes"/>
      <point x="365" y="4"/>
      <point x="391" y="-1"/>
      <point x="420" y="-1" type="curve" smooth="yes"/>
      <point x="456" y="-1"/>
      <point x="493" y="16"/>
      <point x="530" y="50" type="curve" smooth="yes"/>
      <point x="567" y="84"/>
      <point x="585" y="118"/>
      <point x="585" y="151" type="curve" smooth="yes"/>
      <point x="585" y="164"/>
      <point x="583" y="177"/>
      <point x="578" y="188" type="curve" smooth="yes"/>
      <point x="574" y="199"/>
      <point x="568" y="207"/>
      <point x="560" y="214" type="curve"/>
      <point x="484" y="139" type="line"/>
      <point x="494" y="139"/>
      <point x="502" y="136"/>
      <point x="508" y="129" type="curve" smooth="yes"/>
      <point x="513" y="122"/>
      <point x="516" y="114"/>
      <point x="516" y="104" type="curve" smooth="yes"/>
      <point x="516" y="93"/>
      <point x="509" y="83"/>
      <point x="496" y="75" type="curve" smooth="yes"/>
      <point x="483" y="66"/>
      <point x="468" y="62"/>
      <point x="450" y="62" type="curve" smooth="yes"/>
      <point x="429" y="62"/>
      <point x="408" y="68"/>
      <point x="385" y="81" type="curve" smooth="yes"/>
      <point x="363" y="94"/>
      <point x="342" y="112"/>
      <point x="322" y="136" type="curve"/>
      <point x="305" y="116"/>
      <point x="286" y="101"/>
      <point x="265" y="90" type="curve" smooth="yes"/>
      <point x="242" y="79"/>
      <point x="219" y="74"/>
      <point x="195" y="74" type="curve" smooth="yes"/>
      <point x="170" y="74"/>
      <point x="148" y="87"/>
      <point x="126" y="114" type="curve" smooth="yes"/>
      <point x="105" y="140"/>
      <point x="93" y="169"/>
      <point x="93" y="200" type="curve" smooth="yes"/>
      <point x="93" y="232"/>
      <point x="102" y="261"/>
      <point x="121" y="288" type="curve" smooth="yes"/>
      <point x="139" y="315"/>
      <point x="164" y="337"/>
      <point x="195" y="352" type="curve"/>
      <point x="377" y="352" type="line" smooth="yes"/>
      <point x="386" y="352"/>
      <point x="393" y="349"/>
      <point x="398" y="344" type="curve" smooth="yes"/>
      <point x="403" y="340"/>
      <point x="406" y="334"/>
      <point x="406" y="326" type="curve"/>
      <point x="482" y="389" type="line"/>
      <point x="475" y="400"/>
      <point x="468" y="409"/>
      <point x="461" y="416" type="curve" smooth="yes"/>
      <point x="453" y="423"/>
      <point x="446" y="426"/>
      <point x="439" y="426" type="curve" smooth="yes"/>
      <point x="293" y="426" type="line"/>
    </contour>
    <contour>
      <point x="236" y="-221" type="line"/>
      <point x="312" y="-171" type="line"/>
      <point x="312" y="21" type="line"/>
      <point x="236" y="-29" type="line"/>
      <point x="236" y="-219" type="line"/>
    </contour>
  </outline>
</glyph>
<glyph name="Dha" format="1">
  <advance width="601"/>
  <unicode hex="0C27"/>
  <outline>
    <contour>
      <point x="505" y="553" type="line" name="hr00"/>
      <point x="505" y="647" type="line"/>
      <point x="211" y="470" type="line"/>
      <point x="211" y="419" type="line"/>
      <point x="169" y="408"/>
      <point x="132" y="384"/>
      <point x="99" y="347" type="curve" smooth="yes"/>
      <point x="53" y="295"/>
      <point x="30" y="232"/>
      <point x="30" y="158" type="curve" smooth="yes"/>
      <point x="30" y="119"/>
      <point x="43" y="82"/>
      <point x="68" y="49" type="curve" smooth="yes"/>
      <point x="94" y="16"/>
      <point x="122" y="-1"/>
      <point x="152" y="-1" type="curve" smooth="yes"/>
      <point x="173" y="-1"/>
      <point x="194" y="6"/>
      <point x="215" y="17" type="curve" smooth="yes"/>
      <point x="237" y="29"/>
      <point x="257" y="44"/>
      <point x="274" y="64" type="curve"/>
      <point x="291" y="44"/>
      <point x="311" y="29"/>
      <point x="334" y="17" type="curve" smooth="yes"/>
      <point x="356" y="6"/>
      <point x="378" y="-1"/>
      <point x="401" y="-1" type="curve" smooth="yes"/>
      <point x="442" y="-1"/>
      <point x="482" y="22"/>
      <point x="521" y="67" type="curve" smooth="yes"/>
      <point x="559" y="112"/>
      <point x="578" y="158"/>
      <point x="578" y="206" type="curve" smooth="yes"/>
      <point x="578" y="261"/>
      <point x="556" y="311"/>
      <point x="510" y="357" type="curve" smooth="yes"/>
      <point x="463" y="404"/>
      <point x="413" y="426"/>
      <point x="359" y="426" type="curve" smooth="yes"/>
      <point x="300" y="426" type="line"/>
    </contour>
    <contour>
      <point x="230" y="-214" type="line"/>
      <point x="306" y="-165" type="line"/>
      <point x="306" y="26" type="line"/>
      <point x="230" y="-23" type="line"/>
    </contour>
    <contour>
      <point x="254" y="92" type="curve" smooth="yes"/>
      <point x="231" y="79"/>
      <point x="210" y="74"/>
      <point x="189" y="74" type="curve" smooth="yes"/>
      <point x="160" y="74"/>
      <point x="137" y="84"/>
      <point x="117" y="104" type="curve" smooth="yes"/>
      <point x="97" y="124"/>
      <point x="87" y="147"/>
      <point x="87" y="175" type="curve" smooth="yes"/>
      <point x="87" y="224"/>
      <point x="108" y="265"/>
      <point x="147" y="299" type="curve" smooth="yes"/>
      <point x="187" y="333"/>
      <point x="234" y="352"/>
      <point x="291" y="352" type="curve" smooth="yes"/>
      <point x="351" y="352"/>
      <point x="407" y="334"/>
      <point x="458" y="297" type="curve" smooth="yes"/>
      <point x="509" y="260"/>
      <point x="534" y="219"/>
      <point x="534" y="176" type="curve" smooth="yes"/>
      <point x="534" y="146"/>
      <point x="525" y="121"/>
      <point x="508" y="100" type="curve" smooth="yes"/>
      <point x="490" y="78"/>
      <point x="469" y="67"/>
      <point x="444" y="67" type="curve" smooth="yes"/>
      <point x="422" y="67"/>
      <point x="400" y="74"/>
      <point x="378" y="89" type="curve" smooth="yes"/>
      <point x="356" y="103"/>
      <point x="335" y="123"/>
      <point x="316" y="148" type="curve"/>
      <point x="295" y="124"/>
      <point x="275" y="104"/>
    </contour>
  </outline>
</glyph>
<glyph name="Na" format="1">
  <advance width="603"/>
  <unicode hex="0C28"/>
  <outline>
    <contour>
      <point x="355" y="352" type="line" smooth="yes" name="hr00"/>
      <point x="399" y="352"/>
      <point x="440" y="335"/>
      <point x="479" y="300" type="curve" smooth="yes"/>
      <point x="517" y="267"/>
      <point x="536" y="230"/>
      <point x="536" y="189" type="curve" smooth="yes"/>
      <point x="536" y="154"/>
      <point x="524" y="124"/>
      <point x="502" y="100" type="curve" smooth="yes"/>
      <point x="479" y="75"/>
      <point x="453" y="62"/>
      <point x="421" y="62" type="curve" smooth="yes"/>
      <point x="405" y="62"/>
      <point x="390" y="66"/>
      <point x="375" y="74" type="curve" smooth="yes"/>
      <point x="360" y="81"/>
      <point x="348" y="92"/>
      <point x="336" y="105" type="curve" smooth="yes"/>
      <point x="270" y="177" type="line"/>
      <point x="255" y="198"/>
      <point x="240" y="214"/>
      <point x="226" y="226" type="curve" smooth="yes"/>
      <point x="213" y="237"/>
      <point x="201" y="244"/>
      <point x="191" y="244" type="curve" smooth="yes"/>
      <point x="161" y="244"/>
      <point x="128" y="229"/>
      <point x="91" y="195" type="curve" smooth="yes"/>
      <point x="55" y="162"/>
      <point x="37" y="131"/>
      <point x="37" y="104" type="curve" smooth="yes"/>
      <point x="37" y="24" type="line" smooth="yes"/>
      <point x="37" y="15"/>
      <point x="35" y="7"/>
      <point x="30" y="-1" type="curve"/>
      <point x="118" y="-1" type="line"/>
      <point x="118" y="158" type="line" smooth="yes"/>
      <point x="118" y="166"/>
      <point x="120" y="173"/>
      <point x="123" y="179" type="curve" smooth="yes"/>
      <point x="126" y="185"/>
      <point x="131" y="188"/>
      <point x="136" y="188" type="curve" smooth="yes"/>
      <point x="143" y="188"/>
      <point x="153" y="184"/>
      <point x="165" y="175" type="curve" smooth="yes"/>
      <point x="176" y="167"/>
      <point x="188" y="155"/>
      <point x="201" y="139" type="curve" smooth="yes"/>
      <point x="262" y="65" type="line" smooth="yes"/>
      <point x="280" y="44"/>
      <point x="300" y="28"/>
      <point x="322" y="17" type="curve" smooth="yes"/>
      <point x="345" y="5"/>
      <point x="368" y="-1"/>
      <point x="391" y="-1" type="curve" smooth="yes"/>
      <point x="440" y="-1"/>
      <point x="483" y="22"/>
      <point x="522" y="68" type="curve" smooth="yes"/>
      <point x="560" y="113"/>
      <point x="581" y="166"/>
      <point x="581" y="225" type="curve" smooth="yes"/>
      <point x="581" y="280"/>
      <point x="562" y="328"/>
      <point x="525" y="367" type="curve" smooth="yes"/>
      <point x="488" y="406"/>
      <point x="444" y="426"/>
      <point x="391" y="426" type="curve" smooth="yes"/>
      <point x="301" y="426" type="line"/>
      <point x="501" y="546" type="line"/>
      <point x="501" y="640" type="line"/>
      <point x="167" y="443" type="line"/>
      <point x="167" y="344" type="line"/>
      <point x="180" y="352" type="line"/>
    </contour>
  </outline>
</glyph>
<glyph name="Pa" format="1">
  <advance width="597"/>
  <unicode hex="0C2A"/>
  <outline>
    <contour>
      <point x="153" y="62" type="curve" smooth="yes" name="hr00"/>
      <point x="137" y="62"/>
      <point x="122" y="69"/>
      <point x="109" y="84" type="curve"/>
      <point x="95" y="97"/>
      <point x="88" y="111"/>
      <point x="88" y="128" type="curve" smooth="yes"/>
      <point x="88" y="143"/>
      <point x="93" y="155"/>
      <point x="102" y="165" type="curve" smooth="yes"/>
      <point x="111" y="176"/>
      <point x="123" y="182"/>
      <point x="136" y="182" type="curve" smooth="yes"/>
      <point x="143" y="182"/>
      <point x="149" y="179"/>
      <point x="156" y="173" type="curve" smooth="yes"/>
      <point x="163" y="168"/>
      <point x="170" y="160"/>
      <point x="177" y="150" type="curve"/>
      <point x="226" y="98" type="line"/>
      <point x="221" y="87"/>
      <point x="212" y="79"/>
      <point x="199" y="72" type="curve" smooth="yes"/>
      <point x="186" y="65"/>
      <point x="170" y="62"/>
    </contour>
    <contour>
      <point x="135" y="-1" type="curve" smooth="yes"/>
      <point x="154" y="-1"/>
      <point x="174" y="5"/>
      <point x="195" y="17" type="curve" smooth="yes"/>
      <point x="215" y="28"/>
      <point x="234" y="44"/>
      <point x="251" y="65" type="curve"/>
      <point x="271" y="44"/>
      <point x="291" y="28"/>
      <point x="311" y="17" type="curve" smooth="yes"/>
      <point x="332" y="5"/>
      <point x="350" y="-1"/>
      <point x="367" y="-1" type="curve" smooth="yes"/>
      <point x="426" y="-1"/>
      <point x="476" y="22"/>
      <point x="515" y="67" type="curve" smooth="yes"/>
      <point x="554" y="112"/>
      <point x="574" y="168"/>
      <point x="574" y="236" type="curve" smooth="yes"/>
      <point x="574" y="279"/>
      <point x="559" y="319"/>
      <point x="528" y="355" type="curve" smooth="yes"/>
      <point x="498" y="391"/>
      <point x="458" y="415"/>
      <point x="409" y="426" type="curve"/>
      <point x="334" y="358" type="line"/>
      <point x="389" y="348"/>
      <point x="435" y="326"/>
      <point x="470" y="292" type="curve" smooth="yes"/>
      <point x="505" y="258"/>
      <point x="523" y="219"/>
      <point x="523" y="176" type="curve" smooth="yes"/>
      <point x="523" y="145"/>
      <point x="513" y="118"/>
      <point x="493" y="96" type="curve" smooth="yes"/>
      <point x="473" y="73"/>
      <point x="449" y="62"/>
      <point x="421" y="62" type="curve" smooth="yes"/>
      <point x="404" y="62"/>
      <point x="387" y="69"/>
      <point x="370" y="79" type="curve" smooth="yes"/>
      <point x="352" y="90"/>
      <point x="336" y="103"/>
      <point x="319" y="122" type="curve" smooth="yes"/>
      <point x="270" y="177" type="line"/>
      <point x="255" y="198"/>
      <point x="240" y="215"/>
      <point x="224" y="226" type="curve" smooth="yes"/>
      <point x="207" y="238"/>
      <point x="191" y="244"/>
      <point x="178" y="244" type="curve" smooth="yes"/>
      <point x="144" y="244"/>
      <point x="111" y="228"/>
      <point x="78" y="196" type="curve" smooth="yes"/>
      <point x="47" y="165"/>
      <point x="31" y="132"/>
      <point x="31" y="98" type="curve" smooth="yes"/>
      <point x="31" y="71"/>
      <point x="41" y="47"/>
      <point x="61" y="28" type="curve" smooth="yes"/>
      <point x="82" y="8"/>
      <point x="107" y="-1"/>
    </contour>
    <contour>
      <point x="30" y="292" type="line"/>
      <point x="396" y="524" type="line"/>
      <point x="396" y="618" type="line"/>
      <point x="30" y="380" type="line"/>
      <point x="30" y="294" type="line"/>
    </contour>
  </outline>
</glyph>
<glyph name="Bha" format="1">
  <advance width="685"/>
  <unicode hex="0C2D"/>
  <outline>
    <contour>
      <point x="662" y="524" type="line" name="hr00"/>
      <point x="662" y="618" type="line"/>
      <point x="369" y="441" type="line"/>
      <point x="369" y="342" type="line"/>
      <point x="384" y="352" type="line"/>
      <point x="414" y="352" type="line" smooth="yes"/>
      <point x="452" y="352"/>
      <point x="484" y="336"/>
      <point x="511" y="304" type="curve" smooth="yes"/>
      <point x="539" y="272"/>
      <point x="553" y="234"/>
      <point x="553" y="189" type="curve" smooth="yes"/>
      <point x="553" y="155"/>
      <point x="543" y="127"/>
      <point x="524" y="104" type="curve" smooth="yes"/>
      <point x="505" y="79"/>
      <point x="483" y="67"/>
      <point x="456" y="67" type="curve" smooth="yes"/>
      <point x="435" y="67"/>
      <point x="414" y="73"/>
      <point x="392" y="86" type="curve" smooth="yes"/>
      <point x="371" y="99"/>
      <point x="350" y="118"/>
      <point x="329" y="141" type="curve"/>
      <point x="308" y="121"/>
      <point x="287" y="106"/>
      <point x="266" y="96" type="curve" smooth="yes"/>
      <point x="245" y="85"/>
      <point x="226" y="80"/>
      <point x="207" y="80" type="curve" smooth="yes"/>
      <point x="182" y="80"/>
      <point x="161" y="87"/>
      <point x="143" y="102" type="curve" smooth="yes"/>
      <point x="126" y="117"/>
      <point x="117" y="136"/>
      <point x="117" y="158" type="curve" smooth="yes"/>
      <point x="117" y="172"/>
      <point x="122" y="186"/>
      <point x="132" y="199" type="curve" smooth="yes"/>
      <point x="142" y="213"/>
      <point x="155" y="225"/>
      <point x="172" y="235" type="curve"/>
      <point x="197" y="254"/>
      <point x="217" y="272"/>
      <point x="230" y="290" type="curve" smooth="yes"/>
      <point x="244" y="309"/>
      <point x="251" y="325"/>
      <point x="251" y="340" type="curve" smooth="yes"/>
      <point x="251" y="363"/>
      <point x="243" y="384"/>
      <point x="226" y="401" type="curve" smooth="yes"/>
      <point x="209" y="418"/>
      <point x="188" y="426"/>
      <point x="165" y="426" type="curve" smooth="yes"/>
      <point x="132" y="426"/>
      <point x="101" y="413"/>
      <point x="73" y="386" type="curve" smooth="yes"/>
      <point x="44" y="359"/>
      <point x="30" y="329"/>
      <point x="30" y="298" type="curve" smooth="yes"/>
      <point x="30" y="279"/>
      <point x="38" y="263"/>
      <point x="53" y="250" type="curve" smooth="yes"/>
      <point x="69" y="237"/>
      <point x="87" y="230"/>
      <point x="107" y="230" type="curve"/>
      <point x="89" y="216"/>
      <point x="76" y="199"/>
      <point x="65" y="179" type="curve" smooth="yes"/>
      <point x="55" y="160"/>
      <point x="49" y="140"/>
      <point x="49" y="121" type="curve" smooth="yes"/>
      <point x="49" y="96"/>
      <point x="64" y="70"/>
      <point x="94" y="44" type="curve" smooth="yes"/>
      <point x="125" y="17"/>
      <point x="155" y="5"/>
      <point x="184" y="5" type="curve" smooth="yes"/>
      <point x="199" y="5"/>
      <point x="217" y="10"/>
      <point x="236" y="20" type="curve" smooth="yes"/>
      <point x="256" y="31"/>
      <point x="275" y="46"/>
      <point x="292" y="65" type="curve"/>
      <point x="313" y="44"/>
      <point x="332" y="28"/>
      <point x="351" y="17" type="curve" smooth="yes"/>
      <point x="372" y="5"/>
      <point x="390" y="-1"/>
      <point x="407" y="-1" type="curve" smooth="yes"/>
      <point x="456" y="-1"/>
      <point x="501" y="22"/>
      <point x="542" y="68" type="curve" smooth="yes"/>
      <point x="583" y="115"/>
      <point x="603" y="165"/>
      <point x="603" y="219" type="curve" smooth="yes"/>
      <point x="603" y="270"/>
      <point x="584" y="317"/>
      <point x="546" y="361" type="curve" smooth="yes"/>
      <point x="525" y="385"/>
      <point x="503" y="402"/>
      <point x="481" y="412" type="curve"/>
    </contour>
    <contour>
      <point x="255" y="-208" type="line"/>
      <point x="330" y="-158" type="line"/>
      <point x="330" y="32" type="line"/>
      <point x="255" y="-18" type="line"/>
    </contour>
    <contour>
      <point x="168" y="292" type="curve" smooth="yes"/>
      <point x="162" y="284"/>
      <point x="155" y="280"/>
      <point x="146" y="280" type="curve" smooth="yes"/>
      <point x="133" y="280"/>
      <point x="121" y="286"/>
      <point x="111" y="299" type="curve"/>
      <point x="99" y="312"/>
      <point x="93" y="325"/>
      <point x="93" y="340" type="curve" smooth="yes"/>
      <point x="93" y="352"/>
      <point x="96" y="362"/>
      <point x="103" y="369" type="curve" smooth="yes"/>
      <point x="110" y="378"/>
      <point x="119" y="382"/>
      <point x="129" y="382" type="curve" smooth="yes"/>
      <point x="140" y="382"/>
      <point x="151" y="376"/>
      <point x="161" y="363" type="curve" smooth="yes"/>
      <point x="171" y="350"/>
      <point x="176" y="336"/>
      <point x="176" y="321" type="curve" smooth="yes"/>
      <point x="176" y="310"/>
      <point x="173" y="300"/>
    </contour>
  </outline>
</glyph>
<glyph name="Ma" format="1">
  <advance width="912"/>
  <unicode hex="0C2E"/>
  <outline>
    <contour>
      <point x="562" y="153" type="curve" name="hr00"/>
      <point x="569" y="178"/>
      <point x="573" y="206"/>
      <point x="573" y="236" type="curve" smooth="yes"/>
      <point x="573" y="289"/>
      <point x="548" y="334"/>
      <point x="498" y="371" type="curve" smooth="yes"/>
      <point x="447" y="408"/>
      <point x="387" y="426"/>
      <point x="317" y="426" type="curve" smooth="yes"/>
      <point x="295" y="426" type="line"/>
      <point x="494" y="546" type="line"/>
      <point x="494" y="640" type="line"/>
      <point x="160" y="443" type="line"/>
      <point x="160" y="344" type="line"/>
      <point x="173" y="352" type="line"/>
      <point x="317" y="352" type="line" smooth="yes"/>
      <point x="374" y="352"/>
      <point x="422" y="335"/>
      <point x="463" y="300" type="curve" smooth="yes"/>
      <point x="503" y="266"/>
      <point x="523" y="225"/>
      <point x="523" y="176" type="curve" smooth="yes"/>
      <point x="523" y="145"/>
      <point x="513" y="118"/>
      <point x="493" y="96" type="curve" smooth="yes"/>
      <point x="472" y="73"/>
      <point x="448" y="62"/>
      <point x="420" y="62" type="curve" smooth="yes"/>
      <point x="403" y="62"/>
      <point x="387" y="68"/>
      <point x="370" y="79" type="curve"/>
      <point x="351" y="89"/>
      <point x="334" y="103"/>
      <point x="318" y="122" type="curve" smooth="yes"/>
      <point x="270" y="177" type="line"/>
      <point x="255" y="198"/>
      <point x="239" y="215"/>
      <point x="223" y="226" type="curve" smooth="yes"/>
      <point x="206" y="238"/>
      <point x="190" y="244"/>
      <point x="177" y="244" type="curve" smooth="yes"/>
      <point x="143" y="244"/>
      <point x="110" y="228"/>
      <point x="78" y="196" type="curve" smooth="yes"/>
      <point x="46" y="165"/>
      <point x="30" y="132"/>
      <point x="30" y="98" type="curve" smooth="yes"/>
      <point x="30" y="71"/>
      <point x="40" y="47"/>
      <point x="60" y="28" type="curve" smooth="yes"/>
      <point x="81" y="8"/>
      <point x="106" y="-1"/>
      <point x="135" y="-1" type="curve" smooth="yes"/>
      <point x="154" y="-1"/>
      <point x="174" y="5"/>
      <point x="195" y="17" type="curve" smooth="yes"/>
      <point x="215" y="28"/>
      <point x="233" y="44"/>
      <point x="250" y="65" type="curve"/>
      <point x="270" y="44"/>
      <point x="290" y="28"/>
      <point x="310" y="17" type="curve" smooth="yes"/>
      <point x="331" y="5"/>
      <point x="349" y="-1"/>
      <point x="366" y="-1" type="curve" smooth="yes"/>
      <point x="425" y="-1"/>
      <point x="475" y="22"/>
      <point x="515" y="67" type="curve" smooth="yes"/>
      <point x="517" y="69"/>
      <point x="519" y="71"/>
      <point x="520" y="73" type="curve"/>
      <point x="531" y="55"/>
      <point x="546" y="40"/>
      <point x="563" y="27" type="curve" smooth="yes"/>
      <point x="590" y="8"/>
      <point x="620" y="-1"/>
      <point x="651" y="-1" type="curve" smooth="yes"/>
      <point x="710" y="-1"/>
      <point x="764" y="23"/>
      <point x="814" y="72" type="curve" smooth="yes"/>
      <point x="864" y="121"/>
      <point x="889" y="174"/>
      <point x="889" y="231" type="curve" smooth="yes"/>
      <point x="889" y="284"/>
      <point x="870" y="332"/>
      <point x="830" y="370" type="curve" smooth="yes"/>
      <point x="791" y="408"/>
      <point x="743" y="426"/>
      <point x="687" y="426" type="curve"/>
      <point x="644" y="352" type="line"/>
      <point x="695" y="352"/>
      <point x="738" y="335"/>
      <point x="773" y="300" type="curve" smooth="yes"/>
      <point x="808" y="266"/>
      <point x="826" y="225"/>
      <point x="826" y="176" type="curve" smooth="yes"/>
      <point x="826" y="145"/>
      <point x="813" y="119"/>
      <point x="788" y="96" type="curve" smooth="yes"/>
      <point x="764" y="74"/>
      <point x="734" y="62"/>
      <point x="699" y="62" type="curve" smooth="yes"/>
      <point x="667" y="62"/>
      <point x="637" y="73"/>
      <point x="609" y="96" type="curve" smooth="yes"/>
      <point x="590" y="112"/>
      <point x="574" y="131"/>
    </contour>
    <contour>
      <point x="199" y="72" type="curve" smooth="yes"/>
      <point x="186" y="65"/>
      <point x="171" y="62"/>
      <point x="154" y="62" type="curve" smooth="yes"/>
      <point x="137" y="62"/>
      <point x="123" y="69"/>
      <point x="108" y="84" type="curve" smooth="yes"/>
      <point x="94" y="98"/>
      <point x="87" y="111"/>
      <point x="87" y="128" type="curve" smooth="yes"/>
      <point x="87" y="143"/>
      <point x="92" y="155"/>
      <point x="101" y="165" type="curve" smooth="yes"/>
      <point x="110" y="176"/>
      <point x="122" y="182"/>
      <point x="135" y="182" type="curve" smooth="yes"/>
      <point x="142" y="182"/>
      <point x="148" y="179"/>
      <point x="155" y="173" type="curve" smooth="yes"/>
      <point x="162" y="168"/>
      <point x="169" y="160"/>
      <point x="176" y="150" type="curve"/>
      <point x="225" y="98" type="line"/>
      <point x="220" y="87"/>
      <point x="212" y="79"/>
    </contour>
  </outline>
</glyph>
<glyph name="Ya" format="1">
  <advance width="1086"/>
  <unicode hex="0C2F"/>
  <outline>
    <contour>
      <point x="547" y="352" type="line" smooth="yes" name="hr00"/>
      <point x="589" y="352"/>
      <point x="625" y="335"/>
      <point x="654" y="300" type="curve" smooth="yes"/>
      <point x="683" y="266"/>
      <point x="698" y="225"/>
      <point x="698" y="176" type="curve" smooth="yes"/>
      <point x="698" y="145"/>
      <point x="687" y="118"/>
      <point x="668" y="96" type="curve" smooth="yes"/>
      <point x="648" y="73"/>
      <point x="625" y="62"/>
      <point x="596" y="62" type="curve" smooth="yes"/>
      <point x="571" y="62"/>
      <point x="547" y="71"/>
      <point x="522" y="90" type="curve" smooth="yes"/>
      <point x="497" y="108"/>
      <point x="476" y="133"/>
      <point x="457" y="164" type="curve"/>
      <point x="461" y="171"/>
      <point x="464" y="182"/>
      <point x="466" y="195" type="curve" smooth="yes"/>
      <point x="469" y="208"/>
      <point x="470" y="224"/>
      <point x="470" y="243" type="curve" smooth="yes"/>
      <point x="470" y="288"/>
      <point x="449" y="330"/>
      <point x="408" y="369" type="curve" smooth="yes"/>
      <point x="367" y="407"/>
      <point x="322" y="426"/>
      <point x="274" y="426" type="curve" smooth="yes"/>
      <point x="214" y="426" type="line"/>
      <point x="157" y="393"/>
      <point x="112" y="354"/>
      <point x="79" y="307" type="curve" smooth="yes"/>
      <point x="46" y="260"/>
      <point x="30" y="212"/>
      <point x="30" y="164" type="curve" smooth="yes"/>
      <point x="30" y="123"/>
      <point x="44" y="85"/>
      <point x="76" y="50" type="curve" smooth="yes"/>
      <point x="107" y="16"/>
      <point x="142" y="-1"/>
      <point x="177" y="-1" type="curve" smooth="yes"/>
      <point x="269" y="-1" type="line" smooth="yes"/>
      <point x="292" y="-1"/>
      <point x="317" y="7"/>
      <point x="342" y="22" type="curve" smooth="yes"/>
      <point x="368" y="37"/>
      <point x="392" y="57"/>
      <point x="414" y="83" type="curve"/>
      <point x="431" y="57"/>
      <point x="454" y="37"/>
      <point x="481" y="22" type="curve" smooth="yes"/>
      <point x="508" y="7"/>
      <point x="536" y="-1"/>
      <point x="566" y="-1" type="curve" smooth="yes"/>
      <point x="615" y="-1"/>
      <point x="655" y="20"/>
      <point x="691" y="62" type="curve" smooth="yes"/>
      <point x="697" y="69" type="line"/>
      <point x="708" y="53"/>
      <point x="721" y="39"/>
      <point x="738" y="27" type="curve" smooth="yes"/>
      <point x="765" y="8"/>
      <point x="794" y="-1"/>
      <point x="825" y="-1" type="curve" smooth="yes"/>
      <point x="884" y="-1"/>
      <point x="939" y="23"/>
      <point x="988" y="72" type="curve" smooth="yes"/>
      <point x="1038" y="121"/>
      <point x="1063" y="174"/>
      <point x="1063" y="231" type="curve" smooth="yes"/>
      <point x="1063" y="284"/>
      <point x="1045" y="332"/>
      <point x="1005" y="370" type="curve" smooth="yes"/>
      <point x="966" y="408"/>
      <point x="917" y="426"/>
      <point x="861" y="426" type="curve"/>
      <point x="818" y="352" type="line"/>
      <point x="869" y="352"/>
      <point x="913" y="335"/>
      <point x="948" y="300" type="curve" smooth="yes"/>
      <point x="983" y="266"/>
      <point x="1000" y="225"/>
      <point x="1000" y="176" type="curve" smooth="yes"/>
      <point x="1000" y="145"/>
      <point x="988" y="118"/>
      <point x="963" y="96" type="curve" smooth="yes"/>
      <point x="938" y="73"/>
      <point x="909" y="62"/>
      <point x="874" y="62" type="curve" smooth="yes"/>
      <point x="841" y="62"/>
      <point x="811" y="73"/>
      <point x="783" y="96" type="curve" smooth="yes"/>
      <point x="764" y="112"/>
      <point x="748" y="131"/>
      <point x="735" y="153" type="curve"/>
      <point x="740" y="172"/>
      <point x="742" y="192"/>
      <point x="742" y="213" type="curve" smooth="yes"/>
      <point x="742" y="271"/>
      <point x="724" y="321"/>
      <point x="687" y="364" type="curve" smooth="yes"/>
      <point x="665" y="389"/>
      <point x="641" y="406"/>
      <point x="614" y="415" type="curve"/>
      <point x="793" y="526" type="line"/>
      <point x="793" y="620" type="line"/>
      <point x="500" y="443" type="line"/>
      <point x="500" y="344" type="line"/>
      <point x="512" y="352" type="line"/>
    </contour>
    <contour>
      <point x="364" y="89" type="curve" smooth="yes"/>
      <point x="336" y="63"/>
      <point x="302" y="50"/>
      <point x="262" y="50" type="curve" smooth="yes"/>
      <point x="220" y="50"/>
      <point x="183" y="66"/>
      <point x="150" y="97" type="curve" smooth="yes"/>
      <point x="117" y="129"/>
      <point x="100" y="165"/>
      <point x="100" y="206" type="curve" smooth="yes"/>
      <point x="100" y="231"/>
      <point x="106" y="256"/>
      <point x="117" y="281" type="curve" smooth="yes"/>
      <point x="129" y="306"/>
      <point x="145" y="330"/>
      <point x="165" y="352" type="curve"/>
      <point x="235" y="352"/>
      <point x="293" y="336"/>
      <point x="338" y="303" type="curve" smooth="yes"/>
      <point x="383" y="271"/>
      <point x="406" y="231"/>
      <point x="406" y="183" type="curve" smooth="yes"/>
      <point x="406" y="146"/>
      <point x="392" y="115"/>
    </contour>
  </outline>
</glyph>
<glyph name="Ra" format="1">
  <advance width="493"/>
  <unicode hex="0C30"/>
  <outline>
    <contour>
      <point x="462" y="533" type="line" name="hr00"/>
      <point x="462" y="627" type="line"/>
      <point x="169" y="450" type="line"/>
      <point x="169" y="398" type="line"/>
      <point x="128" y="354" type="line"/>
      <point x="97" y="333"/>
      <point x="73" y="305"/>
      <point x="56" y="270" type="curve" smooth="yes"/>
      <point x="39" y="235"/>
      <point x="30" y="198"/>
      <point x="30" y="158" type="curve" smooth="yes"/>
      <point x="30" y="119"/>
      <point x="49" y="82"/>
      <point x="88" y="49" type="curve" smooth="yes"/>
      <point x="127" y="16"/>
      <point x="169" y="-1"/>
      <point x="214" y="-1" type="curve" smooth="yes"/>
      <point x="281" y="-1"/>
      <point x="340" y="22"/>
      <point x="392" y="70" type="curve" smooth="yes"/>
      <point x="445" y="118"/>
      <point x="470" y="175"/>
      <point x="470" y="236" type="curve" smooth="yes"/>
      <point x="470" y="283"/>
      <point x="445" y="326"/>
      <point x="395" y="367" type="curve" smooth="yes"/>
      <point x="358" y="396"/>
      <point x="321" y="414"/>
      <point x="282" y="421" type="curve"/>
    </contour>
    <contour>
      <point x="361" y="92" type="curve" smooth="yes"/>
      <point x="331" y="64"/>
      <point x="298" y="50"/>
      <point x="262" y="50" type="curve" smooth="yes"/>
      <point x="215" y="50"/>
      <point x="176" y="67"/>
      <point x="146" y="100" type="curve" smooth="yes"/>
      <point x="115" y="133"/>
      <point x="100" y="174"/>
      <point x="100" y="225" type="curve" smooth="yes"/>
      <point x="100" y="251"/>
      <point x="103" y="275"/>
      <point x="113" y="298" type="curve" smooth="yes"/>
      <point x="122" y="319"/>
      <point x="136" y="337"/>
      <point x="152" y="352" type="curve"/>
      <point x="214" y="352" type="line" smooth="yes"/>
      <point x="262" y="352"/>
      <point x="305" y="333"/>
      <point x="345" y="298" type="curve" smooth="yes"/>
      <point x="385" y="262"/>
      <point x="406" y="224"/>
      <point x="406" y="183" type="curve" smooth="yes"/>
      <point x="406" y="150"/>
      <point x="391" y="119"/>
    </contour>
  </outline>
</glyph>
<glyph name="RRa" format="1">
  <advance width="620"/>
  <unicode hex="0C31"/>
  <outline>
    <contour>
      <point x="151" y="280" type="curve" smooth="yes" name="hr00"/>
      <point x="142" y="280"/>
      <point x="134" y="285"/>
      <point x="127" y="294" type="curve" smooth="yes"/>
      <point x="120" y="303"/>
      <point x="117" y="315"/>
      <point x="117" y="328" type="curve" smooth="yes"/>
      <point x="117" y="336"/>
      <point x="120" y="343"/>
      <point x="125" y="349" type="curve" smooth="yes"/>
      <point x="129" y="355"/>
      <point x="134" y="358"/>
      <point x="141" y="358" type="curve" smooth="yes"/>
      <point x="151" y="358"/>
      <point x="159" y="353"/>
      <point x="166" y="344" type="curve" smooth="yes"/>
      <point x="173" y="335"/>
      <point x="176" y="323"/>
      <point x="176" y="310" type="curve" smooth="yes"/>
      <point x="176" y="302"/>
      <point x="174" y="295"/>
      <point x="169" y="289" type="curve" smooth="yes"/>
      <point x="164" y="283"/>
      <point x="158" y="280"/>
    </contour>
    <contour>
      <point x="425" y="-1" type="curve" smooth="yes"/>
      <point x="468" y="-1"/>
      <point x="508" y="23"/>
      <point x="543" y="72" type="curve" smooth="yes"/>
      <point x="579" y="121"/>
      <point x="597" y="174"/>
      <point x="597" y="231" type="curve" smooth="yes"/>
      <point x="597" y="282"/>
      <point x="579" y="328"/>
      <point x="543" y="367" type="curve" smooth="yes"/>
      <point x="507" y="406"/>
      <point x="466" y="426"/>
      <point x="420" y="426" type="curve" smooth="yes"/>
      <point x="388" y="426"/>
      <point x="358" y="412"/>
      <point x="331" y="384" type="curve" smooth="yes"/>
      <point x="304" y="355"/>
      <point x="291" y="324"/>
      <point x="291" y="291" type="curve" smooth="yes"/>
      <point x="291" y="279"/>
      <point x="294" y="268"/>
      <point x="301" y="257" type="curve" smooth="yes"/>
      <point x="308" y="246"/>
      <point x="316" y="237"/>
      <point x="325" y="232" type="curve"/>
      <point x="219" y="232" type="line"/>
      <point x="175" y="163" type="line"/>
      <point x="377" y="163" type="line"/>
      <point x="441" y="232" type="line"/>
      <point x="414" y="232"/>
      <point x="389" y="240"/>
      <point x="368" y="257" type="curve" smooth="yes"/>
      <point x="347" y="273"/>
      <point x="336" y="291"/>
      <point x="336" y="310" type="curve" smooth="yes"/>
      <point x="336" y="322"/>
      <point x="341" y="332"/>
      <point x="352" y="339" type="curve"/>
      <point x="362" y="348"/>
      <point x="375" y="352"/>
      <point x="390" y="352" type="curve" smooth="yes"/>
      <point x="427" y="352"/>
      <point x="461" y="334"/>
      <point x="495" y="297" type="curve" smooth="yes"/>
      <point x="528" y="261"/>
      <point x="546" y="223"/>
      <point x="546" y="183" type="curve" smooth="yes"/>
      <point x="546" y="150"/>
      <point x="537" y="123"/>
      <point x="520" y="101" type="curve" smooth="yes"/>
      <point x="503" y="78"/>
      <point x="481" y="67"/>
      <point x="456" y="67" type="curve" smooth="yes"/>
      <point x="431" y="67"/>
      <point x="407" y="74"/>
      <point x="382" y="87" type="curve" smooth="yes"/>
      <point x="359" y="100"/>
      <point x="339" y="118"/>
      <point x="322" y="142" type="curve"/>
      <point x="303" y="120"/>
      <point x="284" y="103"/>
      <point x="264" y="91" type="curve" smooth="yes"/>
      <point x="245" y="80"/>
      <point x="226" y="74"/>
      <point x="207" y="74" type="curve" smooth="yes"/>
      <point x="176" y="74"/>
      <point x="149" y="86"/>
      <point x="127" y="111" type="curve" smooth="yes"/>
      <point x="104" y="136"/>
      <point x="93" y="165"/>
      <point x="93" y="200" type="curve" smooth="yes"/>
      <point x="93" y="213"/>
      <point x="95" y="223"/>
      <point x="99" y="230" type="curve"/>
      <point x="106" y="226"/>
      <point x="112" y="223"/>
      <point x="117" y="222" type="curve"/>
      <point x="122" y="219"/>
      <point x="126" y="218"/>
      <point x="129" y="218" type="curve" smooth="yes"/>
      <point x="154" y="218"/>
      <point x="181" y="234"/>
      <point x="210" y="267" type="curve" smooth="yes"/>
      <point x="237" y="299"/>
      <point x="251" y="330"/>
      <point x="251" y="359" type="curve" smooth="yes"/>
      <point x="251" y="377"/>
      <point x="245" y="393"/>
      <point x="233" y="406" type="curve" smooth="yes"/>
      <point x="220" y="419"/>
      <point x="206" y="426"/>
      <point x="189" y="426" type="curve" smooth="yes"/>
      <point x="153" y="426"/>
      <point x="118" y="399"/>
      <point x="83" y="345" type="curve" smooth="yes"/>
      <point x="48" y="290"/>
      <point x="30" y="236"/>
      <point x="30" y="183" type="curve" smooth="yes"/>
      <point x="30" y="138"/>
      <point x="45" y="96"/>
      <point x="76" y="57" type="curve" smooth="yes"/>
      <point x="108" y="18"/>
      <point x="142" y="-1"/>
      <point x="177" y="-1" type="curve" smooth="yes"/>
      <point x="193" y="-1"/>
      <point x="211" y="4"/>
      <point x="230" y="15" type="curve" smooth="yes"/>
      <point x="247" y="26"/>
      <point x="264" y="41"/>
      <point x="280" y="60" type="curve"/>
      <point x="299" y="41"/>
      <point x="321" y="26"/>
      <point x="346" y="15" type="curve" smooth="yes"/>
      <point x="372" y="4"/>
      <point x="398" y="-1"/>
    </contour>
  </outline>
</glyph>
